SplineFontDB: 3.0
FontName: LinLibertineOBI
FullName: Linux Libertine O Bold Italic
FamilyName: Linux Libertine O
Weight: Bold
Copyright: Linux Libertine by Philipp H. Poll,\nOpen Font under Terms of following Free Software Licenses:\nGPL (General Public License) with font-exception and OFL (Open Font License).\nCreated with FontForge (http://fontforge.sf.net)\nSept 2003, 2004, 2005, 2006, 2007, 2008, 2009, 2010, 2011,2012
UComments: "2003-08-29: Created.+AAoA-2004-07-25: v(1.0) release candidate+AAoA-2005-12-28: v(1.1.0)stable+AAoA-2006-05-01: v(2.0.0)stable+AAoA-2007-01-10: v(2.3.0)stable" 
Version: 5.1.8
ItalicAngle: -12
UnderlinePosition: -98
UnderlineWidth: 40
Ascent: 754
Descent: 246
LayerCount: 2
Layer: 0 0 "Back"  1
Layer: 1 0 "Fore"  0
XUID: [1021 975 16237491 13016554]
FSType: 0
OS2Version: 3
OS2_WeightWidthSlopeOnly: 0
OS2_UseTypoMetrics: 0
CreationTime: 1155510122
ModificationTime: 1341180421
PfmFamily: 17
TTFWeight: 700
TTFWidth: 5
LineGap: 0
VLineGap: 0
OS2TypoAscent: 894
OS2TypoAOffset: 0
OS2TypoDescent: -246
OS2TypoDOffset: 0
OS2TypoLinegap: 0
OS2WinAscent: 894
OS2WinAOffset: 0
OS2WinDescent: 246
OS2WinDOffset: 0
HheadAscent: 894
HheadAOffset: 0
HheadDescent: -246
HheadDOffset: 0
OS2FamilyClass: 261
OS2Vendor: 'PfEd'
Lookup: 1 0 0 "Substitution f short"  {"Substitution f short 1"  } []
Lookup: 1 0 0 "Substitution dotless forms"  {"Substitution dotless forms 1"  } []
Lookup: 3 0 0 "LinLibertine-'aalt' Alle Alternativen zeigen"  {"LinLibertine-'aalt' Alle Alternativen zeigen 1"  } ['aalt' ('DFLT' <'dflt' > 'cyrl' <'dflt' > 'grek' <'dflt' > 'latn' <'AZE ' 'CRT ' 'DEU ' 'MOL ' 'ROM ' 'TRK ' 'dflt' > ) ]
Lookup: 1 0 0 "LinLibertine-'locl' Localized Forms Romaenisch"  {"LinLibertine-'locl' Localized Forms Romaenisch 1"  } ['locl' ('latn' <'MOL ' 'ROM ' > ) ]
Lookup: 1 0 0 "'smcp' Gemeine nach Kapitaelchen i > idotaccent.sc"  {"'smcp' Gemeine nach Kapitaelchen i > idotaccent.sc"  } ['smcp' ('latn' <'AZE ' 'CRT ' 'TRK ' > ) ]

StartChar: exclam
Encoding: 33 33 0
Width: 266
Flags: HW
HStem: -10 139<84 187> 188 470<156.792 256.694>
VStem: 62 146<11.9591 106.904> 173.1 135.4<514.144 627.662>
LayerCount: 2
Fore
SplineSet
256.7 658 m 0
 291.5 658 319.3 634 308.5 583 c 0
 301.1 548 285.4 510 272.7 477 c 0
 236.6 379.1 203.4 279 192 230 c 0
 187.6 211 178.5 188 156.8 188 c 0
 132.3 188 133.8 208 140.1 242 c 0
 149.1 289.7 161.4 409.6 164.3 480 c 0
 165.2 515 164.8 544 173.1 583 c 0
 185 639 227.6 658 256.7 658 c 0
62 58 m 0
 62 97 96 129 136 129 c 0
 176 129 208 99 208 60 c 0
 208 22 174 -10 134 -10 c 0
 94 -10 62 20 62 58 c 0
EndSplineSet
EndChar

StartChar: quotedbl
Encoding: 34 34 1
Width: 376
Flags: HW
HStem: 421 224
VStem: 63 110<498.128 631.224> 204 110<498.128 631.224>
LayerCount: 2
Fore
SplineSet
270.4 411 m 1
 257.2 415 l 1
 257.2 415 263.2 585 264.5 591 c 0
 269.4 614 296.7 645 337.1 645 c 0
 376.6 645 375.3 626 371.5 608 c 0
 368.3 593 296.1 417 296.1 417 c 1
 270.4 411 l 1
137.9 411 m 1
 124.6 415 l 1
 124.6 415 130.7 585 132 591 c 0
 136.9 614 164.1 645 204.5 645 c 0
 244 645 242.8 626 239 608 c 0
 235.8 593 163.6 417 163.6 417 c 1
 137.9 411 l 1
EndSplineSet
EndChar

StartChar: numbersign
Encoding: 35 35 2
Width: 514
Flags: HMW
HStem: 187 66<37.5 127.5 192.5 280.5 341.5 451.5> 360 66<63.5 154.5 218.5 305.5 368.5 476.5> 579 20G<187.5 248.5 338.5 395.5>
DStem2: 99.5 14 154.5 14 0.158649 0.987335<8.72568 175.251 250.727 350.344 425.661 592.345> 251.5 14 304.5 14 0.155356 0.987859<8.23384 175.405 250.08 350.188 425.174 592.19>
LayerCount: 2
Fore
SplineSet
328.2 253 m 1
 367 360 l 1
 278.6 360 l 1
 265.1 323 251.5 290 238 253 c 1
 328.2 253 l 1
416.8 360 m 1
 378.1 253 l 1
 489 253 l 1
 467.4 187 l 1
 355.6 187 l 1
 333.4 127 314.2 72 292.5 14 c 1
 242.7 14 l 1
 306.7 187 l 1
 216.4 187 l 1
 193.3 127 174.2 72 151.5 14 c 1
 99.8 14 l 1
 162.9 187 l 1
 69.8 187 l 1
 92.3 253 l 1
 186.3 253 l 1
 199.8 290 212.4 323 225 360 c 1
 131 360 l 1
 153.5 426 l 1
 247.5 426 l 1
 269.2 484 289.8 541 311.5 599 c 1
 364.2 599 l 1
 299.2 426 l 1
 390.4 426 l 1
 412.1 484 431.8 541 453.5 599 c 1
 502.4 599 l 1
 440.2 426 l 1
 550.2 426 l 1
 527.7 360 l 1
 416.8 360 l 1
EndSplineSet
EndChar

StartChar: dollar
Encoding: 36 36 3
Width: 514
VWidth: 999
Flags: HW
HStem: -8.9 40<267.328 318.701> 571.6 38.3<210.186 256.33 299.058 326.376>
VStem: 66 116<434.9 521.737> 350 117<91.8754 195>
DStem2: 219.555 -98.2666 260.5 -93.25 0.0548206 0.998496<3.21001 89.8972 131.799 317.025 491.345 669.301 710.014 792.677>
LayerCount: 2
Fore
SplineSet
320.5 392.3 m 1
 367.8 571.6 l 1
 327.2 567.6 290.7 537.4 280.4 489 c 0
 272.8 453.3 295.5 417.6 320.5 392.3 c 1
312.1 216.1 m 1
 263.3 31.1 l 1
 309.5 37 348.4 66.1 357.1 107 c 0
 366.7 152.4 341.3 187.8 312.1 216.1 c 1
527.3 585 m 1
 521.5 531 517.2 493 506.8 444 c 1
 495.7 436 473.9 435 462.5 439 c 1
 459.9 491.3 453.6 551.6 405.1 567.8 c 1
 351.8 366.3 l 1
 355.4 364 l 2
 385.2 345 432.8 317 458.1 277 c 0
 477.1 247 490.9 219 480.7 171 c 0
 468.6 114 431 70.1 393.9 41 c 0
 352.4 8.4 304.1 -7.8 252.7 -8.9 c 1
 230.4 -93.2 l 1
 222.6 -97.4 200.3 -98.3 190.9 -98.3 c 1
 214.6 -8.5 l 1
 126.5 -5.6 123.6 9 78.7 9 c 1
 76.5 43 79.4 92 94.3 162 c 1
 109.3 166 124.4 171 138.2 165 c 1
 138.2 91.1 176.4 42.7 225.3 32.2 c 1
 280.8 242.3 l 1
 245.8 267.3 193.5 297.4 169.9 345 c 0
 156.1 373 155.4 414 163.1 450 c 0
 172.7 495 205.2 538 244.1 566 c 0
 284.5 594.9 338.7 608.3 377.9 609.9 c 1
 399 689.5 l 1
 408.4 693 426.5 694.5 438.5 694.5 c 1
 416 609 l 1
 471.4 605.2 487.3 591 527.3 585 c 1
EndSplineSet
EndChar

StartChar: percent
Encoding: 37 37 4
Width: 637
VWidth: 999
Flags: HW
HStem: -19 39<430.54 515.428> 214 36<522.655 578.526> 297 39<195.54 280.428> 474 45<382.31 549.929> 530 36<287.655 343.526> 549 20G<594.355 656.127>
VStem: 143.9 83<336.144 453.44> 345.8 40.4<420.137 528.747> 378.9 83<20.1444 137.44> 580.8 40.4<104.137 212.747>
DStem2: 103.587 -4 151.796 -16 0.66796 0.744198<23.2713 673.779 702.533 770.234>
LayerCount: 2
Fore
SplineSet
226.9 364.2 m 0
 226.9 350.1 234.5 336 243.5 336 c 0
 263 336 280.9 352.7 298.7 376 c 0
 324.2 409.5 345.8 453.1 345.8 497.6 c 0
 345.8 526.7 329 530 318.3 530 c 0
 299.6 530 279 506.8 262.1 478 c 0
 242 443.6 226.9 414.1 226.9 364.2 c 0
203.5 516.6 m 0
 232.7 546.1 274 566 315.6 566 c 0
 337.2 566 358.7 561 372.2 546.3 c 1
 394.4 531 438.3 519 466.7 519 c 0
 506.2 519 570.4 525 618.3 569 c 1
 658 548 l 1
 151.8 -16 l 1
 103.6 -4 l 1
 554.1 497 l 1
 514 481 475.9 474 447.7 474 c 0
 427.5 474 401.8 482.7 385.8 492.8 c 1
 382.1 437.8 353.9 388.1 327.1 355.6 c 0
 297.3 319.5 259.6 297 219.9 297 c 0
 171.2 297 143.9 322.5 143.9 372.8 c 0
 143.9 434.4 167.4 480.1 203.5 516.6 c 0
461.9 48.2 m 0
 461.9 34.1 469.5 20 478.5 20 c 0
 498 20 515.9 36.7 533.7 60 c 0
 559.2 93.5 580.8 137.1 580.8 181.6 c 0
 580.8 210.7 564 214 553.3 214 c 0
 534.6 214 514 190.8 497.1 162 c 0
 477 127.6 461.9 98.1 461.9 48.2 c 0
438.5 200.6 m 0
 467.7 230.1 509 250 550.6 250 c 0
 586 250 621.2 236.4 621.2 188.9 c 0
 621.2 129.2 590.9 74.5 562.1 39.6 c 0
 532.3 3.5 494.6 -19 454.9 -19 c 0
 406.2 -19 378.9 6.5 378.9 56.8 c 0
 378.9 118.4 402.4 164.1 438.5 200.6 c 0
EndSplineSet
EndChar

StartChar: parenleft
Encoding: 40 40 5
Width: 315
Flags: HW
LayerCount: 2
Fore
SplineSet
96.8 253 m 0
 135.5 435 268.8 607 416 720 c 1
 435.1 686 l 1
 399.5 651 261 517 204.9 253 c 0
 148.8 -11 228.4 -145 250.8 -181 c 1
 215.8 -213 l 1
 44.1 -17 87.2 208 96.8 253 c 0
EndSplineSet
Substitution2: "'case' Versalformen 1" parenleft.sc
Substitution2: "'c2sc' Versale nach Kapitaelchen 1" parenleft.sc
Substitution2: "'sinf' Wissenschaftliche Indices 1" parenleft.inferior
Substitution2: "'sups' Hochgestellte 1" parenleft.superior
AlternateSubs2: "LinLibertine-'aalt' Alle Alternativen zeigen 1" parenleft.sc
EndChar

StartChar: parenright
Encoding: 41 41 6
Width: 315
VWidth: 999
Flags: HW
LayerCount: 2
Fore
SplineSet
325.2 251 m 0
 286.5 69 153.2 -103 6 -216 c 1
 -13.1 -182 l 1
 22.5 -147 161 -13 217.1 251 c 0
 273.2 515 193.6 649 171.2 685 c 1
 206.2 717 l 1
 377.9 521 334.8 296 325.2 251 c 0
EndSplineSet
Substitution2: "'case' Versalformen 1" parenright.sc
Substitution2: "'c2sc' Versale nach Kapitaelchen 1" parenright.sc
Substitution2: "'sinf' Wissenschaftliche Indices 1" parenright.inferior
Substitution2: "'sups' Hochgestellte 1" parenright.superior
AlternateSubs2: "LinLibertine-'aalt' Alle Alternativen zeigen 1" parenright.sc
EndChar

StartChar: asterisk
Encoding: 42 42 7
Width: 433
VWidth: 999
Flags: HW
HStem: 571 69<77.0607 155.725 271.439 350.068>
VStem: 114 99<486.481 523.5> 173 78<621.002 713.184>
LayerCount: 2
Fore
SplineSet
247.1 566 m 1
 235.3 568 224.1 573 209.6 571 c 0
 165.6 563 131.8 563 141.4 608 c 0
 144.4 622 156.6 640 179.2 640 c 0
 211.2 640 220.1 607 257.4 588 c 1
 262.1 628 243.1 653 248.6 679 c 0
 253.1 700 275.7 718 292.6 718 c 0
 309.5 718 327.8 707 322.7 683 c 0
 317 656 287.4 618 279.1 588 c 1
 325.4 607 343.2 642 374.2 642 c 0
 403.3 642 405.7 618 403.6 608 c 0
 397.2 578 363.2 568 330.3 568 c 0
 312.4 568 296.5 568 278.9 565 c 1
 303.2 529 351.5 531 340.7 480 c 0
 336.9 462 317.7 451 304.5 451 c 0
 258.4 451 274.4 513 259.2 552 c 1
 226.1 507 227.4 451 171.9 451 c 0
 155.9 451 147.4 464 150.6 479 c 0
 162.1 533 208 528 247.1 566 c 1
EndSplineSet
EndChar

StartChar: plus
Encoding: 43 43 8
Width: 537
Flags: HW
HStem: 195 74<134.238 275.249 368.538 509.549> 413 20G<321.587 403.397>
DStem2: 240.603 32 318.162 32 0.207912 0.978148<16.1255 166.641 258.42 409.959>
LayerCount: 2
Fore
SplineSet
368.5 269 m 1
 525.3 269 l 1
 509.5 195 l 1
 352.8 195 l 1
 318.2 32 l 1
 240.6 32 l 1
 275.2 195 l 1
 118.5 195 l 1
 134.2 269 l 1
 291 269 l 1
 325.8 433 l 1
 403.4 433 l 1
 368.5 269 l 1
EndSplineSet
Substitution2: "'sinf' Wissenschaftliche Indices 1" plus.inferior
Substitution2: "'sups' Hochgestellte 1" plus.superior
AlternateSubs2: "LinLibertine-'aalt' Alle Alternativen zeigen 1" plus.superior plus.inferior uni2098
EndChar

StartChar: slash
Encoding: 47 47 9
Width: 296
Flags: HW
DStem2: 24.5996 -21 83.8203 -21 0.415983 0.909372<24.6348 773.061>
LayerCount: 2
Fore
SplineSet
405.4 682 m 1
 83.8 -21 l 1
 24.6 -21 l 1
 346.2 682 l 1
 405.4 682 l 1
EndSplineSet
Ligature2: "'frac' Brueche 1" uni2215
AlternateSubs2: "LinLibertine-'aalt' Alle Alternativen zeigen 1" uni2215
EndChar

StartChar: one
Encoding: 49 49 10
Width: 514
Flags: HW
HStem: -2 34<131.8 211.1 388.056 453.273> 464 21G<205.737 239.079> 590 20G<466.947 475.877>
DStem2: 227.823 -2 350.023 -2 0.207912 0.978148<86.3262 498.371>
LayerCount: 2
Fore
SplineSet
376.4 122 m 2
 358.8 39 403 35 454.1 32 c 1
 462.2 26 457.5 4 446.8 -2 c 1
 388 -1 327.9 0 290.3 0 c 0
 252.7 0 131 -2 131 -2 c 1
 122.9 4 127.5 26 138.2 32 c 1
 190.5 35 236.6 39 254.2 122 c 2
 320.7 435 l 2
 331.3 485 326.5 489 314.3 489 c 0
 301.1 489 266.9 487 211.3 464 c 1
 200.3 474 197 490.4 199.7 507 c 1
 289.1 543 358.2 567 421.5 595 c 0
 445.5 606 462.2 610 471.6 610 c 0
 480.1 610 486.8 606 484 593 c 2
 484 593 464.4 536 453.1 483 c 2
 376.4 122 l 2
EndSplineSet
Substitution2: "LinLibertine-'onum' Minuskelziffern 1" one.taboldstyle
Substitution2: "LinLibertine-'pnum' Proportionalziffern 1" one.fitted
Substitution2: "'sinf' Wissenschaftliche Indices 1" one.inferior
Substitution2: "'sups' Hochgestellte 1" one.superior
AlternateSubs2: "LinLibertine-'aalt' Alle Alternativen zeigen 1" one.oldstyle one.superior one.fitted
EndChar

StartChar: two
Encoding: 50 50 11
Width: 514
Flags: HW
HStem: 0 99<211.8 408.34> 550 60<268.115 374.279>
VStem: 139.6 109.4<422.717 512.878> 400 130.7<397.45 523.647>
DStem2: 67.5 36.1855 284.914 174 0.706459 0.707754<147.828 471.003>
LayerCount: 2
Fore
SplineSet
257 583.1 m 0
 291.2 599.4 322.5 610 370.1 610 c 0
 451.1 610 530.7 560.1 530.7 482 c 0
 530.7 386.9 474.1 346.4 338.7 223 c 2
 284.9 174 l 2
 248.8 141.1 232 122 211.8 99 c 1
 353 99 l 2
 395.3 99 405.1 106 440.2 174 c 1
 461.8 174 469.5 170 480.4 164 c 1
 461.7 107 435.8 38 416.4 0 c 1
 63.6 0 l 1
 60 7.5 62 26.5 67.5 36.2 c 1
 97 63 146.1 109.6 238 204.5 c 2
 319.9 289 l 2
 376.7 347.7 400 395.5 400 466 c 0
 400 517.5 363 550 319.6 550 c 0
 282 550 259.8 539.4 249 518.5 c 0
 238.1 497.6 254 480.5 249 454.5 c 0
 243 423.4 211.9 410 184.6 410 c 0
 155.1 410 139.6 433 139.6 455.2 c 0
 139.6 512 195.2 553.6 257 583.1 c 0
EndSplineSet
Substitution2: "LinLibertine-'onum' Minuskelziffern 1" two.taboldstyle
Substitution2: "LinLibertine-'pnum' Proportionalziffern 1" two.fitted
Substitution2: "'sinf' Wissenschaftliche Indices 1" two.inferior
Substitution2: "'sups' Hochgestellte 1" two.superior
AlternateSubs2: "LinLibertine-'aalt' Alle Alternativen zeigen 1" two.oldstyle two.superior two.fitted
EndChar

StartChar: three
Encoding: 51 51 12
Width: 514
Flags: HW
HStem: -10 42<187.594 308.245> 289 40<222.629 269.435> 550 60<270.583 375.889>
VStem: 61 107.7<50.6907 100.796> 147.5 104.6<453.261 518.085> 370.6 128.4<125.544 249.97> 397 114.3<418.323 529.482>
LayerCount: 2
Fore
SplineSet
324.9 550 m 0
 292.9 550 261.5 545 252.1 505 c 0
 244.3 471.6 229.6 434 192.5 434 c 0
 169.7 434 147.5 448 147.5 474 c 0
 147.5 500.1 169.1 521.9 199.5 544.5 c 0
 236.5 572 292 610 365.3 610 c 0
 472.7 610 511.3 535.2 511.3 492.1 c 0
 511.3 422.6 472 386 398.6 347 c 1
 399.2 343.6 l 1
 464.6 321 499 273.3 499 217 c 0
 499 141.4 466.5 100.6 426.5 60.5 c 0
 366.7 0.5 284.4 -10 219.5 -10 c 0
 173.4 -10 113.3 5 83.3 23 c 0
 68.5 31.9 61 43.4 61 58.5 c 0
 61 83.9 79.2 111 112.5 111 c 0
 147.3 111 161.5 89 168.7 74 c 0
 177.3 57 206.5 32 243.2 32 c 0
 265.2 32 304 39.4 333.6 76 c 0
 355.4 103 370.6 125.3 370.6 182 c 0
 370.6 257.9 311.4 291 270.1 291 c 0
 256 291 239.6 291 220.3 289 c 1
 214.4 298.9 220.9 319.3 225.2 329 c 1
 257.6 333 289.2 340.1 318.3 354.3 c 0
 380.5 384.5 397 418.7 397 482 c 0
 397 520 363.5 550 324.9 550 c 0
EndSplineSet
Substitution2: "LinLibertine-'onum' Minuskelziffern 1" three.taboldstyle
Substitution2: "LinLibertine-'pnum' Proportionalziffern 1" three.fitted
Substitution2: "'sinf' Wissenschaftliche Indices 1" three.inferior
Substitution2: "'sups' Hochgestellte 1" three.superior
AlternateSubs2: "LinLibertine-'aalt' Alle Alternativen zeigen 1" three.oldstyle three.superior three.fitted
EndChar

StartChar: four
Encoding: 52 52 13
Width: 514
Flags: HW
HStem: -2 34<162.275 236.655 399.012 459.308> 162 47<120.787 283.757 410.307 509.028> 590 20G<365.315 495.542>
DStem2: 248.898 -2 365.457 -2 0.207912 0.978148<81.1761 167.664 239.948 514.213>
LayerCount: 2
Fore
SplineSet
355.8 501 m 1
 290.7 429 185.5 292.5 120.8 209 c 1
 293.7 209 l 1
 355.8 501 l 1
502.4 209 m 2
 512.7 209 515.2 203 513.1 193 c 0
 510.5 181 492.5 162 479.3 162 c 2
 400.3 162 l 1
 391.8 122 l 2
 374.2 39 409 35 460.1 32 c 1
 468.2 26 463.6 4 452.9 -2 c 1
 376 -1 346.1 0 308.5 0 c 0
 270.9 0 161.5 -2 161.5 -2 c 1
 153.4 4 158 26 168.7 32 c 1
 221 35 257.7 39 275.3 122 c 2
 283.8 162 l 1
 117.4 162 l 2
 94.8 162 91.4 164 87.8 169 c 2
 77.6 187 l 1
 74.3 198 68.4 206 69.3 210 c 0
 69.9 213 75.6 219.5 78.6 223 c 0
 182.4 346.5 319.6 519 410.9 610 c 1
 495.5 610 l 1
 410.3 209 l 1
 502.4 209 l 2
EndSplineSet
Substitution2: "LinLibertine-'onum' Minuskelziffern 1" four.taboldstyle
Substitution2: "LinLibertine-'pnum' Proportionalziffern 1" four.fitted
Substitution2: "'sinf' Wissenschaftliche Indices 1" four.inferior
Substitution2: "'sups' Hochgestellte 1" four.superior
AlternateSubs2: "LinLibertine-'aalt' Alle Alternativen zeigen 1" four.oldstyle four.superior four.fitted
EndChar

StartChar: five
Encoding: 53 53 14
Width: 514
Flags: HW
HStem: -10 44<203.258 302.531> 508 92<269.387 518.611> 514 99<265.349 370.618 375.047 406.453 409.897 517.698>
VStem: 357.8 129.1<123.162 267.345>
DStem2: 151.592 321 234.5 407.5 0.329192 0.944263<108.971 226.4>
LayerCount: 2
Fore
SplineSet
357.8 193.1 m 0
 357.8 248.4 337.5 280 295.7 293 c 0
 266.2 302.2 198 312 161.9 313 c 1
 151.6 321 l 1
 252.3 610 l 1
 305 606 333.9 600 372.4 600 c 0
 428.8 600 464.9 606 535 613 c 1
 553.8 600 l 1
 517.7 514 l 1
 459.5 510 442.1 508 408.3 508 c 0
 368.8 508 302.5 510 273.1 513 c 1
 260.7 481 252.1 459.5 234.5 407.5 c 1
 260.5 403.5 312.6 390.9 340.9 384 c 0
 447.5 358 486.9 281.1 486.9 218.5 c 0
 486.9 132.1 453.4 95.6 400 47 c 0
 355.4 6.4 283.8 -10 222.8 -10 c 0
 177.8 -10 127.5 -2.5 95.5 18 c 0
 77.7 29.4 67.4 47.4 67.4 63.2 c 0
 67.4 90.8 86.7 117.5 121.5 117.5 c 0
 156.3 117.5 179.8 98.7 188.4 79 c 0
 199 54.5 221.7 34 240.5 34 c 0
 267.2 34 291.5 40.9 314 67.2 c 0
 339.5 97 357.8 133.5 357.8 193.1 c 0
EndSplineSet
Substitution2: "LinLibertine-'onum' Minuskelziffern 1" five.taboldstyle
Substitution2: "LinLibertine-'pnum' Proportionalziffern 1" five.fitted
Substitution2: "'sinf' Wissenschaftliche Indices 1" five.inferior
Substitution2: "'sups' Hochgestellte 1" five.superior
AlternateSubs2: "LinLibertine-'aalt' Alle Alternativen zeigen 1" five.oldstyle five.superior five.fitted
EndChar

StartChar: six
Encoding: 54 54 15
Width: 514
Flags: HW
HStem: -10 42<239.592 326.598> 321 50<280.863 420.306> 601.5 34.5<501.356 536.029>
VStem: 89.5 121.7<83.8411 281.403> 381.2 129.4<136.794 296.872>
LayerCount: 2
Fore
SplineSet
237 295 m 1
 221.5 254 211.2 193.1 211.2 137 c 0
 211.2 60 255.5 32 278.5 32 c 0
 297.9 32 329.4 45 348.6 79 c 0
 364.3 106.7 381.2 169.9 381.2 224.6 c 0
 381.2 274.2 357.8 321 313.1 321 c 0
 296.2 321 278.2 318.5 237 295 c 1
541.5 601.5 m 1
 480 578.5 436.9 557 371.2 509 c 0
 318.8 470.7 274.4 408.5 252 336.5 c 1
 289.9 355.5 332.5 368 355.7 371 c 1
 482.4 368.1 510.6 293.1 510.6 239.6 c 0
 510.6 171.8 482.4 102.9 430.5 54.3 c 0
 390.4 16.8 326.7 -10 259 -10 c 0
 180.1 -10 89.5 51.5 89.5 184 c 0
 89.5 314 166.5 439 265.8 513 c 0
 346.3 573 421 610.5 531.5 636 c 1
 538.5 628 541.5 616 541.5 601.5 c 1
EndSplineSet
Substitution2: "LinLibertine-'onum' Minuskelziffern 1" six.taboldstyle
Substitution2: "LinLibertine-'pnum' Proportionalziffern 1" six.fitted
Substitution2: "'sinf' Wissenschaftliche Indices 1" six.inferior
Substitution2: "'sups' Hochgestellte 1" six.superior
AlternateSubs2: "LinLibertine-'aalt' Alle Alternativen zeigen 1" six.oldstyle six.superior six.fitted
EndChar

StartChar: seven
Encoding: 55 55 16
Width: 514
Flags: HW
HStem: -12 21G<118.931 224.025> 498 102<217.436 467.247>
VStem: 149.6 32.3<411.456 443.11>
LayerCount: 2
Fore
SplineSet
261 498 m 2
 230 498 213 482.5 181.9 411 c 1
 170.6 409.1 159.6 409.1 149.6 414 c 1
 159.5 472.5 176.2 559 187.3 607 c 0
 187.9 610 188.9 610 191.7 610 c 0
 207.8 606 207.4 600 239.4 600 c 2
 577.3 600 l 1
 581.1 591 l 1
 402 319 318.5 169 224 -2 c 1
 122 -12 l 1
 118.9 0 l 1
 222.8 143.8 376.1 361.9 467.2 498 c 1
 261 498 l 2
EndSplineSet
Substitution2: "LinLibertine-'onum' Minuskelziffern 1" seven.taboldstyle
Substitution2: "LinLibertine-'pnum' Proportionalziffern 1" seven.fitted
Substitution2: "'sinf' Wissenschaftliche Indices 1" seven.inferior
Substitution2: "'sups' Hochgestellte 1" seven.superior
AlternateSubs2: "LinLibertine-'aalt' Alle Alternativen zeigen 1" seven.oldstyle seven.superior seven.fitted
EndChar

StartChar: nine
Encoding: 57 57 17
Width: 514
VWidth: 487
Flags: HW
HStem: -36 34.5<82.1849 116.858> 229 50<197.908 337.351> 568 42<291.616 378.622>
VStem: 107.6 129.4<303.128 463.206> 407 121.7<318.597 516.159>
LayerCount: 2
Fore
SplineSet
381.2 305 m 1
 396.7 346 407 406.9 407 463 c 0
 407 540 362.7 568 339.7 568 c 0
 320.3 568 288.8 555 269.6 521 c 0
 254 493.3 237 430 237 375.3 c 0
 237 325.7 260.4 279 305.1 279 c 0
 322 279 340 281.5 381.2 305 c 1
76.7 -1.5 m 1
 138.2 21.5 181.4 43 247.1 91 c 0
 299.5 129.3 343.8 191.5 366.2 263.5 c 1
 328.3 244.5 285.7 232 262.5 229 c 1
 135.8 231.9 107.6 306.9 107.6 360.4 c 0
 107.6 428.2 135.8 497.1 187.7 545.7 c 0
 227.8 583.2 291.6 610 359.3 610 c 0
 438.2 610 528.7 548.5 528.7 416 c 0
 528.7 286 451.7 161 352.4 87 c 0
 271.9 27 197.2 -10.5 86.7 -36 c 1
 79.7 -28 76.7 -16 76.7 -1.5 c 1
EndSplineSet
Substitution2: "LinLibertine-'onum' Minuskelziffern 1" nine.taboldstyle
Substitution2: "LinLibertine-'pnum' Proportionalziffern 1" nine.fitted
Substitution2: "'sinf' Wissenschaftliche Indices 1" nine.inferior
Substitution2: "'sups' Hochgestellte 1" nine.superior
AlternateSubs2: "LinLibertine-'aalt' Alle Alternativen zeigen 1" nine.oldstyle nine.superior nine.fitted
EndChar

StartChar: colon
Encoding: 58 58 18
Width: 256
VWidth: 999
Flags: HW
HStem: 0 139<93 196> 295 139<152 255>
VStem: 71 146<21.9591 116.904> 130 146<316.959 411.904>
LayerCount: 2
Fore
SplineSet
71 68 m 0
 71 107 105 139 145 139 c 0
 185 139 217 109 217 70 c 0
 217 32 183 0 143 0 c 0
 103 0 71 30 71 68 c 0
130 363 m 0
 130 402 164 434 204 434 c 0
 244 434 276 404 276 365 c 0
 276 327 242 295 202 295 c 0
 162 295 130 325 130 363 c 0
EndSplineSet
EndChar

StartChar: semicolon
Encoding: 59 59 19
Width: 256
VWidth: 999
Flags: HW
HStem: 4 98<85.1535 136.279> 295 139<82 185>
VStem: 60 146<316.959 411.904> 139 69<-68.3638 45>
LayerCount: 2
Fore
SplineSet
127 362 m 0
 127 401 161 433 201 433 c 0
 241 433 273 403 273 364 c 0
 273 326 239 294 199 294 c 0
 159 294 127 324 127 362 c 0
153.5 127 m 0
 205.3 127 228.8 86 210.8 4 c 0
 203.1 -31 167.5 -79.7 134 -108 c 0
 100.2 -136.5 52.6 -160.7 15.5 -167 c 1
 6.4 -159.5 7.6 -148.8 15.5 -136 c 1
 61.7 -124 126.5 -53.5 132.3 -27 c 0
 137.1 -5 112 2.2 104.7 6 c 0
 82.6 17.6 75.1 48.1 80.6 73.1 c 0
 85.5 95.6 128.3 127 153.5 127 c 0
EndSplineSet
EndChar

StartChar: less
Encoding: 60 60 20
Width: 512
Flags: HMW
DStem2: 42 262 153 240 0.939793 0.341743<96.7987 435.295> 153 240 42 218 0.939793 -0.341743<0 338.496>
LayerCount: 2
Fore
SplineSet
212.2 240 m 1
 486.5 124 l 1
 473.3 62 l 1
 103.2 218 l 1
 112.5 262 l 1
 549 418 l 1
 535.8 356 l 1
 212.2 240 l 1
EndSplineSet
EndChar

StartChar: equal
Encoding: 61 61 21
Width: 551
Flags: HMW
HStem: 142 56<59 493> 266 57<59 493>
LayerCount: 2
Fore
SplineSet
525.6 198 m 1
 513.7 142 l 1
 105.8 142 l 1
 117.7 198 l 1
 525.6 198 l 1
552.2 323 m 1
 540.1 266 l 1
 132.1 266 l 1
 144.3 323 l 1
 552.2 323 l 1
EndSplineSet
Substitution2: "'sinf' Wissenschaftliche Indices 1" equal.inferior
Substitution2: "'sups' Hochgestellte 1" equal.superior
AlternateSubs2: "LinLibertine-'aalt' Alle Alternativen zeigen 1" equal.superior
EndChar

StartChar: greater
Encoding: 62 62 22
Width: 512
Flags: HW
DStem2: 83.2139 122 70.0352 60 0.94228 0.334827<0 342.853> 145.705 416 132.526 354 0.920512 -0.390713<12.0931 309.013>
LayerCount: 2
Fore
SplineSet
405.8 238 m 1
 132.5 354 l 1
 145.7 416 l 1
 515.6 259 l 1
 506.2 215 l 1
 70 60 l 1
 83.2 122 l 1
 405.8 238 l 1
EndSplineSet
EndChar

StartChar: question
Encoding: 63 63 23
Width: 430
Flags: HW
HStem: 622 36<264.382 363.722>
VStem: 193.4 61.1<183.952 281.031>
LayerCount: 2
Fore
SplineSet
237.6 570 m 0
 233.1 549 240.3 543 234.6 516 c 0
 229.3 491 204.2 475 176 475 c 0
 153.4 475 126.7 495 134.8 533 c 0
 142.2 568 165 591 202.9 619 c 0
 236.4 644 282.7 658 340 658 c 0
 447.2 658 500.9 597 481.3 505 c 0
 465.6 431 396.6 385 341.7 348 c 0
 311.1 328 272.5 301 257.2 229 c 2
 254.5 216 l 2
 249.2 191 243 182 216.2 182 c 0
 191.3 182 188.7 194 193.4 216 c 2
 196.5 231 l 2
 205.2 272 217.3 329 297.9 394 c 0
 337.4 425 364.1 462 374.7 512 c 0
 387 570 375.7 622 322.9 622 c 0
 281.5 622 243.6 598 237.6 570 c 0
114.7 58 m 0
 123 97 161.7 129 199.3 129 c 0
 236.9 129 260.6 99 252.3 60 c 0
 244.2 22 205.5 -10 167.9 -10 c 0
 130.3 -10 106.6 20 114.7 58 c 0
EndSplineSet
EndChar

StartChar: at
Encoding: 64 64 24
Width: 988
Flags: HW
HStem: -160 39<407.274 632.859> 24 42<411.003 490.994 622.002 711.275> 381 34<502.903 579.761> 584 37<401.936 597.238>
VStem: 92 94<102.389 345.27> 297 117<85.0796 246.981> 805 85<185.855 389.903>
DStem2: 557 193 653 146 0.227108 0.97387<-90.6812 129.136>
LayerCount: 2
Fore
SplineSet
652.3 320 m 0
 659.7 355 661.5 381 638 381 c 0
 624.8 381 594.8 381 553.8 343 c 0
 501.3 295 470.9 227 457.5 164 c 0
 447.5 117 446.4 72 490.6 72 c 0
 518.8 72 554.4 107 598.1 193 c 0
 614.5 226 647.2 296 652.3 320 c 0
652.1 80 m 0
 649.3 67 655.7 66 666 66 c 0
 700.8 66 817.6 129 848.2 273 c 0
 895.2 494 741.4 584 631.4 584 c 0
 485.7 584 305.9 459 256.8 228 c 0
 225.3 80 268.1 -121 497.5 -121 c 0
 569.9 -121 641.7 -97 710.8 -46 c 1
 724.4 -75 l 1
 653.8 -124 586.9 -160 471.3 -160 c 0
 248.5 -160 118.4 -7 166.9 221 c 0
 210.9 428 409.9 621 647.7 621 c 0
 860.1 621 971.3 476 931.1 287 c 0
 901.3 147 764.3 24 638.3 24 c 0
 608.2 24 577.9 27 568.2 39 c 0
 557.4 52.5 555.3 67 559.3 86 c 1
 519.4 44 469.6 26 447 26 c 0
 403.9 26 377.7 34.7 360.8 54 c 0
 338.9 79 338.5 122 346.2 158 c 0
 373.4 286 534.3 415 642.4 415 c 0
 687.5 415 711.2 398 722.7 377 c 1
 764.5 410 l 1
 787.6 399 l 1
 678.3 146 l 2
 667.1 120 654.4 91 652.1 80 c 0
EndSplineSet
EndChar

StartChar: A
Encoding: 65 65 25
Width: 710
VWidth: 999
Flags: HW
HStem: -2 34<8.51071 75.866 170.986 228.489 409.65 489.234 647.305 704.489> 235 48<299.031 463> 638 20G<536 547.042>
DStem2: 122 102 174 79 0.51548 0.856902<-22.0748 201.519 257.97 511.863> 430 614 295 296 0.51548 0.856902<-590.405 -400.666 -344.24 -83.6416> 544 658 430 520 0.150369 -0.98863<119.289 358.556 407.214 599.42>
AnchorPoint: "unten_punkt" 323 -110 basechar 0
AnchorPoint: "unten_anhang" 581 5 basechar 0
AnchorPoint: "top_akzent" 369 850 basechar 0
LayerCount: 2
Fore
SplineSet
317 283 m 2
 463 283 l 1
 430 520 l 1
 424 520 l 1
 295 296 l 2
 289 286 296 283 317 283 c 2
174 79 m 2
 151 38 195 35 231 32 c 1
 236 26 231 4 224 -2 c 1
 189 -1 136 0 97 0 c 0
 60 0 42 -1 6 -2 c 1
 1 4 6 26 13 32 c 1
 55 35 85 40 122 102 c 2
 430 614 l 1
 464 614 528 649 544 658 c 1
 631 86 l 2
 638 35 670 36 707 32 c 1
 712 26 707 4 700 -2 c 1
 665 -1 611 0 572 0 c 0
 535 0 444 -1 408 -2 c 1
 403 4 407 26 414 32 c 1
 460 35 498 31 493 72 c 2
 471 235 l 1
 289 235 l 2
 266 235 259 231 252 218 c 2
 174 79 l 2
EndSplineSet
Position2: "'cpsp' Versalabstaende 1" dx=2 dy=0 dh=5 dv=0
Substitution2: "'c2sc' Versale nach Kapitaelchen 1" a.sc
EndChar

StartChar: B
Encoding: 66 66 26
Width: 621
Flags: HW
HStem: -2 42<246.424 394.114> -2 34<13.9373 87.8263> 334 42<305 433.735> 605 42<348.798 477.318> 613 34<133.413 195.168>
VStem: 483.3 141<129.595 296.887> 496.1 134.1<445.596 587.083>
DStem2: 94.643 -2 229.72 -2 0.207912 0.978148<99.3881 370.73 413.475 575.419>
LayerCount: 2
Fore
SplineSet
341 562 m 2
 305 376 l 1
 359 376 l 2
 436.6 376 496.1 427.3 496.1 527.9 c 0
 496.1 592 454.4 605 417 605 c 0
 355 605 347 591 341 562 c 2
297 334 m 1
 248 84 l 2
 246.7 77.8 245.8 72.1 245.8 67.2 c 0
 245.8 49.2 257.5 40 303 40 c 0
 441.9 40 483.3 140.3 483.3 228.1 c 0
 483.3 291.8 447.3 334 365 334 c 2
 297 334 l 1
291 645 m 0
 321 645 380 647 428 647 c 0
 592.1 647 630.2 584.7 630.2 523.8 c 0
 630.2 447.9 576.7 389.1 510 361 c 1
 509 359 l 1
 588.8 335.7 624.3 292.5 624.3 228 c 0
 624.3 91.3 531.1 -2 323 -2 c 0
 265 -2 204 0 166 0 c 0
 128 0 18 -2 18 -2 c 1
 14.9 0.3 13.5 5 13.5 10.2 c 0
 13.5 18.6 17.2 28.3 24 32 c 1
 77 35 105 39 121 122 c 2
 199 523 l 2
 202.2 539.4 203.7 552.8 203.7 563.6 c 0
 203.7 607.5 178.7 610.6 137 613 c 1
 134.1 615.2 132.8 619.4 132.8 624.2 c 0
 132.8 632.8 137 643.2 144 647 c 1
 144 647 253 645 291 645 c 0
EndSplineSet
Position2: "'cpsp' Versalabstaende 1" dx=2 dy=0 dh=5 dv=0
Substitution2: "'c2sc' Versale nach Kapitaelchen 1" b.sc
EndChar

StartChar: C
Encoding: 67 67 27
Width: 675
VWidth: 999
Flags: HW
HStem: -10 52<319.277 487.255> 616 42<413.432 587.14>
VStem: 659 43<455.192 539.076>
AnchorPoint: "mittelpunkt" 346 315 basechar 0
AnchorPoint: "unten_punkt" 363 -110 basechar 0
AnchorPoint: "unten_anhang" 356 -7 basechar 0
AnchorPoint: "top_akzent" 340 850 basechar 0
LayerCount: 2
Fore
SplineSet
378 -10 m 0
 285 -10 213 7 161 53 c 0
 95 111 78 221 96 315 c 0
 139 535 321 658 509 658 c 0
 627 658 663 618 711 613 c 1
 709 558 707 510 702 458 c 1
 690 452 670 449 659 453 c 1
 651 539 623 616 491 616 c 0
 377 616 275 489 245 334 c 0
 215 178 277 42 388 42 c 0
 455 42 538 68 621 146 c 1
 632 146 646 134 649 125 c 1
 566 36 471 -10 378 -10 c 0
EndSplineSet
Position2: "'cpsp' Versalabstaende 1" dx=2 dy=0 dh=5 dv=0
Substitution2: "'c2sc' Versale nach Kapitaelchen 1" c.sc
EndChar

StartChar: D
Encoding: 68 68 28
Width: 698
Flags: HW
HStem: -2 42<270.112 414.339> -2 34<25.4126 99.8263> 604 41<370.494 510.659> 613 34<144.413 206.079>
VStem: 584.6 141.3<272.418 497.642>
DStem2: 106.643 -2 241.281 -2 0.207912 0.978148<120.807 574.754>
LayerCount: 2
Fore
SplineSet
267 119 m 2
 264.6 106.9 263.4 96.6 263.4 87.8 c 0
 263.4 48.1 288.1 40 343 40 c 0
 460.6 40 584.6 204.3 584.6 426.3 c 0
 584.6 524.7 549.4 604 420 604 c 0
 385 604 357 584 346 529 c 2
 267 119 l 2
177 0 m 0
 139 0 29 -2 29 -2 c 1
 26.1 0.2 24.8 4.4 24.8 9.2 c 0
 24.8 17.8 29 28.2 36 32 c 1
 89 35 117 39 133 122 c 2
 211 523 l 2
 214.1 539.1 215.6 552.2 215.6 562.9 c 0
 215.6 607.5 189.9 610.6 148 613 c 1
 145.1 615.2 143.8 619.4 143.8 624.2 c 0
 143.8 632.8 148 643.2 155 647 c 1
 155 647 265 645 303 645 c 0
 341 645 381 646 432 646 c 0
 633.8 646 725.9 534.9 725.9 387.1 c 0
 725.9 252.6 660.7 132.3 596 82 c 0
 516 20 416 -2 332 -2 c 0
 294 -2 215 0 177 0 c 0
EndSplineSet
Position2: "'cpsp' Versalabstaende 1" dx=2 dy=0 dh=5 dv=0
Substitution2: "'c2sc' Versale nach Kapitaelchen 1" d.sc
EndChar

StartChar: E
Encoding: 69 69 29
Width: 578
VWidth: 999
Flags: HW
HStem: 0 42<246.758 443.249> 0 32<11.5107 86> 317 50<299 437.63> 603 42<348.077 529.294> 613 34<131.418 193.52>
VStem: 442 41<252.086 308.175> 476 41<386.398 431.914> 558 42<498.51 571.52>
DStem2: 90.643 -2 225.445 -2 0.207912 0.978148<84.0828 353.27 404.256 603.994>
AnchorPoint: "unten_anhang" 334 4 basechar 0
AnchorPoint: "unten_punkt" 334 -110 basechar 0
AnchorPoint: "top_akzent" 328 850 basechar 0
LayerCount: 2
Fore
SplineSet
377 367 m 2
 441 367 462 374 476 429 c 1
 483 435 512 435 517 429 c 1
 510 399 506 377 499 343 c 0
 492 309 489 290 483 255 c 1
 476 249 447 249 442 255 c 1
 448 300 433 317 367 317 c 2
 289 317 l 1
 245 90 l 2
 240 63 254 42 275 42 c 2
 372 42 l 2
 445 42 499 98 532 170 c 1
 545 173 565 171 574 165 c 1
 556 114 539 48 516 -2 c 1
 516 -2 430 0 384 0 c 2
 158 0 l 1
 158 0 56 -1 9 -2 c 1
 4 4 9 26 16 32 c 1
 84 35 101 39 117 122 c 2
 194 522 l 2
 210 605 196 610 129 613 c 1
 124 619 128 641 135 647 c 1
 183 646 283 645 283 645 c 1
 566 645 l 2
 589 645 597 646 614 649 c 0
 617 649 617 648 617 646 c 0
 617 638 603 542 600 501 c 1
 590 496 570 494 558 496 c 1
 550 565 538 603 466 603 c 2
 384 603 l 2
 361 603 340 578 335 554 c 2
 299 367 l 1
 377 367 l 2
EndSplineSet
Position2: "'cpsp' Versalabstaende 1" dx=2 dy=0 dh=5 dv=0
Substitution2: "'c2sc' Versale nach Kapitaelchen 1" e.sc
EndChar

StartChar: F
Encoding: 70 70 30
Width: 518
Flags: HW
HStem: -2 34<13.4836 83.8263 260.259 322.516> 297 50<295 433.63> 603 42<348.077 531.798> 613 34<131.418 193.52>
VStem: 438 41<232.086 288.175> 472 41<366.398 411.914> 562 42<493.51 568.439>
DStem2: 90.643 -2 224.643 -2 0.207912 0.978148<86.5978 332.875 383.862 603.994>
AnchorPoint: "top_akzent" 328 850 basechar 0
AnchorPoint: "unten_punkt" 334 -110 basechar 0
LayerCount: 2
Fore
SplineSet
251 122 m 2
 235 39 271 35 323 32 c 1
 331 26 327 4 316 -2 c 1
 278 -1 199 0 161 0 c 0
 123 0 52 -1 13 -2 c 1
 5 4 9 26 20 32 c 1
 73 35 101 39 117 122 c 2
 194 522 l 2
 210 605 196 610 129 613 c 1
 124 619 128 641 135 647 c 1
 183 646 283 645 283 645 c 1
 571 645 l 2
 594 645 602 646 619 649 c 0
 622 649 622 648 622 646 c 0
 622 638 607 537 604 496 c 1
 594 491 574 489 562 491 c 1
 554 560 542 603 470 603 c 2
 384 603 l 2
 361 603 340 578 335 554 c 2
 295 347 l 1
 373 347 l 2
 437 347 458 354 472 409 c 1
 479 415 508 415 513 409 c 1
 506 379 502 357 495 323 c 0
 488 289 485 270 479 235 c 1
 472 229 443 229 438 235 c 1
 444 280 429 297 363 297 c 2
 285 297 l 1
 251 122 l 2
EndSplineSet
Position2: "'cpsp' Versalabstaende 1" dx=2 dy=0 dh=5 dv=0
Substitution2: "'c2sc' Versale nach Kapitaelchen 1" f.sc
EndChar

StartChar: G
Encoding: 71 71 31
Width: 723
VWidth: 999
Flags: HW
HStem: -10 42<324.769 500.788> 271 37<494.511 557.795 712.779 758.489> 616 42<410.457 600.82>
VStem: 695 44<459 527.253>
AnchorPoint: "mittelpunkt" 338 335 basechar 0
AnchorPoint: "unten_anhang" 397 2 basechar 0
AnchorPoint: "unten_punkt" 397 -110 basechar 0
AnchorPoint: "top_akzent" 395 850 basechar 0
LayerCount: 2
Fore
SplineSet
518 658 m 0
 635 658 691 623 749 623 c 1
 742 551 739 501 739 459 c 1
 695 453 l 1
 687 539 635 616 496 616 c 0
 449 616 387 595 337 542 c 0
 289 491 256 413 239 327 c 0
 213 195 243 32 414 32 c 0
 466 32 493 42 532 74 c 1
 561 223 l 2
 569 263 544 267 492 271 c 1
 487 277 492 302 499 308 c 1
 544 307 609 306 646 306 c 0
 684 306 732 307 761 308 c 1
 766 302 761 277 754 271 c 1
 726 268 707 258 700 223 c 2
 678 106 l 2
 676 95 678 87 687 78 c 1
 612 24 496 -10 383 -10 c 0
 290 -10 202 12 149 66 c 0
 91 124 72 217 90 307 c 0
 111 415 175 505 255 565 c 0
 337 627 434 658 518 658 c 0
EndSplineSet
Position2: "'cpsp' Versalabstaende 1" dx=2 dy=0 dh=5 dv=0
Substitution2: "'c2sc' Versale nach Kapitaelchen 1" g.sc
EndChar

StartChar: grave
Encoding: 96 96 32
Width: 392
VWidth: 999
Flags: HMW
LayerCount: 2
Fore
SplineSet
301 698 m 1
 349 573 l 2
 351 567 352 562 352 558 c 0
 352 555 352 552 351 549 c 0
 350 544 342 538 335 538 c 0
 328 538 322 543 309 558 c 2
 214 667 l 1
 218 677 l 1
 229 683 251 701 287 701 c 0
 292 701 298 700 301 698 c 1
EndSplineSet
Substitution2: "'case' Versalformen 1" uni0358
EndChar

StartChar: ograve
Encoding: 242 242 33
Width: 479
VWidth: 999
Flags: HW
HStem: -10 42<240.884 341.151> 402 42<214.256 315.486>
VStem: 35 140<118.075 311.105> 382 140<116.913 317.204>
LayerCount: 2
Fore
SplineSet
196 170 m 0
 196 58.1 226 32 255 32 c 0
 359.2 32 371 177.4 371 260 c 0
 371 318.1 368 397 315 397 c 0
 213.9 397 196 270 196 170 c 0
67 162 m 0
 67 248.8 122.7 352.9 216.5 405 c 0
 252.4 425 293.8 439 340 439 c 0
 463 439 500 353 500 281 c 0
 500 145.9 427.6 57.9 340.5 14 c 0
 311.1 -0.8 260.5 -10 220 -10 c 0
 93 -10 67 98 67 162 c 0
375.5 674 m 1
 427.1 550 l 2
 430.1 543 433.5 532 432.4 524 c 0
 431.1 515 422.2 508 413.2 508 c 0
 405.2 508 395.9 513 381 528 c 2
 274.8 633 l 1
 278.3 644 l 1
 287.6 653 319.8 676 355.8 676 c 0
 360.8 676 371.6 675 375.5 674 c 1
EndSplineSet
Substitution2: "'smcp' Gemeine nach Kapitaelchen 1" ograve.sc
AlternateSubs2: "LinLibertine-'aalt' Alle Alternativen zeigen 1" ograve.sc
EndChar

StartChar: oacute
Encoding: 243 243 34
Width: 479
VWidth: 999
Flags: HW
HStem: -10 42<240.884 341.151> 402 42<214.256 315.486>
VStem: 35 140<118.075 311.105> 382 140<116.913 317.204>
LayerCount: 2
Fore
SplineSet
196 170 m 0
 196 58.1 226 32 255 32 c 0
 359.2 32 371 177.4 371 260 c 0
 371 318.1 368 397 315 397 c 0
 213.9 397 196 270 196 170 c 0
67 162 m 0
 67 248.8 122.7 352.9 216.5 405 c 0
 252.4 425 293.8 439 340 439 c 0
 463 439 500 353 500 281 c 0
 500 145.9 427.6 57.9 340.5 14 c 0
 311.1 -0.8 260.5 -10 220 -10 c 0
 93 -10 67 98 67 162 c 0
363.7 674 m 1
 366.8 675 375 676 380 676 c 0
 410 676 427 662 433.6 652 c 1
 440.4 629 l 1
 305.2 521 l 2
 289.5 509 275 505 265 505 c 0
 257 505 250.2 513 251 519 c 0
 251.8 525 255 534 262.3 543 c 2
 363.7 674 l 1
EndSplineSet
Substitution2: "'smcp' Gemeine nach Kapitaelchen 1" oacute.sc
AlternateSubs2: "LinLibertine-'aalt' Alle Alternativen zeigen 1" oacute.sc
EndChar

StartChar: ocircumflex
Encoding: 244 244 35
Width: 479
VWidth: 999
Flags: HW
HStem: -10 42<224.256 313.034> 397 42<261.998 354.97>
VStem: 68 129<76.6651 261.445> 372 129<157.58 362.762>
LayerCount: 2
Fore
SplineSet
379.8 663 m 1
 402.9 614 434.7 570 465.9 529 c 1
 438.2 510 l 1
 398.9 536 372.7 556 342.9 593 c 1
 299.4 554 268.9 536 225.2 510 c 1
 202.9 529 l 1
 244.7 570 291.1 615 327.8 663 c 1
 379.8 663 l 1
196 170 m 0
 196 58.1 226 32 255 32 c 0
 359.2 32 371 177.4 371 260 c 0
 371 318.1 368 397 315 397 c 0
 213.9 397 196 270 196 170 c 0
67 162 m 0
 67 248.8 122.7 352.9 216.5 405 c 0
 252.4 425 293.8 439 340 439 c 0
 463 439 500 353 500 281 c 0
 500 145.9 427.6 57.9 340.5 14 c 0
 311.1 -0.8 260.5 -10 220 -10 c 0
 93 -10 67 98 67 162 c 0
EndSplineSet
Substitution2: "'smcp' Gemeine nach Kapitaelchen 1" ocircumflex.sc
AlternateSubs2: "LinLibertine-'aalt' Alle Alternativen zeigen 1" ocircumflex.sc
EndChar

StartChar: otilde
Encoding: 245 245 36
Width: 479
VWidth: 999
Flags: HW
HStem: -10 42<240.884 341.151> 402 42<214.256 315.486> 519 70<259.399 360.905> 557 71<152.858 252.467>
VStem: 35 140<118.075 311.105> 113 26<521.865 543.979> 374 28<609.298 625.118> 382 140<116.913 317.204>
LayerCount: 2
Fore
SplineSet
403 589 m 0
 417 589 439 596 458.1 632 c 1
 472.1 632 485 624 483.3 612 c 1
 458.1 554 416.2 519 379.2 519 c 0
 356.2 519 335.1 525 317.2 540 c 1
 299 553 279.5 557 261.5 557 c 0
 239.5 557 223.2 555 206.9 517 c 1
 194.9 517 181.4 521 183.4 535 c 1
 206.6 586 244.5 628 279.5 628 c 0
 310.5 628 332.2 619 350 603 c 0
 366 589 392 589 403 589 c 0
196 170 m 0
 196 58.1 226 32 255 32 c 0
 359.2 32 371 177.4 371 260 c 0
 371 318.1 368 397 315 397 c 0
 213.9 397 196 270 196 170 c 0
67 162 m 0
 67 248.8 122.7 352.9 216.5 405 c 0
 252.4 425 293.8 439 340 439 c 0
 463 439 500 353 500 281 c 0
 500 145.9 427.6 57.9 340.5 14 c 0
 311.1 -0.8 260.5 -10 220 -10 c 0
 93 -10 67 98 67 162 c 0
EndSplineSet
Substitution2: "'smcp' Gemeine nach Kapitaelchen 1" otilde.sc
AlternateSubs2: "LinLibertine-'aalt' Alle Alternativen zeigen 1" otilde.sc
EndChar

StartChar: odieresis
Encoding: 246 246 37
Width: 479
VWidth: 999
Flags: HW
HStem: -10 42<240.884 341.151> 402 42<214.256 315.486> 519 109<133.037 221.257 312.743 400.963>
VStem: 35 140<118.075 311.105> 122 110<530.463 616.462> 302 110<530.463 616.462> 382 140<116.913 317.204>
LayerCount: 2
Fore
SplineSet
196 170 m 0
 196 58.1 226 32 255 32 c 0
 359.2 32 371 177.4 371 260 c 0
 371 318.1 368 397 315 397 c 0
 213.9 397 196 270 196 170 c 0
67 162 m 0
 67 248.8 122.7 352.9 216.5 405 c 0
 252.4 425 293.8 439 340 439 c 0
 463 439 500 353 500 281 c 0
 500 145.9 427.6 57.9 340.5 14 c 0
 311.1 -0.8 260.5 -10 220 -10 c 0
 93 -10 67 98 67 162 c 0
391.7 573 m 0
 393.9 604 418.2 628 447.3 628 c 0
 475.5 628 497.3 604 495.1 573 c 0
 492.9 543 467.7 519 439.5 519 c 0
 410.4 519 389.5 543 391.7 573 c 0
216.8 573 m 0
 219 604 244.3 628 272.5 628 c 0
 301.6 628 322.4 604 320.2 573 c 0
 318 543 293.8 519 264.7 519 c 0
 236.5 519 214.6 543 216.8 573 c 0
EndSplineSet
Substitution2: "'smcp' Gemeine nach Kapitaelchen 1" odieresis.sc
AlternateSubs2: "LinLibertine-'aalt' Alle Alternativen zeigen 1" odieresis.sc
EndChar

StartChar: divide
Encoding: 247 247 38
Width: 527
VWidth: 999
Flags: HW
HStem: 34 98<246.541 315.149> 219 49<128 512> 359 99<318.541 387.149>
VStem: 230 101<50.3086 115.691> 302 101<375.618 441.777>
LayerCount: 2
Fore
SplineSet
230 72 m 0
 230 102 259 132 292 132 c 0
 315 132 331 116 331 94 c 0
 331 60 298 34 269 34 c 0
 246 34 230 50 230 72 c 0
302 397 m 0
 302 428 331 458 364 458 c 0
 387 458 403 441 403 419 c 0
 403 386 370 359 341 359 c 0
 317 359 302 375 302 397 c 0
523 268 m 1
 512 219 l 1
 116 219 l 1
 128 268 l 1
 523 268 l 1
EndSplineSet
EndChar

StartChar: ugrave
Encoding: 249 249 39
Width: 646
VWidth: 999
Flags: HW
HStem: -10 73<461 562.218> -6 82<213.148 310.132> 370 73<180.351 286.648>
VStem: 422.7 121.5<42.21 148.173>
DStem2: 121.843 -10 243.93 -10 0.207912 0.978148<125.723 385.101> 406.198 -10 522.517 -10 0.207912 0.978148<192.693 459.523>
LayerCount: 2
Fore
SplineSet
431 106.7 m 2
 431 106.7 424.6 79.7 433.6 122 c 1
 431.7 124 l 1
 339.7 16 284.6 -6 232.6 -6 c 0
 193.6 -6 143.6 16 143.6 76 c 0
 143.6 94 143.3 115.1 151.6 150 c 2
 189.6 309 l 2
 195.9 334.6 202.9 370 185.6 370 c 0
 175.6 370 141.6 353 115.6 323 c 1
 101.6 323 89.6 342 86.6 351 c 1
 132.6 410 202.1 443 271.6 443 c 0
 301.6 443 313.1 430.5 320.6 410 c 0
 327.1 392.2 321.4 349.8 313.6 318 c 2
 276.6 158 l 2
 267 116.7 271.3 76 307.6 76 c 0
 343.6 76 379.6 123 442.6 205 c 1
 480.8 361 l 2
 490.3 399.8 488.6 443 549.6 443 c 0
 605.6 443 615.5 432.5 615.5 415.8 c 0
 615.5 406 607.1 380.9 602.8 361 c 2
 551 124 l 2
 548 110.3 544.2 93.8 544.2 81.4 c 0
 544.2 70.6 547 63 555 63 c 0
 565 63 599 80 625 110 c 1
 639 110 651 91 654 82 c 1
 608 23 545.5 -10 476 -10 c 0
 446 -10 433.5 2.5 426 23 c 0
 423.7 29.3 422.7 37.5 422.7 46.9 c 0
 422.7 64.4 427.4 85.7 431 106.7 c 2
400.5 674 m 1
 452.1 550 l 2
 455.1 543 458.5 532 457.4 524 c 0
 456.1 515 447.2 508 438.2 508 c 0
 430.2 508 420.9 513 406 528 c 2
 299.8 633 l 1
 303.3 644 l 1
 312.6 653 344.8 676 380.8 676 c 0
 385.8 676 396.6 675 400.5 674 c 1
EndSplineSet
Substitution2: "'smcp' Gemeine nach Kapitaelchen 1" ugrave.sc
AlternateSubs2: "LinLibertine-'aalt' Alle Alternativen zeigen 1" ugrave.sc
EndChar

StartChar: uacute
Encoding: 250 250 40
Width: 646
VWidth: 999
Flags: HW
HStem: -10 73<461 562.218> -6 82<213.148 310.132> 370 73<180.351 286.648>
VStem: 422.7 121.5<42.21 148.173>
DStem2: 121.843 -10 243.93 -10 0.207912 0.978148<125.723 385.101> 406.198 -10 522.517 -10 0.207912 0.978148<192.693 459.523>
LayerCount: 2
Fore
SplineSet
431 106.7 m 2
 431 106.7 424.6 79.7 433.6 122 c 1
 431.7 124 l 1
 339.7 16 284.6 -6 232.6 -6 c 0
 193.6 -6 143.6 16 143.6 76 c 0
 143.6 94 143.3 115.1 151.6 150 c 2
 189.6 309 l 2
 195.9 334.6 202.9 370 185.6 370 c 0
 175.6 370 141.6 353 115.6 323 c 1
 101.6 323 89.6 342 86.6 351 c 1
 132.6 410 202.1 443 271.6 443 c 0
 301.6 443 313.1 430.5 320.6 410 c 0
 327.1 392.2 321.4 349.8 313.6 318 c 2
 276.6 158 l 2
 267 116.7 271.3 76 307.6 76 c 0
 343.6 76 379.6 123 442.6 205 c 1
 480.8 361 l 2
 490.3 399.8 488.6 443 549.6 443 c 0
 605.6 443 615.5 432.5 615.5 415.8 c 0
 615.5 406 607.1 380.9 602.8 361 c 2
 551 124 l 2
 548 110.3 544.2 93.8 544.2 81.4 c 0
 544.2 70.6 547 63 555 63 c 0
 565 63 599 80 625 110 c 1
 639 110 651 91 654 82 c 1
 608 23 545.5 -10 476 -10 c 0
 446 -10 433.5 2.5 426 23 c 0
 423.7 29.3 422.7 37.5 422.7 46.9 c 0
 422.7 64.4 427.4 85.7 431 106.7 c 2
470.7 674 m 1
 473.8 675 482 676 487 676 c 0
 517 676 534 662 540.6 652 c 1
 547.4 629 l 1
 412.2 521 l 2
 396.5 509 382 505 372 505 c 0
 364 505 357.2 513 358 519 c 0
 358.8 525 362 534 369.3 543 c 2
 470.7 674 l 1
EndSplineSet
Substitution2: "'smcp' Gemeine nach Kapitaelchen 1" uacute.sc
AlternateSubs2: "LinLibertine-'aalt' Alle Alternativen zeigen 1" uacute.sc
EndChar

StartChar: ucircumflex
Encoding: 251 251 41
Width: 646
VWidth: 999
Flags: HW
HStem: -10 73<461 562.218> -6 82<213.148 310.132> 370 73<180.351 286.648>
VStem: 422.7 121.5<42.21 148.173>
DStem2: 121.843 -10 243.93 -10 0.207912 0.978148<125.723 385.101> 406.198 -10 522.517 -10 0.207912 0.978148<192.693 459.523>
LayerCount: 2
Fore
SplineSet
469.8 663 m 1
 492.9 614 524.7 570 555.9 529 c 1
 528.2 510 l 1
 488.9 536 462.7 556 432.9 593 c 1
 389.4 554 358.9 536 315.2 510 c 1
 292.9 529 l 1
 334.7 570 381.1 615 417.8 663 c 1
 469.8 663 l 1
431 106.7 m 2
 431 106.7 424.6 79.7 433.6 122 c 1
 431.7 124 l 1
 339.7 16 284.6 -6 232.6 -6 c 0
 193.6 -6 143.6 16 143.6 76 c 0
 143.6 94 143.3 115.1 151.6 150 c 2
 189.6 309 l 2
 195.9 334.6 202.9 370 185.6 370 c 0
 175.6 370 141.6 353 115.6 323 c 1
 101.6 323 89.6 342 86.6 351 c 1
 132.6 410 202.1 443 271.6 443 c 0
 301.6 443 313.1 430.5 320.6 410 c 0
 327.1 392.2 321.4 349.8 313.6 318 c 2
 276.6 158 l 2
 267 116.7 271.3 76 307.6 76 c 0
 343.6 76 379.6 123 442.6 205 c 1
 480.8 361 l 2
 490.3 399.8 488.6 443 549.6 443 c 0
 605.6 443 615.5 432.5 615.5 415.8 c 0
 615.5 406 607.1 380.9 602.8 361 c 2
 551 124 l 2
 548 110.3 544.2 93.8 544.2 81.4 c 0
 544.2 70.6 547 63 555 63 c 0
 565 63 599 80 625 110 c 1
 639 110 651 91 654 82 c 1
 608 23 545.5 -10 476 -10 c 0
 446 -10 433.5 2.5 426 23 c 0
 423.7 29.3 422.7 37.5 422.7 46.9 c 0
 422.7 64.4 427.4 85.7 431 106.7 c 2
EndSplineSet
Substitution2: "'smcp' Gemeine nach Kapitaelchen 1" ucircumflex.sc
AlternateSubs2: "LinLibertine-'aalt' Alle Alternativen zeigen 1" ucircumflex.sc
EndChar

StartChar: ebreve
Encoding: 277 277 42
Width: 409
VWidth: 999
Flags: HW
HStem: -10 60<146 300.921> 398 41<260.895 338.914> 514 74<258.021 401.577>
VStem: 60 129<65.8545 229.761> 191 33<621.43 659.121> 340 113<302.909 396.682> 439 32<624.913 659.188>
LayerCount: 2
Fore
SplineSet
234.8 667 m 1
 229.2 613 268.6 588 331.6 588 c 0
 378.6 588 437.8 603 449.8 667 c 1
 480.3 657 l 1
 455.5 552 372.2 514 321.2 514 c 0
 240.2 514 195.9 576 200.3 657 c 1
 234.8 667 l 1
343 370 m 0
 343 390 332 398 311 398 c 0
 272 398 234.3 378 200 237.3 c 1
 253 246 343 280 343 370 c 0
193 199 m 1
 192 191 192 170 192 165 c 0
 192 98 206 50 245 50 c 0
 293 50 324 66 381 124 c 1
 393 124 408 110 413 99 c 1
 354 23 276 -10 209 -10 c 0
 89 -10 63 57 63 142 c 0
 63 269 140 439 334 439 c 0
 415 439 456 404 456 369 c 0
 456 351.2 455.5 317.2 425 288 c 0
 390.6 255 319.2 226.1 193 199 c 1
EndSplineSet
EndChar

StartChar: Edotaccent
Encoding: 278 278 43
Width: 578
VWidth: 999
Flags: HW
HStem: 0 32<11.5107 86> 0 42<246.758 443.249> 317 50<299 437.63> 603 42<348.077 529.294> 613 34<131.418 193.52> 617.7 120.3<353.415 449.512>
VStem: 339.1 126.9<634.536 722.931> 442 41<252.086 308.175> 476 41<386.398 431.914> 558 42<498.51 571.52>
DStem2: 90.643 -2 225.445 -2 0.207912 0.978148<84.0828 353.27 404.256 603.994>
LayerCount: 2
Fore
SplineSet
365 771 m 0
 365 805 393 833 427 833 c 0
 461 833 489 805 489 771 c 0
 489 737 461 709 427 709 c 0
 393 709 365 737 365 771 c 0
377 367 m 2
 441 367 462 374 476 429 c 1
 483 435 512 435 517 429 c 1
 510 399 506 377 499 343 c 0
 492 309 489 290 483 255 c 1
 476 249 447 249 442 255 c 1
 448 300 433 317 367 317 c 2
 289 317 l 1
 245 90 l 2
 240 63 254 42 275 42 c 2
 372 42 l 2
 445 42 499 98 532 170 c 1
 545 173 565 171 574 165 c 1
 556 114 539 48 516 -2 c 1
 516 -2 430 0 384 0 c 2
 158 0 l 1
 158 0 56 -1 9 -2 c 1
 4 4 9 26 16 32 c 1
 84 35 101 39 117 122 c 2
 194 522 l 2
 210 605 196 610 129 613 c 1
 124 619 128 641 135 647 c 1
 183 646 283 645 283 645 c 1
 566 645 l 2
 589 645 597 646 614 649 c 0
 617 649 617 648 617 646 c 0
 617 638 603 542 600 501 c 1
 590 496 570 494 558 496 c 1
 550 565 538 603 466 603 c 2
 384 603 l 2
 361 603 340 578 335 554 c 2
 299 367 l 1
 377 367 l 2
EndSplineSet
Position2: "'cpsp' Versalabstaende 1" dx=2 dy=0 dh=5 dv=0
EndChar

StartChar: edotaccent
Encoding: 279 279 44
Width: 409
VWidth: 999
Flags: HW
HStem: -10 60<146 300.921> 398 41<260.895 338.914> 530 128<292.302 392.126>
VStem: 60 129<65.8545 229.761> 276 135<548.993 640.845> 340 113<302.909 396.682>
LayerCount: 2
Fore
SplineSet
276 596 m 0
 276 626 299 658 346 658 c 0
 388 658 411 622 411 592 c 0
 411 566 385 530 340 530 c 0
 300 530 276 563 276 596 c 0
343 370 m 0
 343 390 332 398 311 398 c 0
 272 398 234.3 378 200 237.3 c 1
 253 246 343 280 343 370 c 0
193 199 m 1
 192 191 192 170 192 165 c 0
 192 98 206 50 245 50 c 0
 293 50 324 66 381 124 c 1
 393 124 408 110 413 99 c 1
 354 23 276 -10 209 -10 c 0
 89 -10 63 57 63 142 c 0
 63 269 140 439 334 439 c 0
 415 439 456 404 456 369 c 0
 456 351.2 455.5 317.2 425 288 c 0
 390.6 255 319.2 226.1 193 199 c 1
EndSplineSet
EndChar

StartChar: Eogonek
Encoding: 280 280 45
Width: 578
VWidth: 999
Flags: HW
HStem: -224 39<385.181 468.941> 0 25<454.256 490.88> 0 32<11.5107 86> 0 42<246.758 443.249> 317 50<299 437.63> 603 42<348.077 529.294> 613 34<131.418 193.52>
VStem: 311 60<-173.091 -74.5789> 442 41<252.086 308.175> 476 41<386.398 431.914> 558 42<498.51 571.52>
DStem2: 90.643 -2 225.445 -2 0.207912 0.978148<84.0828 353.27 404.256 603.994>
LayerCount: 2
Fore
SplineSet
513 -179 m 1
 487 -215 443 -234 404 -234 c 0
 384.7 -234 368.4 -227.4 354 -218 c 0
 331.1 -203 315 -177.9 315 -138 c 0
 315 -88.6 364.3 -30.3 417.5 -0.2 c 1
 405.4 -0.1 393.8 0 384 0 c 2
 158 0 l 1
 158 0 56 -1 9 -2 c 1
 4 4 9 26 16 32 c 1
 84 35 101 39 117 122 c 2
 194 522 l 2
 210 605 196 610 129 613 c 1
 124 619 128 641 135 647 c 1
 183 646 283 645 283 645 c 1
 566 645 l 2
 589 645 597 646 614 649 c 0
 617 649 617 648 617 646 c 0
 617 638 603 542 600 501 c 1
 590 496 570 494 558 496 c 1
 550 565 538 603 466 603 c 2
 384 603 l 2
 361 603 340 578 335 554 c 2
 299 367 l 1
 377 367 l 2
 441 367 462 374 476 429 c 1
 483 435 512 435 517 429 c 1
 510 399 506 377 499 343 c 0
 492 309 489 290 483 255 c 1
 476 249 447 249 442 255 c 1
 448 300 433 317 367 317 c 2
 289 317 l 1
 245 90 l 2
 240 63 254 42 275 42 c 2
 372 42 l 2
 445 42 499 98 532 170 c 1
 545 173 565 171 574 165 c 1
 556 114 539 48 516 -2 c 1
 516 -2 508.4 -1.8 496.5 -1.6 c 1
 447.7 -8.2 407 -69.2 407 -132 c 0
 407 -164 424.5 -174 442 -174 c 0
 459 -174 483 -171 498 -156 c 1
 513 -179 l 1
EndSplineSet
Position2: "'cpsp' Versalabstaende 1" dx=2 dy=0 dh=5 dv=0
Substitution2: "'c2sc' Versale nach Kapitaelchen 1" eogonek.sc
EndChar

StartChar: eogonek
Encoding: 281 281 46
Width: 409
VWidth: 999
Flags: HW
HStem: -216 60<222.5 320.812> -10 60<149 303.921> 398 41<263.895 341.914>
VStem: 63 129<65.8545 229.761> 158.5 92<-152.727 -68.8436> 343 113<302.909 396.682>
LayerCount: 2
Fore
SplineSet
356.5 -161 m 1
 330.5 -197 286.5 -216 247.5 -216 c 0
 197.5 -216 158.5 -185 158.5 -130 c 0
 158.5 -86.3 192.5 -44.1 232.8 -8.6 c 1
 224.8 -9.5 216.8 -10 209 -10 c 0
 89 -10 63 57 63 142 c 0
 63 269 140 439 334 439 c 0
 415 439 456 404 456 369 c 0
 456 351.2 455.5 317.2 425 288 c 0
 390.6 255 319.2 226.1 193 199 c 1
 192 191 192 170 192 165 c 0
 192 98 206 50 245 50 c 0
 293 50 324 66 381 124 c 1
 393 124 408 110 413 99 c 1
 385.2 63.2 353.2 37 320.2 19.2 c 1
 278.2 -20.6 250.5 -61.5 250.5 -124 c 0
 250.5 -145 268 -156 285.5 -156 c 0
 302.5 -156 326.5 -153 341.5 -138 c 1
 356.5 -161 l 1
343 370 m 0
 343 390 332 398 311 398 c 0
 272 398 234.3 378 200 237.3 c 1
 253 246 343 280 343 370 c 0
EndSplineSet
Substitution2: "'smcp' Gemeine nach Kapitaelchen 1" eogonek.sc
AlternateSubs2: "LinLibertine-'aalt' Alle Alternativen zeigen 1" eogonek.sc
EndChar

StartChar: Ecaron
Encoding: 282 282 47
Width: 578
VWidth: 999
Flags: HW
HStem: 0 32<11.5107 86> 0 42<246.758 443.249> 317 50<299 437.63> 603 42<348.077 529.294> 613 34<131.418 193.52> 697 115
VStem: 310 244 442 41<252.086 308.175> 476 41<386.398 431.914> 558 42<498.51 571.52>
DStem2: 90.643 -2 225.445 -2 0.207912 0.978148<84.0828 353.27 404.256 603.994>
LayerCount: 2
Fore
SplineSet
377 367 m 2
 441 367 462 374 476 429 c 1
 483 435 512 435 517 429 c 1
 510 399 506 377 499 343 c 0
 492 309 489 290 483 255 c 1
 476 249 447 249 442 255 c 1
 448 300 433 317 367 317 c 2
 289 317 l 1
 245 90 l 2
 240 63 254 42 275 42 c 2
 372 42 l 2
 445 42 499 98 532 170 c 1
 545 173 565 171 574 165 c 1
 556 114 539 48 516 -2 c 1
 516 -2 430 0 384 0 c 2
 158 0 l 1
 158 0 56 -1 9 -2 c 1
 4 4 9 26 16 32 c 1
 84 35 101 39 117 122 c 2
 194 522 l 2
 210 605 196 610 129 613 c 1
 124 619 128 641 135 647 c 1
 183 646 283 645 283 645 c 1
 566 645 l 2
 589 645 597 646 614 649 c 0
 617 649 617 648 617 646 c 0
 617 638 603 542 600 501 c 1
 590 496 570 494 558 496 c 1
 550 565 538 603 466 603 c 2
 384 603 l 2
 361 603 340 578 335 554 c 2
 299 367 l 1
 377 367 l 2
289.9 808 m 1
 291.3 818 300 830 309.6 834 c 1
 346.9 822 401.7 799 425.7 778 c 1
 458.8 800 518.1 823 556.6 834 c 1
 565 830 568.2 817 566.8 807 c 1
 521 780 465 738 425.1 703 c 1
 410.4 698 l 1
 378.6 735 326.2 782 289.9 808 c 1
EndSplineSet
Position2: "'cpsp' Versalabstaende 1" dx=2 dy=0 dh=5 dv=0
Substitution2: "'c2sc' Versale nach Kapitaelchen 1" ecaron.sc
EndChar

StartChar: ecaron
Encoding: 283 283 48
Width: 409
VWidth: 999
Flags: HW
HStem: -10 60<146 300.921> 398 41<260.895 338.914>
VStem: 60 129<65.8545 229.761> 340 113<302.909 396.682>
LayerCount: 2
Fore
SplineSet
352.7 529 m 1
 302.7 529 l 1
 280.2 575 248.2 618 218.8 658 c 1
 245.3 676 l 1
 280.5 649 303.8 630 335.5 592 c 1
 374.6 628 407.5 649 450.3 676 c 1
 471.8 658 l 1
 430.2 618 388.3 576 352.7 529 c 1
343 370 m 0
 343 390 332 398 311 398 c 0
 272 398 234.3 378 200 237.3 c 1
 253 246 343 280 343 370 c 0
193 199 m 1
 192 191 192 170 192 165 c 0
 192 98 206 50 245 50 c 0
 293 50 324 66 381 124 c 1
 393 124 408 110 413 99 c 1
 354 23 276 -10 209 -10 c 0
 89 -10 63 57 63 142 c 0
 63 269 140 439 334 439 c 0
 415 439 456 404 456 369 c 0
 456 351.2 455.5 317.2 425 288 c 0
 390.6 255 319.2 226.1 193 199 c 1
EndSplineSet
Substitution2: "'smcp' Gemeine nach Kapitaelchen 1" ecaron.sc
AlternateSubs2: "LinLibertine-'aalt' Alle Alternativen zeigen 1" ecaron.sc
EndChar

StartChar: Gcircumflex
Encoding: 284 284 49
Width: 723
VWidth: 999
Flags: HW
HStem: -10 42<324.769 500.788> 271 37<494.511 557.795 712.779 758.489> 616 42<410.457 600.82> 690 115
VStem: 369 243 695 44<459 527.253>
LayerCount: 2
Fore
SplineSet
518 658 m 0
 635 658 691 623 749 623 c 1
 742 551 739 501 739 459 c 1
 695 453 l 1
 687 539 635 616 496 616 c 0
 449 616 387 595 337 542 c 0
 289 491 256 413 239 327 c 0
 213 195 243 32 414 32 c 0
 466 32 493 42 532 74 c 1
 561 223 l 2
 569 263 544 267 492 271 c 1
 487 277 492 302 499 308 c 1
 544 307 609 306 646 306 c 0
 684 306 732 307 761 308 c 1
 766 302 761 277 754 271 c 1
 726 268 707 258 700 223 c 2
 678 106 l 2
 676 95 678 87 687 78 c 1
 612 24 496 -10 383 -10 c 0
 290 -10 202 12 149 66 c 0
 91 124 72 217 90 307 c 0
 111 415 175 505 255 565 c 0
 337 627 434 658 518 658 c 0
658.1 724 m 1
 656.7 714 648.1 702.2 638.4 698 c 1
 601.1 710 546.3 733 522.3 754 c 1
 489.2 732 429.9 709 391.4 698 c 1
 382.9 702.2 379.8 715 381.2 725 c 1
 427 752 483.3 794.2 522.9 829 c 1
 537.6 834 l 1
 569.3 797.1 621.8 750 658.1 724 c 1
EndSplineSet
Position2: "'cpsp' Versalabstaende 1" dx=2 dy=0 dh=5 dv=0
EndChar

StartChar: gcircumflex
Encoding: 285 285 50
Width: 497
VWidth: 999
Flags: HW
HStem: -238 38<137.332 323.508> 132 40<236.96 318.712> 399 40<239.36 320.171 437.878 520.4>
VStem: -3 97<-166.554 -86.0272> 73 253<516 516> 114 114<201.04 358.702> 331 114<213.077 380.309> 352 105<-166.414 -84.832>
LayerCount: 2
Fore
SplineSet
373.8 663 m 1
 396.9 614 428.7 570 459.9 529 c 1
 432.2 510 l 1
 392.9 536 366.7 556 336.9 593 c 1
 293.4 554 262.9 536 219.2 510 c 1
 196.9 529 l 1
 238.7 570 285.1 615 321.8 663 c 1
 373.8 663 l 1
171 -13 m 1
 146 -31 94 -65 94 -113 c 0
 94 -168 138 -200 250 -200 c 0
 335 -200 352 -157 352 -127 c 0
 352 -99 348 -90 292 -64 c 0
 259 -49 189 -17 171 -13 c 1
445 291 m 0
 445 192 360 132 273 132 c 0
 245 132 221 139 205 149 c 1
 196 132 195.9 107.1 202 88 c 0
 209 66 255 48 335 24 c 0
 389 8 457 -35 457 -100 c 0
 457 -199 346 -238 209 -238 c 0
 128 -238 -3 -217 -3 -136 c 0
 -3 -76 89 -31 142 -2 c 1
 111 9 106 39 106 56 c 0
 106 91 122 132 170 165 c 1
 132 188 114 239 114 283 c 0
 114 363 178 439 290 439 c 0
 334.3 439 385 428 407 402 c 1
 442 434 475.4 445.7 506.6 445.7 c 0
 534.2 445.7 553.4 426.5 553.4 404.9 c 0
 553.4 382.1 537.8 365.3 516.2 365.3 c 0
 496.8 365.3 488.6 376.1 482.6 385.7 c 0
 479 391.7 475.4 397.7 464.6 397.7 c 0
 456.2 397.7 442 383 427 369 c 1
 441 349 445 318 445 291 c 0
331 291 m 0
 331 359 329 399 286 399 c 0
 220 399 228 354 228 282 c 0
 228 234 217 172 278 172 c 0
 338 172 331 229 331 291 c 0
EndSplineSet
EndChar

StartChar: Gbreve
Encoding: 286 286 51
Width: 723
VWidth: 999
Flags: HW
HStem: -10 42<324.769 500.788> 271 37<494.511 557.795 712.779 758.489> 616 42<410.457 600.82> 693 52<436 586> 796 10<387 415 624 658>
VStem: 387 28<792 806> 695 44<459 527.253>
LayerCount: 2
Fore
SplineSet
518 658 m 0
 635 658 691 623 749 623 c 1
 742 551 739 501 739 459 c 1
 695 453 l 1
 687 539 635 616 496 616 c 0
 449 616 387 595 337 542 c 0
 289 491 256 413 239 327 c 0
 213 195 243 32 414 32 c 0
 466 32 493 42 532 74 c 1
 561 223 l 2
 569 263 544 267 492 271 c 1
 487 277 492 302 499 308 c 1
 544 307 609 306 646 306 c 0
 684 306 732 307 761 308 c 1
 766 302 761 277 754 271 c 1
 726 268 707 258 700 223 c 2
 678 106 l 2
 676 95 678 87 687 78 c 1
 612 24 496 -10 383 -10 c 0
 290 -10 202 12 149 66 c 0
 91 124 72 217 90 307 c 0
 111 415 175 505 255 565 c 0
 337 627 434 658 518 658 c 0
655.6 830 m 1
 639.6 759 569 705 503 705 c 0
 430 705 379.8 760 384.6 830 c 1
 413 833 l 1
 415.5 794 460.4 779 513.4 779 c 0
 562.4 779 616.5 794 629 833 c 1
 655.6 830 l 1
EndSplineSet
Position2: "'cpsp' Versalabstaende 1" dx=2 dy=0 dh=5 dv=0
Substitution2: "'c2sc' Versale nach Kapitaelchen 1" gbreve.sc
EndChar

StartChar: gbreve
Encoding: 287 287 52
Width: 497
VWidth: 999
Flags: HW
HStem: -238 38<137.332 323.508> 132 40<236.96 318.712> 399 40<239.36 320.171 437.878 520.4> 497 57<254.534 375.305>
VStem: -3 97<-166.554 -86.0272> 114 114<201.04 358.702> 196.1 29.4<594.777 632> 331 114<213.077 380.309> 352 105<-166.414 -84.832>
LayerCount: 2
Fore
SplineSet
254.8 667 m 1
 249.2 613 288.6 588 351.6 588 c 0
 398.6 588 457.8 603 469.8 667 c 1
 500.3 657 l 1
 475.5 552 392.2 514 341.2 514 c 0
 260.2 514 215.9 576 220.3 657 c 1
 254.8 667 l 1
171 -13 m 1
 146 -31 94 -65 94 -113 c 0
 94 -168 138 -200 250 -200 c 0
 335 -200 352 -157 352 -127 c 0
 352 -99 348 -90 292 -64 c 0
 259 -49 189 -17 171 -13 c 1
445 291 m 0
 445 192 360 132 273 132 c 0
 245 132 221 139 205 149 c 1
 196 132 195.9 107.1 202 88 c 0
 209 66 255 48 335 24 c 0
 389 8 457 -35 457 -100 c 0
 457 -199 346 -238 209 -238 c 0
 128 -238 -3 -217 -3 -136 c 0
 -3 -76 89 -31 142 -2 c 1
 111 9 106 39 106 56 c 0
 106 91 122 132 170 165 c 1
 132 188 114 239 114 283 c 0
 114 363 178 439 290 439 c 0
 334.3 439 385 428 407 402 c 1
 442 434 475.4 445.7 506.6 445.7 c 0
 534.2 445.7 553.4 426.5 553.4 404.9 c 0
 553.4 382.1 537.8 365.3 516.2 365.3 c 0
 496.8 365.3 488.6 376.1 482.6 385.7 c 0
 479 391.7 475.4 397.7 464.6 397.7 c 0
 456.2 397.7 442 383 427 369 c 1
 441 349 445 318 445 291 c 0
331 291 m 0
 331 359 329 399 286 399 c 0
 220 399 228 354 228 282 c 0
 228 234 217 172 278 172 c 0
 338 172 331 229 331 291 c 0
EndSplineSet
Substitution2: "'smcp' Gemeine nach Kapitaelchen 1" gbreve.sc
AlternateSubs2: "LinLibertine-'aalt' Alle Alternativen zeigen 1" gbreve.sc
EndChar

StartChar: Gdotaccent
Encoding: 288 288 53
Width: 723
VWidth: 999
Flags: HW
HStem: -10 42<324.769 500.788> 271 37<494.511 557.795 712.779 758.489> 616 42<410.457 600.82> 709 124<470.2 563.8>
VStem: 455 124<724.2 817.8> 695 44<459 527.253>
LayerCount: 2
Fore
SplineSet
455 771 m 0
 455 805 483 833 517 833 c 0
 551 833 579 805 579 771 c 0
 579 737 551 709 517 709 c 0
 483 709 455 737 455 771 c 0
518 658 m 0
 635 658 691 623 749 623 c 1
 742 551 739 501 739 459 c 1
 695 453 l 1
 687 539 635 616 496 616 c 0
 449 616 387 595 337 542 c 0
 289 491 256 413 239 327 c 0
 213 195 243 32 414 32 c 0
 466 32 493 42 532 74 c 1
 561 223 l 2
 569 263 544 267 492 271 c 1
 487 277 492 302 499 308 c 1
 544 307 609 306 646 306 c 0
 684 306 732 307 761 308 c 1
 766 302 761 277 754 271 c 1
 726 268 707 258 700 223 c 2
 678 106 l 2
 676 95 678 87 687 78 c 1
 612 24 496 -10 383 -10 c 0
 290 -10 202 12 149 66 c 0
 91 124 72 217 90 307 c 0
 111 415 175 505 255 565 c 0
 337 627 434 658 518 658 c 0
EndSplineSet
Position2: "'cpsp' Versalabstaende 1" dx=2 dy=0 dh=5 dv=0
EndChar

StartChar: gdotaccent
Encoding: 289 289 54
Width: 497
VWidth: 999
Flags: HW
HStem: -238 38<137.332 323.508> 132 40<236.96 318.712> 399 40<239.36 320.171 437.878 520.4> 530 128<276.302 376.126>
VStem: -3 97<-166.554 -86.0272> 114 114<201.04 358.702> 260 135<548.993 640.845> 331 114<213.077 380.309> 352 105<-166.414 -84.832>
LayerCount: 2
Fore
SplineSet
171 -13 m 1
 146 -31 94 -65 94 -113 c 0
 94 -168 138 -200 250 -200 c 0
 335 -200 352 -157 352 -127 c 0
 352 -99 348 -90 292 -64 c 0
 259 -49 189 -17 171 -13 c 1
445 291 m 0
 445 192 360 132 273 132 c 0
 245 132 221 139 205 149 c 1
 196 132 195.9 107.1 202 88 c 0
 209 66 255 48 335 24 c 0
 389 8 457 -35 457 -100 c 0
 457 -199 346 -238 209 -238 c 0
 128 -238 -3 -217 -3 -136 c 0
 -3 -76 89 -31 142 -2 c 1
 111 9 106 39 106 56 c 0
 106 91 122 132 170 165 c 1
 132 188 114 239 114 283 c 0
 114 363 178 439 290 439 c 0
 334.3 439 385 428 407 402 c 1
 442 434 475.4 445.7 506.6 445.7 c 0
 534.2 445.7 553.4 426.5 553.4 404.9 c 0
 553.4 382.1 537.8 365.3 516.2 365.3 c 0
 496.8 365.3 488.6 376.1 482.6 385.7 c 0
 479 391.7 475.4 397.7 464.6 397.7 c 0
 456.2 397.7 442 383 427 369 c 1
 441 349 445 318 445 291 c 0
331 291 m 0
 331 359 329 399 286 399 c 0
 220 399 228 354 228 282 c 0
 228 234 217 172 278 172 c 0
 338 172 331 229 331 291 c 0
260 596 m 0
 260 626 283 658 330 658 c 0
 372 658 395 622 395 592 c 0
 395 566 369 530 324 530 c 0
 284 530 260 563 260 596 c 0
EndSplineSet
EndChar

StartChar: Gcommaaccent
Encoding: 290 290 55
Width: 723
VWidth: 999
Flags: HW
HStem: -247 24<281.712 320.08> -144 82<318.818 368.347> -10 42<324.769 500.788> 271 37<494.511 557.795 712.779 758.489> 616 42<410.457 600.82>
VStem: 281.9 129.3 695 44<459 527.253>
LayerCount: 2
Fore
SplineSet
518 658 m 0
 635 658 691 623 749 623 c 1
 742 551 739 501 739 459 c 1
 695 453 l 1
 687 539 635 616 496 616 c 0
 449 616 387 595 337 542 c 0
 289 491 256 413 239 327 c 0
 213 195 243 32 414 32 c 0
 466 32 493 42 532 74 c 1
 561 223 l 2
 569 263 544 267 492 271 c 1
 487 277 492 302 499 308 c 1
 544 307 609 306 646 306 c 0
 684 306 732 307 761 308 c 1
 766 302 761 277 754 271 c 1
 726 268 707 258 700 223 c 2
 678 106 l 2
 676 95 678 87 687 78 c 1
 612 24 496 -10 383 -10 c 0
 290 -10 202 12 149 66 c 0
 91 124 72 217 90 307 c 0
 111 415 175 505 255 565 c 0
 337 627 434 658 518 658 c 0
384.1 -72 m 0
 416.1 -72 454.1 -87 445.2 -150 c 0
 437.2 -207 379.6 -247 309.9 -259 c 1
 300.7 -253 302.1 -243 307.8 -231 c 1
 349.3 -220 377.7 -196 380.2 -178 c 0
 383 -158 362.2 -157 354.5 -155 c 0
 333.2 -150 324.3 -135 327.8 -110 c 0
 330.2 -93 361.1 -72 384.1 -72 c 0
EndSplineSet
Position2: "'cpsp' Versalabstaende 1" dx=2 dy=0 dh=5 dv=0
EndChar

StartChar: gcommaaccent
Encoding: 291 291 56
Width: 497
VWidth: 999
Flags: HW
HStem: -238 38<137.332 323.508> 132 40<236.96 318.712> 399 40<239.36 320.171 437.878 520.4> 511 82<303.345 357.729> 673 20<359.158 392.232>
VStem: -3 97<-166.554 -86.0272> 114 114<201.04 358.702> 262.1 128.2 331 114<213.077 380.309> 352 105<-166.414 -84.832>
LayerCount: 2
Fore
SplineSet
171 -13 m 1
 146 -31 94 -65 94 -113 c 0
 94 -168 138 -200 250 -200 c 0
 335 -200 352 -157 352 -127 c 0
 352 -99 348 -90 292 -64 c 0
 259 -49 189 -17 171 -13 c 1
445 291 m 0
 445 192 360 132 273 132 c 0
 245 132 221 139 205 149 c 1
 196 132 195.9 107.1 202 88 c 0
 209 66 255 48 335 24 c 0
 389 8 457 -35 457 -100 c 0
 457 -199 346 -238 209 -238 c 0
 128 -238 -3 -217 -3 -136 c 0
 -3 -76 89 -31 142 -2 c 1
 111 9 106 39 106 56 c 0
 106 91 122 132 170 165 c 1
 132 188 114 239 114 283 c 0
 114 363 178 439 290 439 c 0
 334.3 439 385 428 407 402 c 1
 442 434 475.4 445.7 506.6 445.7 c 0
 534.2 445.7 553.4 426.5 553.4 404.9 c 0
 553.4 382.1 537.8 365.3 516.2 365.3 c 0
 496.8 365.3 488.6 376.1 482.6 385.7 c 0
 479 391.7 475.4 397.7 464.6 397.7 c 0
 456.2 397.7 442 383 427 369 c 1
 441 349 445 318 445 291 c 0
331 291 m 0
 331 359 329 399 286 399 c 0
 220 399 228 354 228 282 c 0
 228 234 217 172 278 172 c 0
 338 172 331 229 331 291 c 0
309.2 511 m 0
 270.2 511 254.8 548 262.1 584 c 0
 267 608 278.4 630 298.5 650 c 0
 319.7 671.1 351.3 688 390.3 693 c 1
 393.5 689 392.6 680 391.2 673 c 1
 331.8 661 305.2 629 300.5 606 c 0
 296.5 586.4 302.7 593 326.9 593 c 0
 366.9 593 372.1 569 368.6 552 c 0
 365.3 536 344.2 511 309.2 511 c 0
EndSplineSet
EndChar

StartChar: Hcircumflex
Encoding: 292 292 57
Width: 735
VWidth: 999
Flags: HW
HStem: -2 34<29.4836 99.8263 271.494 329.377 413.484 483.826 655.494 713.377> 613 34<148.484 206.03 378.174 448.516 532.484 590.03 762.174 832.516> 688 115
VStem: 373 243
DStem2: 490.643 -2 624.643 -2 0.207912 0.978148<83.8642 600.436>
LayerCount: 2
Fore
SplineSet
642.1 724 m 1
 640.7 714 632.1 702.2 622.4 698 c 1
 585.1 710 530.3 733 506.3 754 c 1
 473.2 732 413.9 709 375.4 698 c 1
 366.9 702.2 363.8 715 365.2 725 c 1
 411 752 467.3 794.2 506.9 829 c 1
 521.6 834 l 1
 553.3 797.1 605.8 750 642.1 724 c 1
595 523 m 2
 611 606 584 610 532 613 c 1
 524 619 528 641 539 647 c 1
 577 646 649 645 687 645 c 0
 725 645 794 646 833 647 c 1
 841 641 837 619 826 613 c 1
 773 610 745 606 729 523 c 2
 651 122 l 2
 635 39 661 35 713 32 c 1
 721 26 718 4 707 -2 c 1
 669 -1 599 0 561 0 c 0
 523 0 452 -1 413 -2 c 1
 405 4 409 26 420 32 c 1
 473 35 501 39 517 122 c 2
 555.3 319 l 1
 305.3 319 l 1
 267 122 l 2
 251 39 277 35 329 32 c 1
 337 26 334 4 323 -2 c 1
 285 -1 215 0 177 0 c 0
 139 0 68 -1 29 -2 c 1
 21 4 25 26 36 32 c 1
 89 35 117 39 133 122 c 2
 211 523 l 2
 227 606 200 610 148 613 c 1
 140 619 144 641 155 647 c 1
 193 646 265 645 303 645 c 0
 341 645 410 646 449 647 c 1
 457 641 453 619 442 613 c 1
 389 610 361 606 345 523 c 2
 314.7 367 l 1
 564.7 367 l 1
 595 523 l 2
EndSplineSet
Position2: "'cpsp' Versalabstaende 1" dx=2 dy=0 dh=5 dv=0
EndChar

StartChar: hcircumflex
Encoding: 293 293 58
Width: 620
VWidth: 999
Flags: HW
HStem: -10 76<130.055 236.715> 633 39<159 190> 678 20<331.5 349.5> 717 115
VStem: 97.3 127.1<22.684 168.212> 267 243
LayerCount: 2
Fore
SplineSet
225.9 72 m 2
 217.3 33 218 -10 157 -10 c 0
 101 -10 91.1 0.5 91.1 17.2 c 0
 91.1 27 98.5 48.3 103.8 72 c 2
 214 563 l 2
 229.5 632.1 214 638 152 638 c 1
 149 647 151 660 157 672 c 1
 200 679 292 698 323 698 c 0
 346 698 353 686 353 665 c 0
 353 645 345 616 338 583 c 2
 279.8 317.9 l 1
 368.3 419 432.3 439 483 439 c 0
 522 439 572 419 572 359 c 0
 572 341 567.3 317.9 559 283 c 2
 521 124 l 2
 514.7 98.4 507.7 63 525 63 c 0
 535 63 569 80 595 110 c 1
 609 110 621 91 624 82 c 1
 578 23 508.5 -10 439 -10 c 0
 409 -10 397.5 2.5 390 23 c 0
 383.5 40.8 389.2 83.2 397 115 c 2
 434 275 l 2
 441.9 309 443 319 443 333 c 0
 443 364 429 369 408 369 c 0
 372.6 369 322.6 311.8 260.9 231.8 c 1
 225.9 72 l 2
626.1 724 m 1
 624.7 714 616.1 702.2 606.4 698 c 1
 569.1 710 514.3 733 490.3 754 c 1
 457.2 732 397.9 709 359.4 698 c 1
 350.9 702.2 347.8 715 349.2 725 c 1
 395 752 451.3 794.2 490.9 829 c 1
 505.6 834 l 1
 537.3 797.1 589.8 750 626.1 724 c 1
EndSplineSet
EndChar

StartChar: Hbar
Encoding: 294 294 59
Width: 735
VWidth: 999
Flags: HW
HStem: -2 34<29.4836 99.8263 271.494 329.377 413.484 483.826 655.494 713.377> 492 34<152 775> 613 34<148.484 206.03 378.174 448.516 532.484 590.03 762.174 832.516>
DStem2: 490.643 -2 624.643 -2 0.207912 0.978148<83.8642 600.436>
LayerCount: 2
Fore
SplineSet
589 492 m 1
 339 492 l 1
 314.7 367 l 1
 564.7 367 l 1
 589 492 l 1
345.6 526 m 1
 595.6 526 l 1
 610.4 606.1 583.4 610 532 613 c 1
 524 619 528 641 539 647 c 1
 577 646 649 645 687 645 c 0
 725 645 794 646 833 647 c 1
 841 641 837 619 826 613 c 1
 773.6 610 745.7 606.1 729.6 526 c 1
 782 526 l 1
 775 492 l 1
 723 492 l 1
 651 122 l 2
 635 39 661 35 713 32 c 1
 721 26 718 4 707 -2 c 1
 669 -1 599 0 561 0 c 0
 523 0 452 -1 413 -2 c 1
 405 4 409 26 420 32 c 1
 473 35 501 39 517 122 c 2
 555.3 319 l 1
 305.3 319 l 1
 267 122 l 2
 251 39 277 35 329 32 c 1
 337 26 334 4 323 -2 c 1
 285 -1 215 0 177 0 c 0
 139 0 68 -1 29 -2 c 1
 21 4 25 26 36 32 c 1
 89 35 117 39 133 122 c 2
 205 492 l 1
 145 492 l 1
 152 526 l 1
 211.6 526 l 1
 226.4 606.1 199.4 610 148 613 c 1
 140 619 144 641 155 647 c 1
 193 646 265 645 303 645 c 0
 341 645 410 646 449 647 c 1
 457 641 453 619 442 613 c 1
 389.6 610 361.7 606.1 345.6 526 c 1
EndSplineSet
Position2: "'cpsp' Versalabstaende 1" dx=2 dy=0 dh=5 dv=0
EndChar

StartChar: hbar
Encoding: 295 295 60
Width: 620
VWidth: 999
Flags: HW
HStem: -10 76<130.055 236.715> 530 39<152 436> 633 39<159 190> 678 20<331.5 349.5>
VStem: 97.3 127.1<22.684 168.212>
LayerCount: 2
Fore
SplineSet
225.9 72 m 2
 217.3 33 218 -10 157 -10 c 0
 101 -10 91.1 0.5 91.1 17.2 c 0
 91.1 27 98.5 48.3 103.8 72 c 2
 206.6 530 l 1
 143 530 l 1
 152 569 l 1
 215.3 569 l 1
 228.5 632.5 212.2 638 152 638 c 1
 149 647 151 660 157 672 c 1
 200 679 292 698 323 698 c 0
 346 698 353 686 353 665 c 0
 353 645 345 616 338 583 c 2
 334.9 569 l 1
 445 569 l 1
 436 530 l 1
 326.4 530 l 1
 279.8 317.9 l 1
 368.3 419 432.3 439 483 439 c 0
 522 439 572 419 572 359 c 0
 572 341 567.3 317.9 559 283 c 2
 521 124 l 2
 514.7 98.4 507.7 63 525 63 c 0
 535 63 569 80 595 110 c 1
 609 110 621 91 624 82 c 1
 578 23 508.5 -10 439 -10 c 0
 409 -10 397.5 2.5 390 23 c 0
 383.5 40.8 389.2 83.2 397 115 c 2
 434 275 l 2
 441.9 309 443 319 443 333 c 0
 443 364 429 369 408 369 c 0
 372.6 369 322.6 311.8 260.9 231.8 c 1
 225.9 72 l 2
EndSplineSet
EndChar

StartChar: Itilde
Encoding: 296 296 61
Width: 351
VWidth: 999
Flags: HW
HStem: -2 34<29.4836 99.8263 271.494 329.377> 613 34<148.484 206.03 378.174 448.516> 697 44<162 249> 745 46<44 135> 784 10
DStem2: 106.643 -2 240.643 -2 0.207912 0.978148<83.8642 600.436>
LayerCount: 2
Fore
SplineSet
393 767 m 0
 407 767 429 774 448.1 810 c 1
 462.1 810 475 802 473.3 790 c 1
 448.1 732 406.2 697 369.2 697 c 0
 346.2 697 325.1 703 307.2 718 c 1
 289 731 269.5 735 251.5 735 c 0
 229.5 735 213.2 733 196.9 695 c 1
 184.9 695 171.4 699 173.4 713 c 1
 196.6 764 234.5 806 269.5 806 c 0
 300.5 806 322.2 797 340 781 c 0
 356 767 382 767 393 767 c 0
211 523 m 2
 227 606 200 610 148 613 c 1
 140 619 144 641 155 647 c 1
 193 646 265 645 303 645 c 0
 341 645 410 646 449 647 c 1
 457 641 453 619 442 613 c 1
 389 610 361 606 345 523 c 2
 267 122 l 2
 251 39 277 35 329 32 c 1
 337 26 334 4 323 -2 c 1
 285 -1 215 0 177 0 c 0
 139 0 68 -1 29 -2 c 1
 21 4 25 26 36 32 c 1
 89 35 117 39 133 122 c 2
 211 523 l 2
EndSplineSet
Position2: "'cpsp' Versalabstaende 1" dx=2 dy=0 dh=5 dv=0
EndChar

StartChar: itilde
Encoding: 297 297 62
Width: 342
VWidth: 999
Flags: HW
HStem: -12 21<83.5 113> 434 20<209 241.5> 515 137<206 233> 526 44<138.2 216.5> 574 46<32 113.9> 613 10 632 20<206 250>
VStem: 60 126 124 130 155 132<577 593>
LayerCount: 2
Fore
SplineSet
313 589 m 0
 327 589 349 596 368.1 632 c 1
 382.1 632 395 624 393.3 612 c 1
 368.1 554 326.2 519 289.2 519 c 0
 266.2 519 245.1 525 227.2 540 c 1
 209 553 189.5 557 171.5 557 c 0
 149.5 557 133.2 555 116.9 517 c 1
 104.9 517 91.4 521 93.4 535 c 1
 116.6 586 154.5 628 189.5 628 c 0
 220.5 628 242.2 619 260 603 c 0
 276 589 302 589 313 589 c 0
293.3 320.2 m 2
 251 124 l 2
 245.1 98.4 237.7 63 255 63 c 0
 265 63 299 80 325 110 c 1
 339 110 351 91 354 82 c 1
 308 23 238.5 -10 169 -10 c 0
 139 -10 127.5 2.5 120 23 c 0
 113.5 40.8 120 83 127 115 c 2
 171 321 l 2
 176.6 347 177 352.9 177 362 c 0
 177 372 171 381.1 159 382 c 2
 119 385 l 1
 113 394 114.3 415 121 423 c 1
 168 429 261 436 293 436 c 0
 306.2 436 313.5 428.6 313.5 414.9 c 0
 313.5 397.8 301.8 359.5 293.3 320.2 c 2
EndSplineSet
EndChar

StartChar: Imacron
Encoding: 298 298 63
Width: 351
VWidth: 999
Flags: HW
HStem: -2 34<29.4836 99.8263 271.494 329.377> 613 34<148.484 206.03 378.174 448.516> 731 44<191.19 469.349>
VStem: 188.5 284.1
DStem2: 106.643 -2 240.643 -2 0.207912 0.978148<83.8642 600.436>
LayerCount: 2
Fore
SplineSet
211 523 m 2
 227 606 200 610 148 613 c 1
 140 619 144 641 155 647 c 1
 193 646 265 645 303 645 c 0
 341 645 410 646 449 647 c 1
 457 641 453 619 442 613 c 1
 389 610 361 606 345 523 c 2
 267 122 l 2
 251 39 277 35 329 32 c 1
 337 26 334 4 323 -2 c 1
 285 -1 215 0 177 0 c 0
 139 0 68 -1 29 -2 c 1
 21 4 25 26 36 32 c 1
 89 35 117 39 133 122 c 2
 211 523 l 2
442.5 731 m 2
 198.5 731 l 2
 189.5 731 187.1 739 188.5 746 c 0
 190.9 758 205.4 775 216.4 775 c 2
 461.4 775 l 2
 471.4 775 473.8 767 472.6 761 c 0
 470.2 749 455.5 731 442.5 731 c 2
EndSplineSet
Position2: "'cpsp' Versalabstaende 1" dx=2 dy=0 dh=5 dv=0
EndChar

StartChar: imacron
Encoding: 299 299 64
Width: 342
VWidth: 999
Flags: HW
HStem: -10 73<154 260.297> 385 38<117.417 159> 416 20<277 299.624> 538 44<151.271 401.614>
VStem: 148.9 255.6
DStem2: 100.43 -10 222.517 -10 0.207912 0.978148<103.402 379.377>
LayerCount: 2
Fore
SplineSet
293.3 320.2 m 2
 251 124 l 2
 245.1 98.4 237.7 63 255 63 c 0
 265 63 299 80 325 110 c 1
 339 110 351 91 354 82 c 1
 308 23 238.5 -10 169 -10 c 0
 139 -10 127.5 2.5 120 23 c 0
 113.5 40.8 120 83 127 115 c 2
 171 321 l 2
 176.6 347 177 352.9 177 362 c 0
 177 372 171 381.1 159 382 c 2
 119 385 l 1
 113 394 114.3 415 121 423 c 1
 168 429 261 436 293 436 c 0
 306.2 436 313.5 428.6 313.5 414.9 c 0
 313.5 397.8 301.8 359.5 293.3 320.2 c 2
377.4 538 m 2
 157.8 538 l 2
 149.7 538 147.6 546 148.9 553 c 0
 151.1 565 164.1 582 174 582 c 2
 394.5 582 l 2
 403.5 582 405.6 574 404.5 568 c 0
 402.3 556 389.1 538 377.4 538 c 2
EndSplineSet
EndChar

StartChar: Ibreve
Encoding: 300 300 65
Width: 351
VWidth: 999
Flags: HW
HStem: -2 34<29.4836 99.8263 271.494 329.377> 613 34<148.484 206.03 378.174 448.516> 705 74<258.037 402.404>
VStem: 210.6 28.4<804.531 830> 455 26.6<813.688 830.79>
DStem2: 106.643 -2 240.643 -2 0.207912 0.978148<83.8642 600.436>
LayerCount: 2
Fore
SplineSet
211 523 m 2
 227 606 200 610 148 613 c 1
 140 619 144 641 155 647 c 1
 193 646 265 645 303 645 c 0
 341 645 410 646 449 647 c 1
 457 641 453 619 442 613 c 1
 389 610 361 606 345 523 c 2
 267 122 l 2
 251 39 277 35 329 32 c 1
 337 26 334 4 323 -2 c 1
 285 -1 215 0 177 0 c 0
 139 0 68 -1 29 -2 c 1
 21 4 25 26 36 32 c 1
 89 35 117 39 133 122 c 2
 211 523 l 2
481.6 830 m 1
 465.6 759 395 705 329 705 c 0
 256 705 205.8 760 210.6 830 c 1
 239 833 l 1
 241.5 794 286.4 779 339.4 779 c 0
 388.4 779 442.5 794 455 833 c 1
 481.6 830 l 1
EndSplineSet
Position2: "'cpsp' Versalabstaende 1" dx=2 dy=0 dh=5 dv=0
EndChar

StartChar: ibreve
Encoding: 301 301 66
Width: 342
VWidth: 999
Flags: HW
HStem: -10 73<154 260.297> 385 38<117.417 159> 416 20<277 299.624> 529 57<218.081 326.774>
VStem: 165.5 26.5<626.777 664>
DStem2: 100.43 -10 222.517 -10 0.207912 0.978148<103.402 379.377>
LayerCount: 2
Fore
SplineSet
194.8 667 m 1
 189.2 613 228.6 588 291.6 588 c 0
 338.6 588 397.8 603 409.8 667 c 1
 440.3 657 l 1
 415.5 552 332.2 514 281.2 514 c 0
 200.2 514 155.9 576 160.3 657 c 1
 194.8 667 l 1
293.3 320.2 m 2
 251 124 l 2
 245.1 98.4 237.7 63 255 63 c 0
 265 63 299 80 325 110 c 1
 339 110 351 91 354 82 c 1
 308 23 238.5 -10 169 -10 c 0
 139 -10 127.5 2.5 120 23 c 0
 113.5 40.8 120 83 127 115 c 2
 171 321 l 2
 176.6 347 177 352.9 177 362 c 0
 177 372 171 381.1 159 382 c 2
 119 385 l 1
 113 394 114.3 415 121 423 c 1
 168 429 261 436 293 436 c 0
 306.2 436 313.5 428.6 313.5 414.9 c 0
 313.5 397.8 301.8 359.5 293.3 320.2 c 2
EndSplineSet
EndChar

StartChar: Iogonek
Encoding: 302 302 67
Width: 351
VWidth: 999
Flags: HW
HStem: -225 39<153.181 237.134> -2 34<29.4836 99.8263 271.494 329.377> -1 25<222.256 258.88> 613 34<148.484 206.03 378.174 448.516>
VStem: 79 60<-174.091 -75.5789>
DStem2: 106.643 -2 240.643 -2 0.207912 0.978148<83.8642 600.436>
LayerCount: 2
Fore
SplineSet
320 -179 m 1
 294 -215 250 -234 211 -234 c 0
 191.7 -234 175.4 -227.4 161 -218 c 0
 138.1 -203 122 -177.9 122 -138 c 0
 122 -88.7 171.1 -30.4 224.3 -0.3 c 1
 206.5 -0.1 189.9 0 177 0 c 0
 139 0 68 -1 29 -2 c 1
 21 4 25 26 36 32 c 1
 89 35 117 39 133 122 c 2
 211 523 l 2
 227 606 200 610 148 613 c 1
 140 619 144 641 155 647 c 1
 193 646 265 645 303 645 c 0
 341 645 410 646 449 647 c 1
 457 641 453 619 442 613 c 1
 389 610 361 606 345 523 c 2
 267 122 l 2
 251 39 277 35 329 32 c 1
 337 26 334 4 323 -2 c 1
 317.2 -1.8 310.7 -1.6 303.7 -1.5 c 1
 254.8 -8 214 -69.1 214 -132 c 0
 214 -164 231.5 -174 249 -174 c 0
 266 -174 290 -171 305 -156 c 1
 320 -179 l 1
EndSplineSet
Position2: "'cpsp' Versalabstaende 1" dx=2 dy=0 dh=5 dv=0
EndChar

StartChar: iogonek
Encoding: 303 303 68
Width: 342
VWidth: 999
Flags: HW
HStem: -216 60<187.5 285.812 187.5 285.812> -10 73<154 260.297 154 260.297> 385 38<117.417 159 117.417 159> 416 20<277 299.624 277 299.624> 530 128<215.302 315.126 215.302 315.126>
VStem: 123.5 92<-152.727 -68.8436 -152.727 -68.8436> 199 135<548.993 640.845 548.993 640.845>
DStem2: 100.43 -10 222.517 -10 0.207912 0.978148<103.402 379.377>
LayerCount: 2
Fore
SplineSet
321.5 -161 m 1
 295.5 -197 251.5 -216 212.5 -216 c 0
 162.5 -216 123.5 -185 123.5 -130 c 0
 123.5 -86 157.9 -43.6 198.5 -8 c 1
 188.7 -9.3 178.8 -10 169 -10 c 0
 139 -10 127.5 2.5 120 23 c 0
 113.5 40.8 120 83 127 115 c 2
 171 321 l 2
 176.6 347 177 352.9 177 362 c 0
 177 372 171 381.1 159 382 c 2
 119 385 l 1
 113 394 114.3 415 121 423 c 1
 168 429 261 436 293 436 c 0
 306.2 436 313.5 428.6 313.5 414.9 c 0
 313.5 397.8 301.8 359.5 293.3 320.2 c 2
 251 124 l 2
 245.1 98.4 237.7 63 255 63 c 0
 265 63 299 80 325 110 c 1
 339 110 351 91 354 82 c 1
 336.4 59.5 315.4 40.8 292.3 26.2 c 1
 292.5 26 l 1
 246.5 -16 215.5 -58 215.5 -124 c 0
 215.5 -145 233 -156 250.5 -156 c 0
 267.5 -156 291.5 -153 306.5 -138 c 1
 321.5 -161 l 1
199 596 m 0
 199 626 222 658 269 658 c 0
 311 658 334 622 334 592 c 0
 334 566 308 530 263 530 c 0
 223 530 199 563 199 596 c 0
EndSplineSet
EndChar

StartChar: Idotaccent
Encoding: 304 304 69
Width: 351
Flags: HW
HStem: -2 34<29.4836 99.8263 271.494 329.377> 613 34<148.484 206.03 378.174 448.516> 709 124<265.2 358.8>
VStem: 250 124<724.2 817.8>
DStem2: 106.643 -2 240.643 -2 0.207912 0.978148<83.8642 600.436>
LayerCount: 2
Fore
SplineSet
211 523 m 2
 227 606 200 610 148 613 c 1
 140 619 144 641 155 647 c 1
 193 646 265 645 303 645 c 0
 341 645 410 646 449 647 c 1
 457 641 453 619 442 613 c 1
 389 610 361 606 345 523 c 2
 267 122 l 2
 251 39 277 35 329 32 c 1
 337 26 334 4 323 -2 c 1
 285 -1 215 0 177 0 c 0
 139 0 68 -1 29 -2 c 1
 21 4 25 26 36 32 c 1
 89 35 117 39 133 122 c 2
 211 523 l 2
260 771 m 0
 260 805 288 833 322 833 c 0
 356 833 384 805 384 771 c 0
 384 737 356 709 322 709 c 0
 288 709 260 737 260 771 c 0
EndSplineSet
Position2: "'cpsp' Versalabstaende 1" dx=2 dy=0 dh=5 dv=0
Substitution2: "'c2sc' Versale nach Kapitaelchen 1" idotaccent.sc
EndChar

StartChar: uni1E00
Encoding: 7680 7680 70
Width: 710
VWidth: 999
Flags: HW
HStem: -215 27<241.356 305.53> -76 27<258.447 323.941> -2 34<8.51071 75.866 170.986 228.489 409.65 489.234 647.305 704.489> 235 48<299.031 463> 638 20<536 547.042>
VStem: 195.5 174
DStem2: 122 102 174 79 0.51548 0.856902<-22.0748 201.519 257.97 511.863> 430 614 295 296 0.51548 0.856902<-590.405 -400.666 -344.24 -83.6416> 544 658 430 520 0.150369 -0.98863<119.289 358.556 407.214 599.42>
LayerCount: 2
Fore
SplineSet
317 283 m 2
 463 283 l 1
 430 520 l 1
 424 520 l 1
 295 296 l 2
 289 286 296 283 317 283 c 2
174 79 m 2
 151 38 195 35 231 32 c 1
 236 26 231 4 224 -2 c 1
 189 -1 136 0 97 0 c 0
 60 0 42 -1 6 -2 c 1
 1 4 6 26 13 32 c 1
 55 35 85 40 122 102 c 2
 430 614 l 1
 464 614 528 649 544 658 c 1
 631 86 l 2
 638 35 670 36 707 32 c 1
 712 26 707 4 700 -2 c 1
 665 -1 611 0 572 0 c 0
 535 0 444 -1 408 -2 c 1
 403 4 407 26 414 32 c 1
 460 35 498 31 493 72 c 2
 471 235 l 1
 289 235 l 2
 266 235 259 231 252 218 c 2
 174 79 l 2
286 -76 m 0
 255 -76 234.4 -102 232.5 -132 c 0
 230.7 -160 248 -188 279 -188 c 0
 310 -188 330.7 -160 332.5 -132 c 0
 334.4 -101 316 -76 286 -76 c 0
195.5 -132 m 0
 198.4 -86 241.7 -49 287.7 -49 c 0
 333.7 -49 372.5 -85 369.5 -132 c 0
 366.7 -177 325.3 -215 277.3 -215 c 0
 231.3 -215 192.6 -178 195.5 -132 c 0
EndSplineSet
LCarets2: 1 0 
EndChar

StartChar: uni1E01
Encoding: 7681 7681 71
Width: 558
VWidth: 999
Flags: HW
HStem: -216 27<129.356 193.53> -77 27<146.447 211.941> -10 73<369 475.297> -10 94.5<155.421 243.8> 397 42<307.888 396.611>
VStem: 74.1 126.1<89.7012 224.813> 83.5 174 337.7 121.5<42.2101 159.62>
LayerCount: 2
Fore
SplineSet
508 436 m 0
 521.3 436 528.5 428.6 528.5 414.9 c 0
 528.5 397.8 516.8 359.5 508.3 320.2 c 2
 466 124 l 2
 462.8 110.3 459.2 93.8 459.2 81.4 c 0
 459.2 70.6 462 63 470 63 c 0
 480 63 514 80 540 110 c 1
 554 110 566 91 569 82 c 1
 523 23 460.5 -10 391 -10 c 0
 361 -10 348.5 2.5 341 23 c 0
 338.7 29.3 337.7 37.5 337.7 46.9 c 0
 337.7 64.4 341.1 86 346 106.7 c 2
 351 125 l 1
 347 127 l 1
 287 38 224.5 -10 182 -10 c 0
 109 -10 75.1 49.1 75.1 117.5 c 0
 75.1 192.4 103.5 258.6 148.5 315.6 c 0
 203.8 385.8 284 439 368 439 c 0
 408 439 406 436 433 433 c 0
 437.8 431.8 443.1 431.4 448.9 431.4 c 0
 467.3 431.4 489.7 436 508 436 c 0
364.5 226 m 1
 389.5 290 397 378 397 378 c 1
 395.1 390.5 384 397 363 397 c 0
 319.6 397 280.2 362.6 251 314.5 c 0
 219.7 262.9 200.2 195.6 200.2 138.4 c 0
 200.2 107.5 213.1 84.5 244.1 84.5 c 0
 276.1 84.5 315.5 136 364.5 226 c 1
174 -77 m 0
 143 -77 122.4 -103 120.5 -133 c 0
 118.7 -161 136 -189 167 -189 c 0
 198 -189 218.7 -161 220.5 -133 c 0
 222.4 -102 204 -77 174 -77 c 0
83.5 -133 m 0
 86.4 -87 129.7 -50 175.7 -50 c 0
 221.7 -50 260.5 -86 257.5 -133 c 0
 254.7 -178 213.3 -216 165.3 -216 c 0
 119.3 -216 80.6 -179 83.5 -133 c 0
EndSplineSet
LCarets2: 1 0 
EndChar

StartChar: uni1E02
Encoding: 7682 7682 72
Width: 621
Flags: HW
HStem: -2 34<17.6226 87.8263> -2 42<246.416 391.502> 334 42<305 435.928> 605 42<348.798 470.315> 613 34<137.484 194.506> 709 124<370.2 463.8>
VStem: 355 124<724.2 817.8>
DStem2: 94.643 -2 229.72 -2 0.207912 0.978148<81.2166 370.73 413.475 600.98>
LayerCount: 2
Fore
SplineSet
341 562 m 2
 305 376 l 1
 359 376 l 2
 436.6 376 496.1 427.3 496.1 527.9 c 0
 496.1 592 454.4 605 417 605 c 0
 355 605 347 591 341 562 c 2
297 334 m 1
 248 84 l 2
 246.7 77.8 245.8 72.1 245.8 67.2 c 0
 245.8 49.2 257.5 40 303 40 c 0
 441.9 40 483.3 140.3 483.3 228.1 c 0
 483.3 291.8 447.3 334 365 334 c 2
 297 334 l 1
291 645 m 0
 321 645 380 647 428 647 c 0
 592.1 647 630.3 584.7 630.3 523.8 c 0
 630.3 447.9 576.7 389.1 510 361 c 1
 509 359 l 1
 588.8 335.7 624.3 292.5 624.3 228 c 0
 624.3 91.3 531.1 -2 323 -2 c 0
 265 -2 204 0 166 0 c 0
 128 0 18 -2 18 -2 c 1
 14.9 0.3 13.5 5 13.5 10.2 c 0
 13.5 18.6 17.2 28.3 24 32 c 1
 77 35 105 39 121 122 c 2
 199 523 l 2
 202.2 539.4 203.7 552.8 203.7 563.6 c 0
 203.7 607.5 178.7 610.6 137 613 c 1
 134.1 615.2 132.8 619.4 132.8 624.2 c 0
 132.8 632.8 137 643.2 144 647 c 1
 144 647 253 645 291 645 c 0
355 771 m 0
 355 805 383 833 417 833 c 0
 451 833 479 805 479 771 c 0
 479 737 451 709 417 709 c 0
 383 709 355 737 355 771 c 0
EndSplineSet
LCarets2: 1 0 
EndChar

StartChar: uni1E03
Encoding: 7683 7683 73
Width: 521
VWidth: 999
Flags: HW
HStem: -10 42<165 314.812> 352 87<376.816 493.25> 511 128<418.302 518.126> 638 34<150.053 210.246> 678 20<303.5 330.5>
VStem: 402 135<529.993 621.845> 422 128.5<214.948 349.337>
DStem2: 81.7928 -10 203.88 -10 0.207912 0.978148<81.8106 652.519>
LayerCount: 2
Fore
SplineSet
402 577 m 0
 402 607 425 639 472 639 c 0
 514 639 537 603 537 573 c 0
 537 547 511 511 466 511 c 0
 426 511 402 544 402 577 c 0
266.4 277.6 m 1
 233 127 l 2
 217.8 58.5 224.9 32 261 32 c 0
 337.3 32 422 156 422 301 c 0
 422 319 419 352 389 352 c 0
 341.5 352 312.6 331.4 266.4 277.6 c 1
279.2 335.6 m 1
 281 335 l 1
 316 376 380 439 449 439 c 0
 537.5 439 550.5 368.5 550.5 327.5 c 0
 550.5 225.4 508.8 147.8 426.5 73.5 c 0
 348.5 3 269.5 -10 210 -10 c 0
 120 -10 94.6 54.5 109 118 c 2
 210 563 l 2
 225.7 632.1 210 638 148 638 c 1
 145 647 147 660 153 672 c 1
 196 679 288 698 319 698 c 0
 342 698 349 686 349 665 c 0
 349 645 341.3 615.9 334 583 c 2
 279.2 335.6 l 1
EndSplineSet
LCarets2: 1 0 
EndChar

StartChar: uni1E04
Encoding: 7684 7684 74
Width: 621
VWidth: 999
Flags: HW
HStem: -237.3 120.3<173.415 269.512> -2 34<17.6226 87.8263> -2 42<246.416 391.502> 334 42<305 435.928> 605 42<348.798 470.315> 613 34<137.484 194.506>
VStem: 159.1 126.9<-220.464 -132.069>
DStem2: 94.643 -2 229.72 -2 0.207912 0.978148<81.2166 370.73 413.475 600.98>
LayerCount: 2
Fore
SplineSet
341 562 m 2
 305 376 l 1
 359 376 l 2
 436.6 376 496.1 427.3 496.1 527.9 c 0
 496.1 592 454.4 605 417 605 c 0
 355 605 347 591 341 562 c 2
297 334 m 1
 248 84 l 2
 246.7 77.8 245.8 72.1 245.8 67.2 c 0
 245.8 49.2 257.5 40 303 40 c 0
 441.9 40 483.3 140.3 483.3 228.1 c 0
 483.3 291.8 447.3 334 365 334 c 2
 297 334 l 1
291 645 m 0
 321 645 380 647 428 647 c 0
 592.1 647 630.3 584.7 630.3 523.8 c 0
 630.3 447.9 576.7 389.1 510 361 c 1
 509 359 l 1
 588.8 335.7 624.3 292.5 624.3 228 c 0
 624.3 91.3 531.1 -2 323 -2 c 0
 265 -2 204 0 166 0 c 0
 128 0 18 -2 18 -2 c 1
 14.9 0.3 13.5 5 13.5 10.2 c 0
 13.5 18.6 17.2 28.3 24 32 c 1
 77 35 105 39 121 122 c 2
 199 523 l 2
 202.2 539.4 203.7 552.8 203.7 563.6 c 0
 203.7 607.5 178.7 610.6 137 613 c 1
 134.1 615.2 132.8 619.4 132.8 624.2 c 0
 132.8 632.8 137 643.2 144 647 c 1
 144 647 253 645 291 645 c 0
160 -159 m 0
 160 -129 183 -97 230 -97 c 0
 272 -97 295 -133 295 -163 c 0
 295 -189 269 -225 224 -225 c 0
 184 -225 160 -192 160 -159 c 0
EndSplineSet
LCarets2: 1 0 
EndChar

StartChar: uni1E05
Encoding: 7685 7685 75
Width: 521
VWidth: 999
Flags: HW
HStem: -207 128<183.302 283.126> -10 42<165 314.812> 352 87<376.816 493.25> 638 34<150.053 210.246> 678 20<303.5 330.5>
VStem: 167 135<-188.007 -96.155> 422 128.5<214.948 349.337>
DStem2: 81.7928 -10 203.88 -10 0.207912 0.978148<81.8106 652.519>
LayerCount: 2
Fore
SplineSet
167 -141 m 0
 167 -111 190 -79 237 -79 c 0
 279 -79 302 -115 302 -145 c 0
 302 -171 276 -207 231 -207 c 0
 191 -207 167 -174 167 -141 c 0
266.4 277.6 m 1
 233 127 l 2
 217.8 58.5 224.9 32 261 32 c 0
 337.3 32 422 156 422 301 c 0
 422 319 419 352 389 352 c 0
 341.5 352 312.6 331.4 266.4 277.6 c 1
279.2 335.6 m 1
 281 335 l 1
 316 376 380 439 449 439 c 0
 537.5 439 550.5 368.5 550.5 327.5 c 0
 550.5 225.4 508.8 147.8 426.5 73.5 c 0
 348.5 3 269.5 -10 210 -10 c 0
 120 -10 94.6 54.5 109 118 c 2
 210 563 l 2
 225.7 632.1 210 638 148 638 c 1
 145 647 147 660 153 672 c 1
 196 679 288 698 319 698 c 0
 342 698 349 686 349 665 c 0
 349 645 341.3 615.9 334 583 c 2
 279.2 335.6 l 1
EndSplineSet
LCarets2: 1 0 
EndChar

StartChar: uni1E06
Encoding: 7686 7686 76
Width: 621
VWidth: 999
Flags: HW
HStem: -131 44<114.852 352.363> -2 34<17.6226 87.8263> -2 42<246.416 391.502> 334 42<305 435.928> 605 42<348.798 470.315> 613 34<137.484 194.506>
VStem: 112.4 243.1
DStem2: 94.643 -2 229.72 -2 0.207912 0.978148<81.2166 370.73 413.475 600.98>
LayerCount: 2
Fore
SplineSet
341 562 m 2
 305 376 l 1
 359 376 l 2
 436.6 376 496.1 427.3 496.1 527.9 c 0
 496.1 592 454.4 605 417 605 c 0
 355 605 347 591 341 562 c 2
297 334 m 1
 248 84 l 2
 246.7 77.8 245.8 72.1 245.8 67.2 c 0
 245.8 49.2 257.5 40 303 40 c 0
 441.9 40 483.3 140.3 483.3 228.1 c 0
 483.3 291.8 447.3 334 365 334 c 2
 297 334 l 1
291 645 m 0
 321 645 380 647 428 647 c 0
 592.1 647 630.3 584.7 630.3 523.8 c 0
 630.3 447.9 576.7 389.1 510 361 c 1
 509 359 l 1
 588.8 335.7 624.3 292.5 624.3 228 c 0
 624.3 91.3 531.1 -2 323 -2 c 0
 265 -2 204 0 166 0 c 0
 128 0 18 -2 18 -2 c 1
 14.9 0.3 13.5 5 13.5 10.2 c 0
 13.5 18.6 17.2 28.3 24 32 c 1
 77 35 105 39 121 122 c 2
 199 523 l 2
 202.2 539.4 203.7 552.8 203.7 563.6 c 0
 203.7 607.5 178.7 610.6 137 613 c 1
 134.1 615.2 132.8 619.4 132.8 624.2 c 0
 132.8 632.8 137 643.2 144 647 c 1
 144 647 253 645 291 645 c 0
326.3 -131 m 2
 121.3 -131 l 2
 113.3 -131 111 -123 112.4 -116 c 0
 114.8 -104 128.3 -87 140.3 -87 c 2
 345.3 -87 l 2
 354.3 -87 356.9 -94 355.5 -101 c 0
 353.1 -113 339.3 -131 326.3 -131 c 2
EndSplineSet
LCarets2: 1 0 
EndChar

StartChar: uni1E07
Encoding: 7687 7687 77
Width: 521
VWidth: 999
Flags: HW
HStem: -131 44<104.852 342.363> -10 35<180.183 261.792> 392 47<318.296 395.469> 643 29<158 191> 678 20<284.5 302.5>
VStem: 102.4 243.1 410 82<226.319 378.435>
DStem2: 76.257 -10 151.519 -10 0.21644 0.976296<68.2405 345.757 371.074 637.105>
LayerCount: 2
Fore
SplineSet
316.3 -131 m 2
 111.3 -131 l 2
 103.3 -131 101 -123 102.4 -116 c 0
 104.8 -104 118.3 -87 130.3 -87 c 2
 335.3 -87 l 2
 344.3 -87 346.9 -94 345.5 -101 c 0
 343.1 -113 329.3 -131 316.3 -131 c 2
266.4 277.6 m 1
 233 127 l 2
 217.8 58.5 224.9 32 261 32 c 0
 337.3 32 422 156 422 301 c 0
 422 319 419 352 389 352 c 0
 341.5 352 312.6 331.4 266.4 277.6 c 1
279.2 335.6 m 1
 281 335 l 1
 316 376 380 439 449 439 c 0
 537.5 439 550.5 368.5 550.5 327.5 c 0
 550.5 225.4 508.8 147.8 426.5 73.5 c 0
 348.5 3 269.5 -10 210 -10 c 0
 120 -10 94.6 54.5 109 118 c 2
 210 563 l 2
 225.7 632.1 210 638 148 638 c 1
 145 647 147 660 153 672 c 1
 196 679 288 698 319 698 c 0
 342 698 349 686 349 665 c 0
 349 645 341.3 615.9 334 583 c 2
 279.2 335.6 l 1
EndSplineSet
LCarets2: 1 0 
EndChar

StartChar: uni1E08
Encoding: 7688 7688 78
Width: 675
VWidth: 999
Flags: HW
HStem: -200 29<240.112 342.123> -20 20<328.598 375> -10 52<319.277 487.255> 616 42<413.432 587.14>
VStem: 359.5 63.2<-160.899 -96.8017> 659 43<455.192 539.076>
DStem2: 281.469 -96 336.369 -67 0.52701 0.849859<53.5788 112.96>
LayerCount: 2
Fore
SplineSet
286.4 -101 m 1
 281.3 -95 l 1
 336.5 -8.7 l 1
 263.3 -4 205 14.1 161 53 c 0
 95 111 78 221 96 315 c 0
 139 535 321 658 509 658 c 0
 627 658 663 618 711 613 c 1
 709 558 707 510 702 458 c 1
 690 452 670 449 659 453 c 1
 651 539 623 616 491 616 c 0
 377 616 275 489 245 334 c 0
 215 178 277 42 388 42 c 0
 455 42 538 68 621 146 c 1
 632 146 646 134 649 125 c 1
 566 36 471 -10 378 -10 c 0
 375.7 -10 373.4 -10 371.1 -10 c 1
 353.9 -41 l 1
 398 -50.1 442.6 -70.5 434.9 -125.1 c 0
 427.8 -175.3 370.2 -215 305.4 -215 c 0
 273.4 -215 267.3 -209 243.8 -198 c 1
 245.2 -188 247.7 -176.2 257.4 -172 c 1
 283 -182 293.5 -186 313.5 -186 c 0
 343.5 -186 365.4 -172 369.2 -145 c 0
 374.5 -107.4 322.1 -103 286.4 -101 c 1
EndSplineSet
LCarets2: 1 0 
EndChar

StartChar: uni1E09
Encoding: 7689 7689 79
Width: 434
VWidth: 999
Flags: HW
HStem: -196 29<119.112 221.123> -16 20<207.598 254> -10 76<201.985 320.776> 402 42<280.873 359.003>
VStem: 238.5 63.2<-156.899 -92.8017> 364 110<301.542 398.708>
DStem2: 160.469 -92 215.369 -63 0.52701 0.849859<53.5788 112.96>
LayerCount: 2
Fore
SplineSet
165.4 -97 m 1
 160.3 -91 l 1
 212.6 -9.4 l 1
 159.9 -6.2 126.6 9.4 101 42 c 0
 73 78 64 136 78 201 c 0
 109 349 235 444 345 444 c 0
 446 444 485 394 474 340 c 0
 467 309 441 284 411 284 c 0
 381 284 361 304 364 331 c 0
 368 363 362 402 328 402 c 0
 279 402 234 347 210 236 c 0
 187 128 228 66 289 66 c 0
 323 66 355 81 400 118 c 1
 409 118 421 96 421 87 c 1
 377.3 35.9 306.9 -4 248.2 -9.4 c 1
 232.9 -37 l 1
 277 -46.1 321.6 -66.5 313.9 -121.1 c 0
 306.8 -171.3 249.2 -211 184.4 -211 c 0
 152.4 -211 146.3 -205 122.8 -194 c 1
 124.2 -184 126.7 -172.2 136.4 -168 c 1
 162 -178 172.5 -182 192.5 -182 c 0
 222.5 -182 244.4 -168 248.2 -141 c 0
 253.5 -103.4 201.1 -99 165.4 -97 c 1
399.7 674 m 1
 402.8 675 411 676 416 676 c 0
 446 676 463 662 469.6 652 c 1
 476.4 629 l 1
 341.2 521 l 2
 325.5 509 311 505 301 505 c 0
 293 505 286.2 513 287 519 c 0
 287.8 525 291 534 298.3 543 c 2
 399.7 674 l 1
EndSplineSet
LCarets2: 1 0 
EndChar

StartChar: uni1E0A
Encoding: 7690 7690 80
Width: 698
VWidth: 999
Flags: HW
HStem: -2 34<29.4836 99.8263> -2 42<269.985 418.584> 604 41<370.494 511.834> 613 34<148.484 206.03> 709 124<398.2 491.8>
VStem: 383 124<724.2 817.8>
DStem2: 106.643 -2 241.281 -2 0.207912 0.978148<92.3304 599.644>
LayerCount: 2
Fore
SplineSet
383 771 m 0
 383 805 411 833 445 833 c 0
 479 833 507 805 507 771 c 0
 507 737 479 709 445 709 c 0
 411 709 383 737 383 771 c 0
267 119 m 2
 264.6 106.9 263.4 96.6 263.4 87.8 c 0
 263.4 48.1 288.1 40 343 40 c 0
 460.6 40 584.6 204.3 584.6 426.3 c 0
 584.6 524.7 549.4 604 420 604 c 0
 385 604 357 584 346 529 c 2
 267 119 l 2
177 0 m 0
 139 0 29 -2 29 -2 c 1
 26.1 0.2 24.8 4.4 24.8 9.2 c 0
 24.8 17.8 29 28.2 36 32 c 1
 89 35 117 39 133 122 c 2
 211 523 l 2
 214.1 539.1 215.6 552.2 215.6 562.9 c 0
 215.6 607.5 189.9 610.6 148 613 c 1
 145.1 615.2 143.8 619.4 143.8 624.2 c 0
 143.8 632.8 148 643.2 155 647 c 1
 155 647 265 645 303 645 c 0
 341 645 381 646 432 646 c 0
 633.8 646 725.9 534.9 725.9 387.1 c 0
 725.9 252.6 660.7 132.3 596 82 c 0
 516 20 416 -2 332 -2 c 0
 294 -2 215 0 177 0 c 0
EndSplineSet
LCarets2: 1 0 
EndChar

StartChar: uni1E0B
Encoding: 7691 7691 81
Width: 561
VWidth: 999
Flags: HW
HStem: -10 66<139 247.453> -10 76<367.055 473.715> 393 46<270.569 369.14> 448.7 120.3<224.415 320.512> 638 34<385.053 445.246> 678 20<538.5 565.5>
VStem: 58 121<63.9681 233.486> 210.1 126.9<465.536 553.931> 334.3 127.1<22.684 168.211>
DStem2: 316.793 -10 438.88 -10 0.207912 0.978148<122.813 652.52>
LayerCount: 2
Fore
SplineSet
445 563 m 2
 461 632 445 638 383 638 c 1
 380 647 382 660 388 672 c 1
 431 679 523 698 554 698 c 0
 577 698 584 686 584 665 c 0
 584 645 576 616 569 583 c 2
 468 127 l 2
 464.9 113.2 461.4 96.6 461.4 84.2 c 0
 461.4 73.5 464 66 472 66 c 0
 482 66 516 83 542 113 c 1
 556 113 568 94 571 85 c 1
 521 30 454.5 -10 385 -10 c 0
 349.1 -10 334.3 12.7 334.3 47.1 c 0
 334.3 67.4 338.8 94.7 343.8 117.1 c 1
 342 118 l 1
 282 30 235 -10 178 -10 c 0
 90 -10 58 51 58 124 c 0
 58 213.1 102 321 188 389 c 0
 233.1 424.6 272 439 325 439 c 0
 363 439 392 414 404 384 c 1
 404.4 384 l 1
 445 563 l 2
211 527 m 0
 211 557 234 589 281 589 c 0
 323 589 346 553 346 523 c 0
 346 497 320 461 275 461 c 0
 235 461 211 494 211 527 c 0
382.5 281.8 m 2
 384.2 288.3 385.5 294.2 386.4 299.6 c 2
 382.5 281.8 l 2
377.2 264.1 m 1
 387.8 311.1 l 2
 387.9 312.8 388 314.5 388 316 c 0
 388 351 366 393 328 393 c 0
 242 393 179 256 179 150 c 0
 179 94 191 56 220 56 c 0
 259 56 297 104 346 194 c 0
 360 219.6 370.3 243.6 377.2 264.1 c 1
EndSplineSet
LCarets2: 1 0 
EndChar

StartChar: uni1E0C
Encoding: 7692 7692 82
Width: 698
VWidth: 999
Flags: HW
HStem: -237.3 120.3<203.415 299.512> -2 34<29.4836 99.8263> -2 42<269.985 418.584> 604 41<370.494 511.834> 613 34<148.484 206.03>
VStem: 189.1 126.9<-220.464 -132.069>
DStem2: 106.643 -2 241.281 -2 0.207912 0.978148<92.3304 599.644>
LayerCount: 2
Fore
SplineSet
267 119 m 2
 264.6 106.9 263.4 96.6 263.4 87.8 c 0
 263.4 48.1 288.1 40 343 40 c 0
 460.6 40 584.6 204.3 584.6 426.3 c 0
 584.6 524.7 549.4 604 420 604 c 0
 385 604 357 584 346 529 c 2
 267 119 l 2
177 0 m 0
 139 0 29 -2 29 -2 c 1
 26.1 0.2 24.8 4.4 24.8 9.2 c 0
 24.8 17.8 29 28.2 36 32 c 1
 89 35 117 39 133 122 c 2
 211 523 l 2
 214.1 539.1 215.6 552.2 215.6 562.9 c 0
 215.6 607.5 189.9 610.6 148 613 c 1
 145.1 615.2 143.8 619.4 143.8 624.2 c 0
 143.8 632.8 148 643.2 155 647 c 1
 155 647 265 645 303 645 c 0
 341 645 381 646 432 646 c 0
 633.8 646 725.9 534.9 725.9 387.1 c 0
 725.9 252.6 660.7 132.3 596 82 c 0
 516 20 416 -2 332 -2 c 0
 294 -2 215 0 177 0 c 0
190 -159 m 0
 190 -129 213 -97 260 -97 c 0
 302 -97 325 -133 325 -163 c 0
 325 -189 299 -225 254 -225 c 0
 214 -225 190 -192 190 -159 c 0
EndSplineSet
LCarets2: 1 0 
EndChar

StartChar: uni1E0D
Encoding: 7693 7693 83
Width: 561
VWidth: 999
Flags: HW
HStem: -237.3 120.3<128.415 224.512> -10 66<139 247.453> -10 76<367.055 473.715> 393 46<270.569 369.14> 638 34<385.053 445.246> 678 20<538.5 565.5>
VStem: 58 121<63.9681 233.486> 114.1 126.9<-220.464 -132.069> 334.3 127.1<22.684 168.211>
DStem2: 316.793 -10 438.88 -10 0.207912 0.978148<122.813 652.52>
LayerCount: 2
Fore
SplineSet
445 563 m 2
 461 632 445 638 383 638 c 1
 380 647 382 660 388 672 c 1
 431 679 523 698 554 698 c 0
 577 698 584 686 584 665 c 0
 584 645 576 616 569 583 c 2
 468 127 l 2
 464.9 113.2 461.4 96.6 461.4 84.2 c 0
 461.4 73.5 464 66 472 66 c 0
 482 66 516 83 542 113 c 1
 556 113 568 94 571 85 c 1
 521 30 454.5 -10 385 -10 c 0
 349.1 -10 334.3 12.7 334.3 47.1 c 0
 334.3 67.4 338.8 94.7 343.8 117.1 c 1
 342 118 l 1
 282 30 235 -10 178 -10 c 0
 90 -10 58 51 58 124 c 0
 58 213.1 102 321 188 389 c 0
 233.1 424.6 272 439 325 439 c 0
 363 439 392 414 404 384 c 1
 404.4 384 l 1
 445 563 l 2
115 -159 m 0
 115 -129 138 -97 185 -97 c 0
 227 -97 250 -133 250 -163 c 0
 250 -189 224 -225 179 -225 c 0
 139 -225 115 -192 115 -159 c 0
382.5 281.8 m 2
 384.2 288.3 385.5 294.2 386.4 299.6 c 2
 382.5 281.8 l 2
377.2 264.1 m 1
 387.8 311.1 l 2
 387.9 312.8 388 314.5 388 316 c 0
 388 351 366 393 328 393 c 0
 242 393 179 256 179 150 c 0
 179 94 191 56 220 56 c 0
 259 56 297 104 346 194 c 0
 360 219.6 370.3 243.6 377.2 264.1 c 1
EndSplineSet
LCarets2: 1 0 
EndChar

StartChar: uni1E0E
Encoding: 7694 7694 84
Width: 698
VWidth: 999
Flags: HW
HStem: -131 44<141.852 379.363> -2 34<29.4836 99.8263> -2 42<269.985 418.584> 604 41<370.494 511.834> 613 34<148.484 206.03>
VStem: 139.4 243.1
DStem2: 106.643 -2 241.281 -2 0.207912 0.978148<92.3304 599.644>
LayerCount: 2
Fore
SplineSet
267 119 m 2
 264.6 106.9 263.4 96.6 263.4 87.8 c 0
 263.4 48.1 288.1 40 343 40 c 0
 460.6 40 584.6 204.3 584.6 426.3 c 0
 584.6 524.7 549.4 604 420 604 c 0
 385 604 357 584 346 529 c 2
 267 119 l 2
177 0 m 0
 139 0 29 -2 29 -2 c 1
 26.1 0.2 24.8 4.4 24.8 9.2 c 0
 24.8 17.8 29 28.2 36 32 c 1
 89 35 117 39 133 122 c 2
 211 523 l 2
 214.1 539.1 215.6 552.2 215.6 562.9 c 0
 215.6 607.5 189.9 610.6 148 613 c 1
 145.1 615.2 143.8 619.4 143.8 624.2 c 0
 143.8 632.8 148 643.2 155 647 c 1
 155 647 265 645 303 645 c 0
 341 645 381 646 432 646 c 0
 633.8 646 725.9 534.9 725.9 387.1 c 0
 725.9 252.6 660.7 132.3 596 82 c 0
 516 20 416 -2 332 -2 c 0
 294 -2 215 0 177 0 c 0
353.3 -131 m 2
 148.3 -131 l 2
 140.3 -131 138 -123 139.4 -116 c 0
 141.8 -104 155.3 -87 167.3 -87 c 2
 372.3 -87 l 2
 381.3 -87 383.9 -94 382.5 -101 c 0
 380.1 -113 366.3 -131 353.3 -131 c 2
EndSplineSet
LCarets2: 1 0 
EndChar

StartChar: uni1E0F
Encoding: 7695 7695 85
Width: 561
VWidth: 999
Flags: HW
HStem: -131 44<92.8523 330.363> -10 66<139 247.453> -10 76<367.055 473.715> 393 46<270.569 369.14> 638 34<385.053 445.246> 678 20<538.5 565.5>
VStem: 58 121<63.9681 233.486> 90.4 243.1 334.3 127.1<22.684 168.211>
DStem2: 316.793 -10 438.88 -10 0.207912 0.978148<122.813 652.52>
LayerCount: 2
Fore
SplineSet
445 563 m 2
 461 632 445 638 383 638 c 1
 380 647 382 660 388 672 c 1
 431 679 523 698 554 698 c 0
 577 698 584 686 584 665 c 0
 584 645 576 616 569 583 c 2
 468 127 l 2
 464.9 113.2 461.4 96.6 461.4 84.2 c 0
 461.4 73.5 464 66 472 66 c 0
 482 66 516 83 542 113 c 1
 556 113 568 94 571 85 c 1
 521 30 454.5 -10 385 -10 c 0
 349.1 -10 334.3 12.7 334.3 47.1 c 0
 334.3 67.4 338.8 94.7 343.8 117.1 c 1
 342 118 l 1
 282 30 235 -10 178 -10 c 0
 90 -10 58 51 58 124 c 0
 58 213.1 102 321 188 389 c 0
 233.1 424.6 272 439 325 439 c 0
 363 439 392 414 404 384 c 1
 404.4 384 l 1
 445 563 l 2
304.3 -131 m 2
 99.3 -131 l 2
 91.3 -131 89 -123 90.4 -116 c 0
 92.8 -104 106.3 -87 118.3 -87 c 2
 323.3 -87 l 2
 332.3 -87 334.9 -94 333.5 -101 c 0
 331.1 -113 317.3 -131 304.3 -131 c 2
382.5 281.8 m 2
 384.2 288.3 385.5 294.2 386.4 299.6 c 2
 382.5 281.8 l 2
377.2 264.1 m 1
 387.8 311.1 l 2
 387.9 312.8 388 314.5 388 316 c 0
 388 351 366 393 328 393 c 0
 242 393 179 256 179 150 c 0
 179 94 191 56 220 56 c 0
 259 56 297 104 346 194 c 0
 360 219.6 370.3 243.6 377.2 264.1 c 1
EndSplineSet
LCarets2: 1 0 
EndChar

StartChar: uni1E10
Encoding: 7696 7696 86
Width: 698
Flags: HW
HStem: -226 24<271.315 301.976> -123 82<276.324 341.34> -2 34<15.9238 91.0861 203.681 417.647> 613 34<15.9238 91.0861 206.921 373.9>
VStem: 106 85<43.9064 600.097> 343 39<-177.408 -99.958> 562 96<179.249 422.825>
LayerCount: 2
Fore
SplineSet
267 119 m 2
 264.6 106.9 263.4 96.6 263.4 87.8 c 0
 263.4 48.1 288.1 40 343 40 c 0
 460.6 40 584.6 204.3 584.6 426.3 c 0
 584.6 524.7 549.4 604 420 604 c 0
 385 604 357 584 346 529 c 2
 267 119 l 2
177 0 m 0
 139 0 29 -2 29 -2 c 1
 26.1 0.2 24.8 4.4 24.8 9.2 c 0
 24.8 17.8 29 28.2 36 32 c 1
 89 35 117 39 133 122 c 2
 211 523 l 2
 214.1 539.1 215.6 552.2 215.6 562.9 c 0
 215.6 607.5 189.9 610.6 148 613 c 1
 145.1 615.2 143.8 619.4 143.8 624.2 c 0
 143.8 632.8 148 643.2 155 647 c 1
 155 647 265 645 303 645 c 0
 341 645 381 646 432 646 c 0
 633.8 646 725.9 534.9 725.9 387.1 c 0
 725.9 252.6 660.7 132.3 596 82 c 0
 516 20 416 -2 332 -2 c 0
 294 -2 215 0 177 0 c 0
329.1 -51 m 0
 361.1 -51 399.1 -66 390.2 -129 c 0
 382.2 -186 324.6 -226 254.9 -238 c 1
 245.7 -232 247.1 -222 252.8 -210 c 1
 294.3 -199 322.7 -175 325.2 -157 c 0
 328 -137 307.2 -136 299.5 -134 c 0
 278.2 -129 269.3 -114 272.8 -89 c 0
 275.2 -72 306.1 -51 329.1 -51 c 0
EndSplineSet
LCarets2: 1 0 
EndChar

StartChar: uni1E11
Encoding: 7697 7697 87
Width: 561
VWidth: 999
Flags: HW
HStem: -10 47<182.748 279.881> 30 27<444.892 500.639> 404 35<187.076 307.036> 641 30<277.065 335.38> 678 20<402.5 419.5>
VStem: 39 86<108.084 310.695> 345 79<80.6055 373.206 422.001 635.885>
LayerCount: 2
Fore
SplineSet
445 563 m 2
 461 632 445 638 383 638 c 1
 380 647 382 660 388 672 c 1
 431 679 523 698 554 698 c 0
 577 698 584 686 584 665 c 0
 584 645 576 616 569 583 c 2
 468 127 l 2
 464.9 113.2 461.3 96.6 461.3 84.2 c 0
 461.3 73.5 464 66 472 66 c 0
 482 66 516 83 542 113 c 1
 556 113 568 94 571 85 c 1
 521 30 454.5 -10 385 -10 c 0
 349.1 -10 334.3 12.7 334.3 47.1 c 0
 334.3 67.4 338.8 94.7 343.8 117.1 c 1
 342 118 l 1
 282 30 235 -10 178 -10 c 0
 90 -10 58 51 58 124 c 0
 58 213.1 102 321 188 389 c 0
 233.1 424.6 272 439 325 439 c 0
 363 439 392 414 404 384 c 1
 404.4 384 l 1
 445 563 l 2
239.1 -51 m 0
 271.1 -51 309.1 -66 300.2 -129 c 0
 292.2 -186 234.6 -226 164.9 -238 c 1
 155.7 -232 157.1 -222 162.8 -210 c 1
 204.3 -199 232.7 -175 235.2 -157 c 0
 238 -137 217.2 -136 209.5 -134 c 0
 188.2 -129 179.3 -114 182.8 -89 c 0
 185.2 -72 216.1 -51 239.1 -51 c 0
382.5 281.8 m 2
 384.2 288.3 385.5 294.2 386.4 299.6 c 2
 382.5 281.8 l 2
377.2 264.1 m 1
 387.8 311.1 l 2
 387.9 312.8 388 314.5 388 316 c 0
 388 351 366 393 328 393 c 0
 242 393 179 256 179 150 c 0
 179 94 191 56 220 56 c 0
 259 56 297 104 346 194 c 0
 360 219.6 370.3 243.6 377.2 264.1 c 1
EndSplineSet
LCarets2: 1 0 
EndChar

StartChar: uni1E12
Encoding: 7698 7698 88
Width: 698
VWidth: 999
Flags: HW
HStem: -2 34<29.4836 99.8263> -2 42<269.985 418.584> 604 41<370.494 511.834> 613 34<148.484 206.03>
VStem: 0 253<-186 -186>
DStem2: 106.643 -2 241.281 -2 0.207912 0.978148<92.3304 599.644>
LayerCount: 2
Fore
SplineSet
267 119 m 2
 264.6 106.9 263.4 96.6 263.4 87.8 c 0
 263.4 48.1 288.1 40 343 40 c 0
 460.6 40 584.6 204.3 584.6 426.3 c 0
 584.6 524.7 549.4 604 420 604 c 0
 385 604 357 584 346 529 c 2
 267 119 l 2
177 0 m 0
 139 0 29 -2 29 -2 c 1
 26.1 0.2 24.8 4.4 24.8 9.2 c 0
 24.8 17.8 29 28.2 36 32 c 1
 89 35 117 39 133 122 c 2
 211 523 l 2
 214.1 539.1 215.6 552.2 215.6 562.9 c 0
 215.6 607.5 189.9 610.6 148 613 c 1
 145.1 615.2 143.8 619.4 143.8 624.2 c 0
 143.8 632.8 148 643.2 155 647 c 1
 155 647 265 645 303 645 c 0
 341 645 381 646 432 646 c 0
 633.8 646 725.9 534.9 725.9 387.1 c 0
 725.9 252.6 660.7 132.3 596 82 c 0
 516 20 416 -2 332 -2 c 0
 294 -2 215 0 177 0 c 0
287.9 -57 m 1
 307.3 -104 334.8 -146 362.7 -186 c 1
 338.8 -200 l 1
 305.7 -171 277.8 -146 251.1 -110 c 1
 206.4 -148 169.3 -173 125.8 -200 c 1
 108.7 -186 l 1
 152.8 -146 199.5 -103 237.9 -57 c 1
 287.9 -57 l 1
EndSplineSet
LCarets2: 1 0 
EndChar

StartChar: uni1E13
Encoding: 7699 7699 89
Width: 561
VWidth: 999
Flags: HW
HStem: -10 66<139 247.453> -10 76<367.055 473.715> 393 46<270.569 369.14> 638 34<385.053 445.246> 678 20<538.5 565.5>
VStem: -71 253<-186 -186> 58 121<63.9681 233.486> 334.3 127.1<22.684 168.211>
DStem2: 316.793 -10 438.88 -10 0.207912 0.978148<122.813 652.52>
LayerCount: 2
Fore
SplineSet
445 563 m 2
 461 632 445 638 383 638 c 1
 380 647 382 660 388 672 c 1
 431 679 523 698 554 698 c 0
 577 698 584 686 584 665 c 0
 584 645 576 616 569 583 c 2
 468 127 l 2
 464.9 113.2 461.4 96.6 461.4 84.2 c 0
 461.4 73.5 464 66 472 66 c 0
 482 66 516 83 542 113 c 1
 556 113 568 94 571 85 c 1
 521 30 454.5 -10 385 -10 c 0
 349.1 -10 334.3 12.7 334.3 47.1 c 0
 334.3 67.4 338.8 94.7 343.8 117.1 c 1
 342 118 l 1
 282 30 235 -10 178 -10 c 0
 90 -10 58 51 58 124 c 0
 58 213.1 102 321 188 389 c 0
 233.1 424.6 272 439 325 439 c 0
 363 439 392 414 404 384 c 1
 404.4 384 l 1
 445 563 l 2
216.9 -57 m 1
 236.3 -104 263.8 -146 291.7 -186 c 1
 267.8 -200 l 1
 234.7 -171 206.8 -146 180.1 -110 c 1
 135.4 -148 98.3 -173 54.8 -200 c 1
 37.7 -186 l 1
 81.8 -146 128.5 -103 166.9 -57 c 1
 216.9 -57 l 1
382.5 281.8 m 2
 384.2 288.3 385.5 294.2 386.4 299.6 c 2
 382.5 281.8 l 2
377.2 264.1 m 1
 387.8 311.1 l 2
 387.9 312.8 388 314.5 388 316 c 0
 388 351 366 393 328 393 c 0
 242 393 179 256 179 150 c 0
 179 94 191 56 220 56 c 0
 259 56 297 104 346 194 c 0
 360 219.6 370.3 243.6 377.2 264.1 c 1
EndSplineSet
LCarets2: 1 0 
EndChar

StartChar: uni1E14
Encoding: 7700 7700 90
Width: 578
VWidth: 999
Flags: HW
HStem: 0 32<11.5107 86> 0 42<246.758 443.249> 317 50<299 437.63> 603 42<348.077 529.294> 613 34<131.418 193.52> 725.5 105.6 765 44<278.19 556.349>
VStem: 76.4 154 275.5 284.1 442 41<252.086 308.175> 476 41<386.398 431.914> 558 42<498.51 571.52>
DStem2: 90.643 -2 225.445 -2 0.207912 0.978148<84.0828 353.27 404.256 603.994>
LayerCount: 2
Fore
SplineSet
338.8 953.4 m 1
 318.3 942.8 295.1 923.5 282.8 905 c 1
 283.8 894.4 l 1
 388.4 843.4 l 2
 398.5 838.1 407.7 837.2 414.6 837.2 c 0
 421.5 837.2 430.7 843.4 431.6 850.4 c 0
 432.4 856.6 433 861.9 426.2 868.9 c 0
 412 884.7 366.6 928.8 338.8 953.4 c 1
377 367 m 2
 441 367 462 374 476 429 c 1
 483 435 512 435 517 429 c 1
 510 399 506 377 499 343 c 0
 492 309 489 290 483 255 c 1
 476 249 447 249 442 255 c 1
 448 300 433 317 367 317 c 2
 289 317 l 1
 245 90 l 2
 240 63 254 42 275 42 c 2
 372 42 l 2
 445 42 499 98 532 170 c 1
 545 173 565 171 574 165 c 1
 556 114 539 48 516 -2 c 1
 516 -2 430 0 384 0 c 2
 158 0 l 1
 158 0 56 -1 9 -2 c 1
 4 4 9 26 16 32 c 1
 84 35 101 39 117 122 c 2
 194 522 l 2
 210 605 196 610 129 613 c 1
 124 619 128 641 135 647 c 1
 183 646 283 645 283 645 c 1
 566 645 l 2
 589 645 597 646 614 649 c 0
 617 649 617 648 617 646 c 0
 617 638 603 542 600 501 c 1
 590 496 570 494 558 496 c 1
 550 565 538 603 466 603 c 2
 384 603 l 2
 361 603 340 578 335 554 c 2
 299 367 l 1
 377 367 l 2
529.5 765 m 2
 285.5 765 l 2
 276.5 765 274.1 773 275.5 780 c 0
 277.9 792 292.4 809 303.4 809 c 2
 548.4 809 l 2
 558.4 809 560.8 801 559.6 795 c 0
 557.2 783 542.5 765 529.5 765 c 2
EndSplineSet
LCarets2: 1 0 
EndChar

StartChar: uni1E15
Encoding: 7701 7701 91
Width: 409
VWidth: 999
Flags: HW
HStem: -10 60<146 300.921> 398 41<260.895 338.914> 539 44<194.19 472.349>
VStem: 60 129<65.8545 229.761> 191.5 284.1 340 113<302.909 396.682>
LayerCount: 2
Fore
SplineSet
343 370 m 0
 343 390 332 398 311 398 c 0
 272 398 234.3 378 200 237.3 c 1
 253 246 343 280 343 370 c 0
193 199 m 1
 192 191 192 170 192 165 c 0
 192 98 206 50 245 50 c 0
 293 50 324 66 381 124 c 1
 393 124 408 110 413 99 c 1
 354 23 276 -10 209 -10 c 0
 89 -10 63 57 63 142 c 0
 63 269 140 439 334 439 c 0
 415 439 456 404 456 369 c 0
 456 351.2 455.5 317.2 425 288 c 0
 390.6 255 319.2 226.1 193 199 c 1
445.5 538 m 2
 201.5 538 l 2
 192.5 538 190.1 546 191.5 553 c 0
 193.9 565 208.4 582 219.4 582 c 2
 464.4 582 l 2
 474.4 582 476.8 574 475.6 568 c 0
 473.2 556 458.5 538 445.5 538 c 2
327.4 764.6 m 1
 368.7 653 l 2
 371.1 646.7 373.9 636.8 373 629.6 c 0
 372 621.5 364.8 615.2 357.6 615.2 c 0
 351.2 615.2 343.7 619.7 331.8 633.2 c 2
 246.8 727.7 l 1
 249.6 737.6 l 1
 257 745.7 282.8 766.4 311.6 766.4 c 0
 315.6 766.4 324.3 765.5 327.4 764.6 c 1
EndSplineSet
EndChar

StartChar: uni1E16
Encoding: 7702 7702 92
Width: 578
VWidth: 999
Flags: HW
HStem: 0 32<11.5107 86> 0 42<246.758 443.249> 317 50<299 437.63> 603 42<348.077 529.294> 613 34<131.418 193.52> 724.5 105.6 765 44<221.19 499.349>
VStem: 218.5 284.1 442 41<252.086 308.175> 476 41<386.398 431.914> 531.3 174.8 558 42<498.51 571.52>
DStem2: 90.643 -2 225.445 -2 0.207912 0.978148<84.0828 353.27 404.256 603.994>
LayerCount: 2
Fore
SplineSet
462.3 955 m 1
 480.2 944.8 498.7 924.7 506.4 906.6 c 1
 502.7 896.1 l 1
 385.6 845 l 2
 373.8 839.9 364.8 838.9 357.9 838.9 c 0
 351 838.9 343.2 845.1 344.1 852.1 c 0
 344.9 858.3 345.7 863.3 354.1 870.6 c 0
 372.2 886.4 428.5 930.4 462.3 955 c 1
377 367 m 2
 441 367 462 374 476 429 c 1
 483 435 512 435 517 429 c 1
 510 399 506 377 499 343 c 0
 492 309 489 290 483 255 c 1
 476 249 447 249 442 255 c 1
 448 300 433 317 367 317 c 2
 289 317 l 1
 245 90 l 2
 240 63 254 42 275 42 c 2
 372 42 l 2
 445 42 499 98 532 170 c 1
 545 173 565 171 574 165 c 1
 556 114 539 48 516 -2 c 1
 516 -2 430 0 384 0 c 2
 158 0 l 1
 158 0 56 -1 9 -2 c 1
 4 4 9 26 16 32 c 1
 84 35 101 39 117 122 c 2
 194 522 l 2
 210 605 196 610 129 613 c 1
 124 619 128 641 135 647 c 1
 183 646 283 645 283 645 c 1
 566 645 l 2
 589 645 597 646 614 649 c 0
 617 649 617 648 617 646 c 0
 617 638 603 542 600 501 c 1
 590 496 570 494 558 496 c 1
 550 565 538 603 466 603 c 2
 384 603 l 2
 361 603 340 578 335 554 c 2
 299 367 l 1
 377 367 l 2
522.5 765 m 2
 278.5 765 l 2
 269.5 765 267.1 773 268.5 780 c 0
 270.9 792 285.4 809 296.4 809 c 2
 541.4 809 l 2
 551.4 809 553.8 801 552.6 795 c 0
 550.2 783 535.5 765 522.5 765 c 2
EndSplineSet
LCarets2: 1 0 
EndChar

StartChar: uni1E17
Encoding: 7703 7703 93
Width: 409
VWidth: 999
Flags: HW
HStem: -10 60<146 300.921> 398 41<260.895 338.914> 539 44<194.19 472.349>
VStem: 60 129<65.8545 229.761> 191.5 284.1 340 113<302.909 396.682>
LayerCount: 2
Fore
SplineSet
343 370 m 0
 343 390 332 398 311 398 c 0
 272 398 234.3 378 200 237.3 c 1
 253 246 343 280 343 370 c 0
193 199 m 1
 192 191 192 170 192 165 c 0
 192 98 206 50 245 50 c 0
 293 50 324 66 381 124 c 1
 393 124 408 110 413 99 c 1
 354 23 276 -10 209 -10 c 0
 89 -10 63 57 63 142 c 0
 63 269 140 439 334 439 c 0
 415 439 456 404 456 369 c 0
 456 351.2 455.5 317.2 425 288 c 0
 390.6 255 319.2 226.1 193 199 c 1
445.5 538 m 2
 201.5 538 l 2
 192.5 538 190.1 546 191.5 553 c 0
 193.9 565 208.4 582 219.4 582 c 2
 464.4 582 l 2
 474.4 582 476.8 574 475.6 568 c 0
 473.2 556 458.5 538 445.5 538 c 2
373.4 778.6 m 1
 375.9 779.5 382.4 780.4 386.4 780.4 c 0
 410.4 780.4 424 767.8 429.3 758.8 c 1
 434.7 738.1 l 1
 326.6 640.9 l 2
 314.1 630.1 302.4 626.5 294.4 626.5 c 0
 288 626.5 282.5 633.7 283.2 639.1 c 0
 283.9 644.5 286.5 652.6 292.3 660.7 c 2
 373.4 778.6 l 1
EndSplineSet
EndChar

StartChar: uni1E18
Encoding: 7704 7704 94
Width: 578
VWidth: 999
Flags: HW
HStem: 0 32<11.5107 86> 0 42<246.758 443.249> 317 50<299 437.63> 603 42<348.077 529.294> 613 34<131.418 193.52>
VStem: -22 253<-186 -186> 442 41<252.086 308.175> 476 41<386.398 431.914> 558 42<498.51 571.52>
DStem2: 90.643 -2 225.445 -2 0.207912 0.978148<84.0828 353.27 404.256 603.994>
LayerCount: 2
Fore
SplineSet
377 367 m 2
 441 367 462 374 476 429 c 1
 483 435 512 435 517 429 c 1
 510 399 506 377 499 343 c 0
 492 309 489 290 483 255 c 1
 476 249 447 249 442 255 c 1
 448 300 433 317 367 317 c 2
 289 317 l 1
 245 90 l 2
 240 63 254 42 275 42 c 2
 372 42 l 2
 445 42 499 98 532 170 c 1
 545 173 565 171 574 165 c 1
 556 114 539 48 516 -2 c 1
 516 -2 430 0 384 0 c 2
 158 0 l 1
 158 0 56 -1 9 -2 c 1
 4 4 9 26 16 32 c 1
 84 35 101 39 117 122 c 2
 194 522 l 2
 210 605 196 610 129 613 c 1
 124 619 128 641 135 647 c 1
 183 646 283 645 283 645 c 1
 566 645 l 2
 589 645 597 646 614 649 c 0
 617 649 617 648 617 646 c 0
 617 638 603 542 600 501 c 1
 590 496 570 494 558 496 c 1
 550 565 538 603 466 603 c 2
 384 603 l 2
 361 603 340 578 335 554 c 2
 299 367 l 1
 377 367 l 2
265.9 -57 m 1
 285.3 -104 312.8 -146 340.7 -186 c 1
 316.8 -200 l 1
 283.7 -171 255.8 -146 229.1 -110 c 1
 184.4 -148 147.3 -173 103.8 -200 c 1
 86.7 -186 l 1
 130.8 -146 177.5 -103 215.9 -57 c 1
 265.9 -57 l 1
EndSplineSet
LCarets2: 1 0 
EndChar

StartChar: uni1E19
Encoding: 7705 7705 95
Width: 409
VWidth: 999
Flags: HW
HStem: -10 60<146 300.921> 398 41<260.895 338.914>
VStem: -65 253<-186 -186> 60 129<65.8545 229.761> 340 113<302.909 396.682>
LayerCount: 2
Fore
SplineSet
343 370 m 0
 343 390 332 398 311 398 c 0
 272 398 234.3 378 200 237.3 c 1
 253 246 343 280 343 370 c 0
193 199 m 1
 192 191 192 170 192 165 c 0
 192 98 206 50 245 50 c 0
 293 50 324 66 381 124 c 1
 393 124 408 110 413 99 c 1
 354 23 276 -10 209 -10 c 0
 89 -10 63 57 63 142 c 0
 63 269 140 439 334 439 c 0
 415 439 456 404 456 369 c 0
 456 351.2 455.5 317.2 425 288 c 0
 390.6 255 319.2 226.1 193 199 c 1
222.9 -57 m 1
 242.3 -104 269.8 -146 297.7 -186 c 1
 273.8 -200 l 1
 240.7 -171 212.8 -146 186.1 -110 c 1
 141.4 -148 104.3 -173 60.8 -200 c 1
 43.7 -186 l 1
 87.8 -146 134.5 -103 172.9 -57 c 1
 222.9 -57 l 1
EndSplineSet
LCarets2: 1 0 
EndChar

StartChar: uni1E1A
Encoding: 7706 7706 96
Width: 578
VWidth: 999
Flags: HW
HStem: -164 44<85 172> -116 46<-33 58> -77 10 0 32<11.5107 86> 0 42<246.758 443.249> 317 50<299 437.63> 603 42<348.077 529.294> 613 34<131.418 193.52>
VStem: 442 41<252.086 308.175> 476 41<386.398 431.914> 558 42<498.51 571.52>
DStem2: 90.643 -2 225.445 -2 0.207912 0.978148<84.0828 353.27 404.256 603.994>
LayerCount: 2
Fore
SplineSet
377 367 m 2
 441 367 462 374 476 429 c 1
 483 435 512 435 517 429 c 1
 510 399 506 377 499 343 c 0
 492 309 489 290 483 255 c 1
 476 249 447 249 442 255 c 1
 448 300 433 317 367 317 c 2
 289 317 l 1
 245 90 l 2
 240 63 254 42 275 42 c 2
 372 42 l 2
 445 42 499 98 532 170 c 1
 545 173 565 171 574 165 c 1
 556 114 539 48 516 -2 c 1
 516 -2 430 0 384 0 c 2
 158 0 l 1
 158 0 56 -1 9 -2 c 1
 4 4 9 26 16 32 c 1
 84 35 101 39 117 122 c 2
 194 522 l 2
 210 605 196 610 129 613 c 1
 124 619 128 641 135 647 c 1
 183 646 283 645 283 645 c 1
 566 645 l 2
 589 645 597 646 614 649 c 0
 617 649 617 648 617 646 c 0
 617 638 603 542 600 501 c 1
 590 496 570 494 558 496 c 1
 550 565 538 603 466 603 c 2
 384 603 l 2
 361 603 340 578 335 554 c 2
 299 367 l 1
 377 367 l 2
261.7 -120 m 0
 283.7 -120 299.8 -110 322.3 -68 c 1
 345.1 -74 l 1
 320.9 -134 285.8 -164 239.8 -164 c 0
 217.8 -164 199.3 -152 181.1 -138 c 0
 165.3 -127 148.5 -116 131.5 -116 c 0
 105.5 -116 89.5 -131 72.8 -164 c 1
 49.8 -159 l 1
 75.8 -100 104.9 -70 147.9 -70 c 0
 177.9 -70 197 -84 214.2 -98 c 0
 227.8 -110 242.7 -120 261.7 -120 c 0
EndSplineSet
LCarets2: 1 0 
EndChar

StartChar: uni1E1B
Encoding: 7707 7707 97
Width: 409
VWidth: 999
Flags: HW
HStem: -162 44<77 164> -114 46<-41 50> -75 10 -10 60<146 300.921> 398 41<260.895 338.914>
VStem: 60 129<65.8545 229.761> 340 113<302.909 396.682>
LayerCount: 2
Fore
SplineSet
343 370 m 0
 343 390 332 398 311 398 c 0
 272 398 234.3 378 200 237.3 c 1
 253 246 343 280 343 370 c 0
193 199 m 1
 192 191 192 170 192 165 c 0
 192 98 206 50 245 50 c 0
 293 50 324 66 381 124 c 1
 393 124 408 110 413 99 c 1
 354 23 276 -10 209 -10 c 0
 89 -10 63 57 63 142 c 0
 63 269 140 439 334 439 c 0
 415 439 456 404 456 369 c 0
 456 351.2 455.5 317.2 425 288 c 0
 390.6 255 319.2 226.1 193 199 c 1
253.7 -118 m 0
 275.7 -118 291.8 -108 314.3 -66 c 1
 337.1 -72 l 1
 312.9 -132 277.8 -162 231.8 -162 c 0
 209.8 -162 191.3 -150 173.1 -136 c 0
 157.3 -125 140.5 -114 123.5 -114 c 0
 97.5 -114 81.5 -129 64.8 -162 c 1
 41.8 -157 l 1
 67.8 -98 96.9 -68 139.9 -68 c 0
 169.9 -68 189 -82 206.2 -96 c 0
 219.8 -108 234.7 -118 253.7 -118 c 0
EndSplineSet
LCarets2: 1 0 
EndChar

StartChar: uni1E1C
Encoding: 7708 7708 98
Width: 578
VWidth: 999
Flags: HW
HStem: -215 29<177.298 278.107> 0 32<11.5107 86> 0 42<246.758 443.249> 317 50<299 437.63> 603 42<348.077 529.294> 613 34<131.418 193.52> 722 74<360.037 504.404>
VStem: 166.8 191.1 312.6 28.4<821.531 847> 442 41<252.086 308.175> 476 41<386.398 431.914> 557 26.6<830.688 847.79> 558 42<498.51 571.52>
DStem2: 90.643 -2 225.445 -2 0.207912 0.978148<84.0828 353.27 404.256 603.994>
LayerCount: 2
Fore
SplineSet
583.6 847 m 1
 567.6 776 497 722 431 722 c 0
 358 722 307.8 777 312.6 847 c 1
 341 850 l 1
 343.5 811 388.4 796 441.4 796 c 0
 490.4 796 544.5 811 557 850 c 1
 583.6 847 l 1
377 367 m 2
 441 367 462 374 476 429 c 1
 483 435 512 435 517 429 c 1
 510 399 506 377 499 343 c 0
 492 309 489 290 483 255 c 1
 476 249 447 249 442 255 c 1
 448 300 433 317 367 317 c 2
 289 317 l 1
 245 90 l 2
 240 63 254 42 275 42 c 2
 372 42 l 2
 445 42 499 98 532 170 c 1
 545 173 565 171 574 165 c 1
 556 114 539 48 516 -2 c 1
 516 -2 430 0 384 0 c 2
 299.7 0 l 1
 276.9 -41 l 1
 321 -50.1 365.6 -70.5 357.9 -125.1 c 0
 350.8 -175.3 293.2 -215 228.4 -215 c 0
 196.4 -215 190.3 -209 166.8 -198 c 1
 168.2 -188 170.7 -176.2 180.4 -172 c 1
 206 -182 216.5 -186 236.5 -186 c 0
 266.5 -186 288.4 -172 292.2 -145 c 0
 297.5 -107.4 245.1 -103 209.4 -101 c 1
 204.3 -95 l 1
 265.1 0 l 1
 158 0 l 1
 158 0 56 -1 9 -2 c 1
 4 4 9 26 16 32 c 1
 84 35 101 39 117 122 c 2
 194 522 l 2
 210 605 196 610 129 613 c 1
 124 619 128 641 135 647 c 1
 183 646 283 645 283 645 c 1
 566 645 l 2
 589 645 597 646 614 649 c 0
 617 649 617 648 617 646 c 0
 617 638 603 542 600 501 c 1
 590 496 570 494 558 496 c 1
 550 565 538 603 466 603 c 2
 384 603 l 2
 361 603 340 578 335 554 c 2
 299 367 l 1
 377 367 l 2
EndSplineSet
EndChar

StartChar: uni1E1D
Encoding: 7709 7709 99
Width: 409
VWidth: 999
Flags: HW
HStem: -220 29<142.923 241.52> -10 86<216.546 345.445> 235 40<172 310> 402 42<205.631 284.483> 514 74<169.021 312.577>
VStem: 37 130<127.941 235 275 306.352> 102 33<621.43 659.121> 252 62.9<-182.416 -119.388> 310 127<259 366.741> 350 32<624.913 659.188>
LayerCount: 2
Fore
SplineSet
343 370 m 0
 343 390 332 398 311 398 c 0
 272 398 234.3 378 200 237.3 c 1
 253 246 343 280 343 370 c 0
193 199 m 1
 192 191 192 170 192 165 c 0
 192 98 206 50 245 50 c 0
 293 50 324 66 381 124 c 1
 393 124 408 110 413 99 c 1
 366.7 39.4 308.7 6.2 253.5 -5.3 c 1
 230.9 -46 l 1
 275 -55.1 319.6 -75.5 311.9 -130.1 c 0
 304.8 -180.3 247.2 -220 182.4 -220 c 0
 150.4 -220 144.3 -214 120.8 -203 c 1
 122.2 -193 124.7 -181.2 134.4 -177 c 1
 160 -187 170.5 -191 190.5 -191 c 0
 220.5 -191 242.4 -177 246.2 -150 c 0
 251.5 -112.4 199.1 -108 163.4 -106 c 1
 158.3 -100 l 1
 216 -9.9 l 1
 213.7 -10 211.3 -10 209 -10 c 0
 89 -10 63 57 63 142 c 0
 63 269 140 439 334 439 c 0
 415 439 456 404 456 369 c 0
 456 351.2 455.5 317.2 425 288 c 0
 390.6 255 319.2 226.1 193 199 c 1
249.5 676 m 1
 249.7 623 285.2 586 339.2 586 c 0
 391.2 586 443.7 618 465.5 676 c 1
 490.1 664 l 1
 460.6 578 386.6 529 327.6 529 c 0
 257.6 529 216.8 579 220.1 664 c 1
 249.5 676 l 1
EndSplineSet
EndChar

StartChar: uni1E1E
Encoding: 7710 7710 100
Width: 518
Flags: HW
HStem: -2 34<13.4836 83.8263 260.259 322.516> 297 50<295 433.63> 603 42<348.077 531.798> 613 34<131.418 193.52> 709 124<380.2 473.8>
VStem: 365 124<724.2 817.8> 438 41<232.086 288.175> 472 41<366.398 411.914> 562 42<493.51 568.439>
DStem2: 90.643 -2 224.643 -2 0.207912 0.978148<86.5978 332.875 383.862 603.994>
LayerCount: 2
Fore
SplineSet
251 122 m 2
 235 39 271 35 323 32 c 1
 331 26 327 4 316 -2 c 1
 278 -1 199 0 161 0 c 0
 123 0 52 -1 13 -2 c 1
 5 4 9 26 20 32 c 1
 73 35 101 39 117 122 c 2
 194 522 l 2
 210 605 196 610 129 613 c 1
 124 619 128 641 135 647 c 1
 183 646 283 645 283 645 c 1
 571 645 l 2
 594 645 602 646 619 649 c 0
 622 649 622 648 622 646 c 0
 622 638 607 537 604 496 c 1
 594 491 574 489 562 491 c 1
 554 560 542 603 470 603 c 2
 384 603 l 2
 361 603 340 578 335 554 c 2
 295 347 l 1
 373 347 l 2
 437 347 458 354 472 409 c 1
 479 415 508 415 513 409 c 1
 506 379 502 357 495 323 c 0
 488 289 485 270 479 235 c 1
 472 229 443 229 438 235 c 1
 444 280 429 297 363 297 c 2
 285 297 l 1
 251 122 l 2
365 771 m 0
 365 805 393 833 427 833 c 0
 461 833 489 805 489 771 c 0
 489 737 461 709 427 709 c 0
 393 709 365 737 365 771 c 0
EndSplineSet
LCarets2: 1 0 
EndChar

StartChar: uni1E1F
Encoding: 7711 7711 101
Width: 397
VWidth: 999
Flags: HW
HStem: -233.2 49.6<3.91472 77.1216> 382 47<107.097 191 326 437.897> 648.2 49.6<389.681 480.293> 762 128<404.302 504.126>
VStem: 388 135<780.993 872.845> 484 104.8<567.831 644.796>
DStem2: 60.2348 -233.202 191.745 -233.202 0.207912 0.978148<258.522 628.946 702.987 836.408>
LayerCount: 2
Fore
SplineSet
191 382 m 1
 109 382 l 2
 106 382 103 382 103 384 c 0
 103 386 106 406 107 409 c 0
 109 417 116 425 135 426 c 2
 201 429 l 1
 222.5 535 254 599.5 291 640 c 0
 327.3 679.7 381.5 698 437 698 c 0
 522 698 591.7 656.8 591.7 608.5 c 0
 591.7 587 576.8 554.7 539.9 554.7 c 0
 499.2 554.7 489.1 590.8 484 617.5 c 0
 478.9 641.7 466 656 438 656 c 0
 380 656 356.7 587.9 337 486 c 2
 326 429 l 1
 436 429 l 2
 441 429 443 427 443 424 c 0
 443 423 438 394 438 394 c 2
 436 386 421 382 412 382 c 2
 319 382 l 1
 315 359 l 2
 299.6 270.7 286 207.9 268.9 130 c 0
 230 -48 185.3 -111.1 150.8 -157.6 c 0
 112.9 -208.7 60.9 -233.2 11.6 -233.2 c 0
 -70 -233.2 -102.2 -194.7 -102.2 -168 c 0
 -102.2 -147.6 -89.8 -121.8 -56.7 -121.8 c 0
 -33.8 -121.8 -13.5 -133.5 1.3 -157.8 c 0
 9.9 -172 21 -184.6 34.4 -184.6 c 0
 52.4 -184.6 75.9 -168.4 89.2 -147.6 c 0
 133.3 -78.7 137 43.4 150 141 c 0
 160 216 169 268.5 191 382 c 1
388 828 m 0
 388 858 411 890 458 890 c 0
 500 890 523 854 523 824 c 0
 523 798 497 762 452 762 c 0
 412 762 388 795 388 828 c 0
EndSplineSet
LCarets2: 1 0 
EndChar

StartChar: uni1E20
Encoding: 7712 7712 102
Width: 723
VWidth: 999
Flags: HW
HStem: -10 42<324.769 500.788> 271 37<494.511 557.795 712.779 758.489> 616 42<410.457 600.82> 765 44<341.19 619.349>
VStem: 338.5 284.1 695 44<459 527.253>
LayerCount: 2
Fore
SplineSet
518 658 m 0
 635 658 691 623 749 623 c 1
 742 551 739 501 739 459 c 1
 695 453 l 1
 687 539 635 616 496 616 c 0
 449 616 387 595 337 542 c 0
 289 491 256 413 239 327 c 0
 213 195 243 32 414 32 c 0
 466 32 493 42 532 74 c 1
 561 223 l 2
 569 263 544 267 492 271 c 1
 487 277 492 302 499 308 c 1
 544 307 609 306 646 306 c 0
 684 306 732 307 761 308 c 1
 766 302 761 277 754 271 c 1
 726 268 707 258 700 223 c 2
 678 106 l 2
 676 95 678 87 687 78 c 1
 612 24 496 -10 383 -10 c 0
 290 -10 202 12 149 66 c 0
 91 124 72 217 90 307 c 0
 111 415 175 505 255 565 c 0
 337 627 434 658 518 658 c 0
592.5 765 m 2
 348.5 765 l 2
 339.5 765 337.1 773 338.5 780 c 0
 340.9 792 355.4 809 366.4 809 c 2
 611.4 809 l 2
 621.4 809 623.8 801 622.6 795 c 0
 620.2 783 605.5 765 592.5 765 c 2
EndSplineSet
LCarets2: 1 0 
EndChar

StartChar: uni1E21
Encoding: 7713 7713 103
Width: 497
VWidth: 999
Flags: HW
HStem: -238 38<137.332 323.508> 132 40<236.96 318.712> 399 40<239.36 320.171 437.878 520.4> 570 44<206.19 484.349>
VStem: -3 97<-166.554 -86.0272> 114 114<201.04 358.702> 203.5 284.1 331 114<213.077 380.309> 352 105<-166.414 -84.832>
LayerCount: 2
Fore
SplineSet
171 -13 m 1
 146 -31 94 -65 94 -113 c 0
 94 -168 138 -200 250 -200 c 0
 335 -200 352 -157 352 -127 c 0
 352 -99 348 -90 292 -64 c 0
 259 -49 189 -17 171 -13 c 1
445 291 m 0
 445 192 360 132 273 132 c 0
 245 132 221 139 205 149 c 1
 196 132 195.9 107.1 202 88 c 0
 209 66 255 48 335 24 c 0
 389 8 457 -35 457 -100 c 0
 457 -199 346 -238 209 -238 c 0
 128 -238 -3 -217 -3 -136 c 0
 -3 -76 89 -31 142 -2 c 1
 111 9 106 39 106 56 c 0
 106 91 122 132 170 165 c 1
 132 188 114 239 114 283 c 0
 114 363 178 439 290 439 c 0
 334.3 439 385 428 407 402 c 1
 442 434 475.4 445.7 506.6 445.7 c 0
 534.2 445.7 553.4 426.5 553.4 404.9 c 0
 553.4 382.1 537.8 365.3 516.2 365.3 c 0
 496.8 365.3 488.6 376.1 482.6 385.7 c 0
 479 391.7 475.4 397.7 464.6 397.7 c 0
 456.2 397.7 442 383 427 369 c 1
 441 349 445 318 445 291 c 0
331 291 m 0
 331 359 329 399 286 399 c 0
 220 399 228 354 228 282 c 0
 228 234 217 172 278 172 c 0
 338 172 331 229 331 291 c 0
457.5 570 m 2
 213.5 570 l 2
 204.5 570 202.1 578 203.5 585 c 0
 205.9 597 220.4 614 231.4 614 c 2
 476.4 614 l 2
 486.4 614 488.8 606 487.6 600 c 0
 485.2 588 470.5 570 457.5 570 c 2
EndSplineSet
LCarets2: 1 0 
EndChar

StartChar: uni1E22
Encoding: 7714 7714 104
Width: 735
VWidth: 999
Flags: HW
HStem: -2 34<29.4836 99.8263 271.494 329.377 413.484 483.826 655.494 713.377> 319 48<314.656 555.319> 613 34<148.484 206.03 378.174 448.516 532.484 590.03 762.174 832.516> 709 124<450.2 543.8>
VStem: 435 124<724.2 817.8>
DStem2: 106.643 -2 240.643 -2 0.207912 0.978148<83.8642 355.292 404.185 600.436> 490.643 -2 624.643 -2 0.207912 0.978148<83.8642 327.432 376.325 600.436>
LayerCount: 2
Fore
SplineSet
435 771 m 0
 435 805 463 833 497 833 c 0
 531 833 559 805 559 771 c 0
 559 737 531 709 497 709 c 0
 463 709 435 737 435 771 c 0
595 523 m 2
 611 606 584 610 532 613 c 1
 524 619 528 641 539 647 c 1
 577 646 649 645 687 645 c 0
 725 645 794 646 833 647 c 1
 841 641 837 619 826 613 c 1
 773 610 745 606 729 523 c 2
 651 122 l 2
 635 39 661 35 713 32 c 1
 721 26 718 4 707 -2 c 1
 669 -1 599 0 561 0 c 0
 523 0 452 -1 413 -2 c 1
 405 4 409 26 420 32 c 1
 473 35 501 39 517 122 c 2
 555.3 319 l 1
 305.3 319 l 1
 267 122 l 2
 251 39 277 35 329 32 c 1
 337 26 334 4 323 -2 c 1
 285 -1 215 0 177 0 c 0
 139 0 68 -1 29 -2 c 1
 21 4 25 26 36 32 c 1
 89 35 117 39 133 122 c 2
 211 523 l 2
 227 606 200 610 148 613 c 1
 140 619 144 641 155 647 c 1
 193 646 265 645 303 645 c 0
 341 645 410 646 449 647 c 1
 457 641 453 619 442 613 c 1
 389 610 361 606 345 523 c 2
 314.7 367 l 1
 564.7 367 l 1
 595 523 l 2
EndSplineSet
LCarets2: 1 0 
EndChar

StartChar: uni1E23
Encoding: 7715 7715 105
Width: 620
VWidth: 999
Flags: HW
HStem: -10 73<424 530.297> 369 70<398.445 502.5> 511 128<434.302 534.126> 638 34<154.053 214.246> 678 20<307.5 334.5>
VStem: 418 135<529.993 621.845> 443 129<246.617 367.541>
DStem2: 86.3924 -10 208.427 -10 0.207912 0.978148<28.0805 652.395> 370.43 -10 492.517 -10 0.207912 0.978148<103.402 349.953>
LayerCount: 2
Fore
SplineSet
225.9 72 m 2
 217.3 33 218 -10 157 -10 c 0
 101 -10 91.1 0.5 91.1 17.2 c 0
 91.1 27 98.5 48.3 103.8 72 c 2
 214 563 l 2
 229.5 632.1 214 638 152 638 c 1
 149 647 151 660 157 672 c 1
 200 679 292 698 323 698 c 0
 346 698 353 686 353 665 c 0
 353 645 345 616 338 583 c 2
 279.8 317.9 l 1
 368.3 419 432.3 439 483 439 c 0
 522 439 572 419 572 359 c 0
 572 341 567.3 317.9 559 283 c 2
 521 124 l 2
 514.7 98.4 507.7 63 525 63 c 0
 535 63 569 80 595 110 c 1
 609 110 621 91 624 82 c 1
 578 23 508.5 -10 439 -10 c 0
 409 -10 397.5 2.5 390 23 c 0
 383.5 40.8 389.2 83.2 397 115 c 2
 434 275 l 2
 441.9 309 443 319 443 333 c 0
 443 364 429 369 408 369 c 0
 372.6 369 322.6 311.8 260.9 231.8 c 1
 225.9 72 l 2
418 577 m 0
 418 607 441 639 488 639 c 0
 530 639 553 603 553 573 c 0
 553 547 527 511 482 511 c 0
 442 511 418 544 418 577 c 0
EndSplineSet
LCarets2: 1 0 
EndChar

StartChar: uni1E24
Encoding: 7716 7716 106
Width: 735
VWidth: 999
Flags: HW
HStem: -237.3 120.3<247.415 343.512> -2 34<29.4836 99.8263 271.494 329.377 413.484 483.826 655.494 713.377> 613 34<148.484 206.03 378.174 448.516 532.484 590.03 762.174 832.516>
VStem: 233.1 126.9<-220.464 -132.069>
DStem2: 490.643 -2 624.643 -2 0.207912 0.978148<83.8642 600.436>
LayerCount: 2
Fore
SplineSet
234 -159 m 0
 234 -129 257 -97 304 -97 c 0
 346 -97 369 -133 369 -163 c 0
 369 -189 343 -225 298 -225 c 0
 258 -225 234 -192 234 -159 c 0
595 523 m 2
 611 606 584 610 532 613 c 1
 524 619 528 641 539 647 c 1
 577 646 649 645 687 645 c 0
 725 645 794 646 833 647 c 1
 841 641 837 619 826 613 c 1
 773 610 745 606 729 523 c 2
 651 122 l 2
 635 39 661 35 713 32 c 1
 721 26 718 4 707 -2 c 1
 669 -1 599 0 561 0 c 0
 523 0 452 -1 413 -2 c 1
 405 4 409 26 420 32 c 1
 473 35 501 39 517 122 c 2
 555.3 319 l 1
 305.3 319 l 1
 267 122 l 2
 251 39 277 35 329 32 c 1
 337 26 334 4 323 -2 c 1
 285 -1 215 0 177 0 c 0
 139 0 68 -1 29 -2 c 1
 21 4 25 26 36 32 c 1
 89 35 117 39 133 122 c 2
 211 523 l 2
 227 606 200 610 148 613 c 1
 140 619 144 641 155 647 c 1
 193 646 265 645 303 645 c 0
 341 645 410 646 449 647 c 1
 457 641 453 619 442 613 c 1
 389 610 361 606 345 523 c 2
 314.7 367 l 1
 564.7 367 l 1
 595 523 l 2
EndSplineSet
LCarets2: 1 0 
EndChar

StartChar: uni1E25
Encoding: 7717 7717 107
Width: 620
VWidth: 999
Flags: HW
HStem: -238.3 120.3<173.415 269.512> -10 76<130.055 236.715> 633 39<159 190> 678 20<331.5 349.5>
VStem: 97.3 127.1<22.684 168.212> 159.1 126.9<-221.464 -133.069>
LayerCount: 2
Fore
SplineSet
225.9 72 m 2
 217.3 33 218 -10 157 -10 c 0
 101 -10 91.1 0.5 91.1 17.2 c 0
 91.1 27 98.5 48.3 103.8 72 c 2
 214 563 l 2
 229.5 632.1 214 638 152 638 c 1
 149 647 151 660 157 672 c 1
 200 679 292 698 323 698 c 0
 346 698 353 686 353 665 c 0
 353 645 345 616 338 583 c 2
 279.8 317.9 l 1
 368.3 419 432.3 439 483 439 c 0
 522 439 572 419 572 359 c 0
 572 341 567.3 317.9 559 283 c 2
 521 124 l 2
 514.7 98.4 507.7 63 525 63 c 0
 535 63 569 80 595 110 c 1
 609 110 621 91 624 82 c 1
 578 23 508.5 -10 439 -10 c 0
 409 -10 397.5 2.5 390 23 c 0
 383.5 40.8 389.2 83.2 397 115 c 2
 434 275 l 2
 441.9 309 443 319 443 333 c 0
 443 364 429 369 408 369 c 0
 372.6 369 322.6 311.8 260.9 231.8 c 1
 225.9 72 l 2
160 -160 m 0
 160 -130 183 -98 230 -98 c 0
 272 -98 295 -134 295 -164 c 0
 295 -190 269 -226 224 -226 c 0
 184 -226 160 -193 160 -160 c 0
EndSplineSet
LCarets2: 1 0 
EndChar

StartChar: uni1E26
Encoding: 7718 7718 108
Width: 735
VWidth: 999
Flags: HW
HStem: -2 34<29.4836 99.8263 271.494 329.377 413.484 483.826 655.494 713.377> 319 48<314.656 555.319> 613 34<148.484 206.03 378.174 448.516 532.484 590.03 762.174 832.516> 710 113<380.613 469.387 567.997 656.771>
VStem: 369 112<721.613 811.003> 556 112<721.613 811.003>
DStem2: 106.643 -2 240.643 -2 0.207912 0.978148<83.8642 355.292 404.185 600.436> 490.643 -2 624.643 -2 0.207912 0.978148<83.8642 327.432 376.325 600.436>
LayerCount: 2
Fore
SplineSet
369 766 m 0
 369 798 393 823 425 823 c 0
 457 823 481 798 481 766 c 0
 481 734 457 710 425 710 c 0
 393 710 369 734 369 766 c 0
556 766 m 0
 556 798 581 823 613 823 c 0
 645 823 668 798 668 766 c 0
 668 734 645 710 613 710 c 0
 581 710 556 734 556 766 c 0
595 523 m 2
 611 606 584 610 532 613 c 1
 524 619 528 641 539 647 c 1
 577 646 649 645 687 645 c 0
 725 645 794 646 833 647 c 1
 841 641 837 619 826 613 c 1
 773 610 745 606 729 523 c 2
 651 122 l 2
 635 39 661 35 713 32 c 1
 721 26 718 4 707 -2 c 1
 669 -1 599 0 561 0 c 0
 523 0 452 -1 413 -2 c 1
 405 4 409 26 420 32 c 1
 473 35 501 39 517 122 c 2
 555.3 319 l 1
 305.3 319 l 1
 267 122 l 2
 251 39 277 35 329 32 c 1
 337 26 334 4 323 -2 c 1
 285 -1 215 0 177 0 c 0
 139 0 68 -1 29 -2 c 1
 21 4 25 26 36 32 c 1
 89 35 117 39 133 122 c 2
 211 523 l 2
 227 606 200 610 148 613 c 1
 140 619 144 641 155 647 c 1
 193 646 265 645 303 645 c 0
 341 645 410 646 449 647 c 1
 457 641 453 619 442 613 c 1
 389 610 361 606 345 523 c 2
 314.7 367 l 1
 564.7 367 l 1
 595 523 l 2
EndSplineSet
LCarets2: 1 0 
EndChar

StartChar: uni1E27
Encoding: 7719 7719 109
Width: 620
VWidth: 999
Flags: HW
HStem: -10 73<424 530.297> 369 70<398.445 502.5> 527 91<405.053 480.947 542.053 618.653> 638 34<154.053 214.246> 678 20<307.5 334.5>
VStem: 398 90<533.481 611.246> 443 129<246.617 367.541> 535 91<534.053 610.653>
DStem2: 86.3924 -10 208.427 -10 0.207912 0.978148<28.0805 652.395> 370.43 -10 492.517 -10 0.207912 0.978148<103.402 349.953>
LayerCount: 2
Fore
SplineSet
535 572 m 0
 535 597 555 618 580 618 c 0
 605 618 626 597 626 572 c 0
 626 547 605 527 580 527 c 0
 555 527 535 547 535 572 c 0
398 572 m 0
 398 597 418 618 443 618 c 0
 468 618 488 597 488 572 c 0
 488 547 468 527 443 527 c 0
 418 527 398 547 398 572 c 0
225.9 72 m 2
 217.3 33 218 -10 157 -10 c 0
 101 -10 91.1 0.5 91.1 17.2 c 0
 91.1 27 98.5 48.3 103.8 72 c 2
 214 563 l 2
 229.5 632.1 214 638 152 638 c 1
 149 647 151 660 157 672 c 1
 200 679 292 698 323 698 c 0
 346 698 353 686 353 665 c 0
 353 645 345 616 338 583 c 2
 279.8 317.9 l 1
 368.3 419 432.3 439 483 439 c 0
 522 439 572 419 572 359 c 0
 572 341 567.3 317.9 559 283 c 2
 521 124 l 2
 514.7 98.4 507.7 63 525 63 c 0
 535 63 569 80 595 110 c 1
 609 110 621 91 624 82 c 1
 578 23 508.5 -10 439 -10 c 0
 409 -10 397.5 2.5 390 23 c 0
 383.5 40.8 389.2 83.2 397 115 c 2
 434 275 l 2
 441.9 309 443 319 443 333 c 0
 443 364 429 369 408 369 c 0
 372.6 369 322.6 311.8 260.9 231.8 c 1
 225.9 72 l 2
EndSplineSet
LCarets2: 1 0 
EndChar

StartChar: uni1E28
Encoding: 7720 7720 110
Width: 735
VWidth: 999
Flags: HW
HStem: -215 29<46.298 147.107> -2 34<29.4836 99.8263 271.494 329.377 413.484 483.826 655.494 713.377> 319 48<314.656 555.319> 613 34<148.484 206.03 378.174 448.516 532.484 590.03 762.174 832.516>
VStem: 35.8 191.1
DStem2: 106.643 -2 240.643 -2 0.207912 0.978148<83.8642 355.292 404.185 600.436> 490.643 -2 624.643 -2 0.207912 0.978148<83.8642 327.432 376.325 600.436>
LayerCount: 2
Fore
SplineSet
78.4 -101 m 1
 73.3 -95 l 1
 133.9 -0.3 l 1
 97.9 -0.7 55.9 -1.3 29 -2 c 1
 21 4 25 26 36 32 c 1
 89 35 117 39 133 122 c 2
 211 523 l 2
 227 606 200 610 148 613 c 1
 140 619 144 641 155 647 c 1
 193 646 265 645 303 645 c 0
 341 645 410 646 449 647 c 1
 457 641 453 619 442 613 c 1
 389 610 361 606 345 523 c 2
 314.7 367 l 1
 564.7 367 l 1
 595 523 l 2
 611 606 584 610 532 613 c 1
 524 619 528 641 539 647 c 1
 577 646 649 645 687 645 c 0
 725 645 794 646 833 647 c 1
 841 641 837 619 826 613 c 1
 773 610 745 606 729 523 c 2
 651 122 l 2
 635 39 661 35 713 32 c 1
 721 26 718 4 707 -2 c 1
 669 -1 599 0 561 0 c 0
 523 0 452 -1 413 -2 c 1
 405 4 409 26 420 32 c 1
 473 35 501 39 517 122 c 2
 555.3 319 l 1
 305.3 319 l 1
 267 122 l 2
 251 39 277 35 329 32 c 1
 337 26 334 4 323 -2 c 1
 285 -1 215 0 177 0 c 0
 174.4 0 171.6 0 168.7 -0 c 1
 145.9 -41 l 1
 190 -50.1 234.6 -70.5 226.9 -125.1 c 0
 219.8 -175.3 162.2 -215 97.4 -215 c 0
 65.4 -215 59.3 -209 35.8 -198 c 1
 37.2 -188 39.7 -176.2 49.4 -172 c 1
 75 -182 85.5 -186 105.5 -186 c 0
 135.5 -186 157.4 -172 161.2 -145 c 0
 166.5 -107.4 114.1 -103 78.4 -101 c 1
EndSplineSet
LCarets2: 1 0 
EndChar

StartChar: uni1E29
Encoding: 7721 7721 111
Width: 620
VWidth: 999
Flags: HW
HStem: -215 29<19.298 120.107> -10 73<424 530.297> 369 70<398.445 502.5> 638 34<154.053 214.246> 678 20<307.5 334.5>
VStem: 8.8 191.1 443 129<246.617 367.541>
DStem2: 86.3924 -10 208.427 -10 0.207912 0.978148<28.0805 652.395> 370.43 -10 492.517 -10 0.207912 0.978148<103.402 349.953>
LayerCount: 2
Fore
SplineSet
225.9 72 m 2
 217.3 33 218 -10 157 -10 c 0
 149.3 -10 142.5 -9.8 136.5 -9.4 c 1
 118.9 -41 l 1
 163 -50.1 207.6 -70.5 199.9 -125.1 c 0
 192.8 -175.3 135.2 -215 70.4 -215 c 0
 38.4 -215 32.3 -209 8.8 -198 c 1
 10.2 -188 12.7 -176.2 22.4 -172 c 1
 48 -182 58.5 -186 78.5 -186 c 0
 108.5 -186 130.4 -172 134.2 -145 c 0
 139.5 -107.4 87.1 -103 51.4 -101 c 1
 46.3 -95 l 1
 104.9 -3.5 l 1
 93.9 1.2 91.1 8.4 91.1 17.2 c 0
 91.1 27 98.5 48.3 103.8 72 c 2
 214 563 l 2
 229.5 632.1 214 638 152 638 c 1
 149 647 151 660 157 672 c 1
 200 679 292 698 323 698 c 0
 346 698 353 686 353 665 c 0
 353 645 345 616 338 583 c 2
 279.8 317.9 l 1
 368.3 419 432.3 439 483 439 c 0
 522 439 572 419 572 359 c 0
 572 341 567.3 317.9 559 283 c 2
 521 124 l 2
 514.7 98.4 507.7 63 525 63 c 0
 535 63 569 80 595 110 c 1
 609 110 621 91 624 82 c 1
 578 23 508.5 -10 439 -10 c 0
 409 -10 397.5 2.5 390 23 c 0
 383.5 40.8 389.2 83.2 397 115 c 2
 434 275 l 2
 441.9 309 443 319 443 333 c 0
 443 364 429 369 408 369 c 0
 372.6 369 322.6 311.8 260.9 231.8 c 1
 225.9 72 l 2
EndSplineSet
LCarets2: 1 0 
EndChar

StartChar: uni1E2A
Encoding: 7722 7722 112
Width: 735
VWidth: 999
Flags: HW
HStem: -199 57<232.534 353.305> -2 34<29.4836 99.8263 271.494 329.377 413.484 483.826 655.494 713.377> 319 48<314.656 555.319> 613 34<148.484 206.03 378.174 448.516 532.484 590.03 762.174 832.516>
VStem: 174.1 29.4<-101.223 -64>
DStem2: 106.643 -2 240.643 -2 0.207912 0.978148<83.8642 355.292 404.185 600.436> 490.643 -2 624.643 -2 0.207912 0.978148<83.8642 327.432 376.325 600.436>
LayerCount: 2
Fore
SplineSet
203.5 -52 m 1
 203.7 -105 239.2 -142 293.2 -142 c 0
 345.2 -142 397.7 -110 419.5 -52 c 1
 444.1 -64 l 1
 414.6 -150 340.6 -199 281.6 -199 c 0
 211.6 -199 170.8 -149 174.1 -64 c 1
 203.5 -52 l 1
595 523 m 2
 611 606 584 610 532 613 c 1
 524 619 528 641 539 647 c 1
 577 646 649 645 687 645 c 0
 725 645 794 646 833 647 c 1
 841 641 837 619 826 613 c 1
 773 610 745 606 729 523 c 2
 651 122 l 2
 635 39 661 35 713 32 c 1
 721 26 718 4 707 -2 c 1
 669 -1 599 0 561 0 c 0
 523 0 452 -1 413 -2 c 1
 405 4 409 26 420 32 c 1
 473 35 501 39 517 122 c 2
 555.3 319 l 1
 305.3 319 l 1
 267 122 l 2
 251 39 277 35 329 32 c 1
 337 26 334 4 323 -2 c 1
 285 -1 215 0 177 0 c 0
 139 0 68 -1 29 -2 c 1
 21 4 25 26 36 32 c 1
 89 35 117 39 133 122 c 2
 211 523 l 2
 227 606 200 610 148 613 c 1
 140 619 144 641 155 647 c 1
 193 646 265 645 303 645 c 0
 341 645 410 646 449 647 c 1
 457 641 453 619 442 613 c 1
 389 610 361 606 345 523 c 2
 314.7 367 l 1
 564.7 367 l 1
 595 523 l 2
EndSplineSet
LCarets2: 1 0 
EndChar

StartChar: uni1E2B
Encoding: 7723 7723 113
Width: 620
VWidth: 999
Flags: HW
HStem: -209 57<147.534 268.305> -10 73<424 530.297> 369 70<398.445 502.5> 638 34<154.053 214.246> 678 20<307.5 334.5>
VStem: 89.1 29.4<-111.223 -74> 443 129<246.617 367.541>
DStem2: 86.3924 -10 208.427 -10 0.207912 0.978148<28.0805 652.395> 370.43 -10 492.517 -10 0.207912 0.978148<103.402 349.953>
LayerCount: 2
Fore
SplineSet
225.9 72 m 2
 217.3 33 218 -10 157 -10 c 0
 101 -10 91.1 0.5 91.1 17.2 c 0
 91.1 27 98.5 48.3 103.8 72 c 2
 214 563 l 2
 229.5 632.1 214 638 152 638 c 1
 149 647 151 660 157 672 c 1
 200 679 292 698 323 698 c 0
 346 698 353 686 353 665 c 0
 353 645 345 616 338 583 c 2
 279.8 317.9 l 1
 368.3 419 432.3 439 483 439 c 0
 522 439 572 419 572 359 c 0
 572 341 567.3 317.9 559 283 c 2
 521 124 l 2
 514.7 98.4 507.7 63 525 63 c 0
 535 63 569 80 595 110 c 1
 609 110 621 91 624 82 c 1
 578 23 508.5 -10 439 -10 c 0
 409 -10 397.5 2.5 390 23 c 0
 383.5 40.8 389.2 83.2 397 115 c 2
 434 275 l 2
 441.9 309 443 319 443 333 c 0
 443 364 429 369 408 369 c 0
 372.6 369 322.6 311.8 260.9 231.8 c 1
 225.9 72 l 2
198.5 -62 m 1
 198.7 -115 234.2 -152 288.2 -152 c 0
 340.2 -152 392.7 -120 414.5 -62 c 1
 439.1 -74 l 1
 409.6 -160 335.6 -209 276.6 -209 c 0
 206.6 -209 165.8 -159 169.1 -74 c 1
 198.5 -62 l 1
EndSplineSet
LCarets2: 1 0 
EndChar

StartChar: uni1E2C
Encoding: 7724 7724 114
Width: 351
VWidth: 999
Flags: HW
HStem: -164 44<45 132> -116 46<-73 18> -77 10 -2 34<29.4836 99.8263 271.494 329.377> 613 34<148.484 206.03 378.174 448.516>
DStem2: 106.643 -2 240.643 -2 0.207912 0.978148<83.8642 600.436>
LayerCount: 2
Fore
SplineSet
211 523 m 2
 227 606 200 610 148 613 c 1
 140 619 144 641 155 647 c 1
 193 646 265 645 303 645 c 0
 341 645 410 646 449 647 c 1
 457 641 453 619 442 613 c 1
 389 610 361 606 345 523 c 2
 267 122 l 2
 251 39 277 35 329 32 c 1
 337 26 334 4 323 -2 c 1
 285 -1 215 0 177 0 c 0
 139 0 68 -1 29 -2 c 1
 21 4 25 26 36 32 c 1
 89 35 117 39 133 122 c 2
 211 523 l 2
221.7 -120 m 0
 243.7 -120 259.8 -110 282.3 -68 c 1
 305.1 -74 l 1
 280.9 -134 245.8 -164 199.8 -164 c 0
 177.8 -164 159.3 -152 141.1 -138 c 0
 125.3 -127 108.5 -116 91.5 -116 c 0
 65.5 -116 49.5 -131 32.8 -164 c 1
 9.8 -159 l 1
 35.8 -100 64.9 -70 107.9 -70 c 0
 137.9 -70 157 -84 174.2 -98 c 0
 187.8 -110 202.7 -120 221.7 -120 c 0
EndSplineSet
LCarets2: 1 0 
EndChar

StartChar: uni1E2D
Encoding: 7725 7725 115
Width: 342
VWidth: 999
Flags: HW
HStem: -164 44<190.342 275.453> -116 46<69.7554 156.907> -10 73<154 260.297> 385 38<117.417 159> 416 20<277 299.624> 530 128<215.302 315.126>
VStem: 25.8 295.3 199 135<548.993 640.845>
DStem2: 100.43 -10 222.517 -10 0.207912 0.978148<103.402 379.377>
LayerCount: 2
Fore
SplineSet
199 596 m 0
 199 626 222 658 269 658 c 0
 311 658 334 622 334 592 c 0
 334 566 308 530 263 530 c 0
 223 530 199 563 199 596 c 0
293.3 320.2 m 2
 251 124 l 2
 245.1 98.4 237.7 63 255 63 c 0
 265 63 299 80 325 110 c 1
 339 110 351 91 354 82 c 1
 308 23 238.5 -10 169 -10 c 0
 139 -10 127.5 2.5 120 23 c 0
 113.5 40.8 120 83 127 115 c 2
 171 321 l 2
 176.6 347 177 352.9 177 362 c 0
 177 372 171 381.1 159 382 c 2
 119 385 l 1
 113 394 114.3 415 121 423 c 1
 168 429 261 436 293 436 c 0
 306.2 436 313.5 428.6 313.5 414.9 c 0
 313.5 397.8 301.8 359.5 293.3 320.2 c 2
237.7 -120 m 0
 259.7 -120 275.8 -110 298.3 -68 c 1
 321.1 -74 l 1
 296.9 -134 261.8 -164 215.8 -164 c 0
 193.8 -164 175.3 -152 157.1 -138 c 0
 141.3 -127 124.5 -116 107.5 -116 c 0
 81.5 -116 65.5 -131 48.8 -164 c 1
 25.8 -159 l 1
 51.8 -100 80.9 -70 123.9 -70 c 0
 153.9 -70 173 -84 190.2 -98 c 0
 203.8 -110 218.7 -120 237.7 -120 c 0
EndSplineSet
LCarets2: 1 0 
EndChar

StartChar: uni1E2E
Encoding: 7726 7726 116
Width: 351
VWidth: 999
Flags: HW
HStem: -2 34<29.4836 99.8263 271.494 329.377> 613 34<148.484 206.03 378.174 448.516> 697 91<160 227 349 416> 782.5 105.6
VStem: 267.3 174.8
DStem2: 106.643 -2 240.643 -2 0.207912 0.978148<83.8642 600.436>
LayerCount: 2
Fore
SplineSet
165 766 m 0
 165 798 189 823 221 823 c 0
 253 823 277 798 277 766 c 0
 277 734 253 710 221 710 c 0
 189 710 165 734 165 766 c 0
352 766 m 0
 352 798 377 823 409 823 c 0
 441 823 464 798 464 766 c 0
 464 734 441 710 409 710 c 0
 377 710 352 734 352 766 c 0
211 523 m 2
 227 606 200 610 148 613 c 1
 140 619 144 641 155 647 c 1
 193 646 265 645 303 645 c 0
 341 645 410 646 449 647 c 1
 457 641 453 619 442 613 c 1
 389 610 361 606 345 523 c 2
 267 122 l 2
 251 39 277 35 329 32 c 1
 337 26 334 4 323 -2 c 1
 285 -1 215 0 177 0 c 0
 139 0 68 -1 29 -2 c 1
 21 4 25 26 36 32 c 1
 89 35 117 39 133 122 c 2
 211 523 l 2
418.3 1013 m 1
 436.2 1002.8 454.7 982.7 462.4 964.6 c 1
 458.7 954.1 l 1
 341.6 903 l 2
 329.8 897.9 320.8 896.9 313.9 896.9 c 0
 307 896.9 299.2 903.1 300.1 910.1 c 0
 300.9 916.3 301.7 921.3 310.1 928.6 c 0
 328.2 944.4 384.5 988.4 418.3 1013 c 1
EndSplineSet
LCarets2: 1 0 
EndChar

StartChar: uni1E2F
Encoding: 7727 7727 117
Width: 342
VWidth: 999
Flags: HW
HStem: -10 73<154 260.297> 385 38<117.417 159> 416 20<277 299.624> 519 109<129.191 206.324 303.667 381.376>
VStem: 115.8 103.4<531.274 614.798> 290.7 103.4<531.274 615.642>
DStem2: 100.43 -10 222.517 -10 0.207912 0.978148<103.402 379.377>
LayerCount: 2
Fore
SplineSet
293.3 320.2 m 2
 251 124 l 2
 245.1 98.4 237.7 63 255 63 c 0
 265 63 299 80 325 110 c 1
 339 110 351 91 354 82 c 1
 308 23 238.5 -10 169 -10 c 0
 139 -10 127.5 2.5 120 23 c 0
 113.5 40.8 120 83 127 115 c 2
 171 321 l 2
 176.6 347 177 352.9 177 362 c 0
 177 372 171 381.1 159 382 c 2
 119 385 l 1
 113 394 114.3 415 121 423 c 1
 168 429 261 436 293 436 c 0
 306.2 436 313.5 428.6 313.5 414.9 c 0
 313.5 397.8 301.8 359.5 293.3 320.2 c 2
290.7 573 m 0
 292.9 604 317.2 628 346.3 628 c 0
 374.5 628 396.3 604 394.1 573 c 0
 391.9 543 366.7 519 338.5 519 c 0
 309.4 519 288.5 543 290.7 573 c 0
115.8 573 m 0
 118 604 143.3 628 171.5 628 c 0
 200.6 628 221.4 604 219.2 573 c 0
 217 543 192.8 519 163.7 519 c 0
 135.5 519 113.6 543 115.8 573 c 0
335.2 790.1 m 1
 337.6 791 343.9 791.9 347.8 791.9 c 0
 370.9 791.9 384 779.6 389.1 770.8 c 1
 394.3 750.5 l 1
 290.2 655.5 l 2
 278.1 644.9 266.9 641.4 259.2 641.4 c 0
 253 641.4 247.8 648.4 248.4 653.7 c 0
 249 659 251.5 666.9 257.1 674.8 c 2
 335.2 790.1 l 1
EndSplineSet
LCarets2: 1 0 
EndChar

StartChar: uni1E30
Encoding: 7728 7728 118
Width: 706
VWidth: 999
Flags: HW
HStem: -2 34<29.4836 99.8263 271.494 329.377 654.85 697.35> 309 42<300 338.46> 613 34<148.484 206.03 378.174 448.516 574.511 607.196 722.349 786.35> 757 132
VStem: 424.8 210.7
DStem2: 106.643 -2 240.643 -2 0.207912 0.978148<83.8642 600.436> 439 430 470 407 0.785209 0.61923<-20.9682 229.081>
LayerCount: 2
Fore
SplineSet
211 523 m 2
 227 606 200 610 148 613 c 1
 140 619 144 641 155 647 c 1
 193 646 265 645 303 645 c 0
 341 645 410 646 449 647 c 1
 457 641 453 619 442 613 c 1
 389 610 361 606 345 523 c 2
 311.8 352.2 l 1
 343.3 357.2 371.3 376.5 439 430 c 2
 439 430 524 493 560 525 c 0
 618 576 627 607 572 613 c 1
 567 619 572 641 579 647 c 1
 624 646 659 645 697 645 c 0
 735 645 743 646 788 647 c 1
 793 641 789 619 782 613 c 1
 708 604 663 559 593 504 c 2
 470 407 l 2
 452 393 454 385 453 378 c 0
 451 370 460 353 473 333 c 2
 633 74 l 2
 652 44 671 36 699 32 c 1
 704 26 700 4 693 -2 c 1
 648 -1 624 0 587 0 c 0
 558 0 500 -1 481 -2 c 0
 477 -2 477 1 477 4 c 0
 478 20 470 48 456 74 c 2
 349 271 l 2
 335.9 294.5 328.2 305.9 303.3 308.4 c 1
 267 122 l 2
 251 39 277 35 329 32 c 1
 337 26 334 4 323 -2 c 1
 285 -1 215 0 177 0 c 0
 139 0 68 -1 29 -2 c 1
 21 4 25 26 36 32 c 1
 89 35 117 39 133 122 c 2
 211 523 l 2
578.3 889 m 1
 601.5 877.4 625.6 854.6 635.5 834 c 1
 630.9 822 l 1
 478.7 764 l 2
 463.4 758.2 451.7 757 442.7 757 c 0
 433.7 757 423.7 764 424.8 772 c 0
 425.8 779 426.9 784.7 437.8 793 c 0
 461.3 811 534.4 861 578.3 889 c 1
EndSplineSet
LCarets2: 1 0 
EndChar

StartChar: uni1E31
Encoding: 7729 7729 119
Width: 560
VWidth: 999
Flags: HW
HStem: -10 62<412.5 511.675> 237.3 34.7<261.115 290.799> 351.4 87.6<469.049 556.546> 638 34<149.053 209.246> 678 20<302.5 329.5>
DStem2: 81.3926 -10 203.428 -10 0.207912 0.978148<28.0804 652.395> 415 202 291 221 0.393228 -0.919441<-70.9527 166.459> 316 302.664 348 270 0.748997 0.662574<2.32553 147.914>
LayerCount: 2
Fore
SplineSet
220.9 72 m 2
 212.3 33 213 -10 152 -10 c 0
 96 -10 86.1 0.5 86.1 17.2 c 0
 86.1 27 93.5 48.3 98.8 72 c 2
 209 563 l 2
 224.5 632.1 209 638 147 638 c 1
 144 647 146 660 152 672 c 1
 195 679 287 698 318 698 c 0
 341 698 348 686 348 665 c 0
 348 645 340 616 333 583 c 2
 264.9 272.7 l 1
 283.2 276 301.1 289.9 316 302.7 c 2
 356 337 l 1
 428 401 499 439 531 439 c 0
 575.4 439 596 406.3 596 380.1 c 0
 596 346.3 574.4 310.1 542 310.1 c 0
 525.2 310.1 509.6 326.4 501.2 336.4 c 0
 494 345.2 488 351.4 476 351.4 c 0
 456 351.4 432.1 344.4 400 316 c 2
 348 270 l 1
 349 266 l 1
 382 257 399.3 233.4 415 202 c 0
 429 174 438 146 456 90 c 0
 463 68.2 469.4 52 488.5 52 c 0
 499.5 52 520 65 540 94 c 1
 551 94 563 85 570 77 c 1
 540 15.5 484 -10 433 -10 c 0
 392 -10 367 21 334.4 93 c 0
 314 138.2 309 189 291 221 c 0
 286 230 279 237.3 271.4 237.3 c 0
 266.5 237.3 261.8 237.1 256.9 236.2 c 1
 220.9 72 l 2
510.7 697 m 1
 513.8 698 522 699 527 699 c 0
 557 699 574 685 580.6 675 c 1
 587.4 652 l 1
 452.2 544 l 2
 436.5 532 422 528 412 528 c 0
 404 528 397.2 536 398 542 c 0
 398.8 548 402 557 409.3 566 c 2
 510.7 697 l 1
EndSplineSet
LCarets2: 1 0 
EndChar

StartChar: uni1E32
Encoding: 7730 7730 120
Width: 706
VWidth: 999
Flags: HW
HStem: -237.3 120.3<239.415 335.512> -2 34<29.4836 99.8263 271.494 329.377 654.85 697.35> 309 42<300 338.46> 613 34<148.484 206.03 378.174 448.516 574.511 607.196 722.349 786.35>
VStem: 225.1 126.9<-220.464 -132.069>
DStem2: 106.643 -2 240.643 -2 0.207912 0.978148<83.8642 600.436> 439 430 470 407 0.785209 0.61923<-20.9682 229.081>
LayerCount: 2
Fore
SplineSet
211 523 m 2
 227 606 200 610 148 613 c 1
 140 619 144 641 155 647 c 1
 193 646 265 645 303 645 c 0
 341 645 410 646 449 647 c 1
 457 641 453 619 442 613 c 1
 389 610 361 606 345 523 c 2
 311.8 352.2 l 1
 343.3 357.2 371.3 376.5 439 430 c 2
 439 430 524 493 560 525 c 0
 618 576 627 607 572 613 c 1
 567 619 572 641 579 647 c 1
 624 646 659 645 697 645 c 0
 735 645 743 646 788 647 c 1
 793 641 789 619 782 613 c 1
 708 604 663 559 593 504 c 2
 470 407 l 2
 452 393 454 385 453 378 c 0
 451 370 460 353 473 333 c 2
 633 74 l 2
 652 44 671 36 699 32 c 1
 704 26 700 4 693 -2 c 1
 648 -1 624 0 587 0 c 0
 558 0 500 -1 481 -2 c 0
 477 -2 477 1 477 4 c 0
 478 20 470 48 456 74 c 2
 349 271 l 2
 335.9 294.5 328.2 305.9 303.3 308.4 c 1
 267 122 l 2
 251 39 277 35 329 32 c 1
 337 26 334 4 323 -2 c 1
 285 -1 215 0 177 0 c 0
 139 0 68 -1 29 -2 c 1
 21 4 25 26 36 32 c 1
 89 35 117 39 133 122 c 2
 211 523 l 2
226 -159 m 0
 226 -129 249 -97 296 -97 c 0
 338 -97 361 -133 361 -163 c 0
 361 -189 335 -225 290 -225 c 0
 250 -225 226 -192 226 -159 c 0
EndSplineSet
LCarets2: 1 0 
EndChar

StartChar: uni1E33
Encoding: 7731 7731 121
Width: 560
VWidth: 999
Flags: HW
HStem: -237.3 120.3<155.415 251.512> -10 62<412.5 511.675> 237.3 34.7<261.115 290.799> 351.4 87.6<469.049 556.546> 638 34<149.053 209.246> 678 20<302.5 329.5>
VStem: 141.1 126.9<-220.464 -132.069>
DStem2: 81.3926 -10 203.428 -10 0.207912 0.978148<28.0804 652.395> 415 202 291 221 0.393228 -0.919441<-70.9527 166.459> 316 302.664 348 270 0.748997 0.662574<2.32553 147.914>
LayerCount: 2
Fore
SplineSet
220.9 72 m 2
 212.3 33 213 -10 152 -10 c 0
 96 -10 86.1 0.5 86.1 17.2 c 0
 86.1 27 93.5 48.3 98.8 72 c 2
 209 563 l 2
 224.5 632.1 209 638 147 638 c 1
 144 647 146 660 152 672 c 1
 195 679 287 698 318 698 c 0
 341 698 348 686 348 665 c 0
 348 645 340 616 333 583 c 2
 264.9 272.7 l 1
 283.2 276 301.1 289.9 316 302.7 c 2
 356 337 l 1
 428 401 499 439 531 439 c 0
 575.4 439 596 406.3 596 380.1 c 0
 596 346.3 574.4 310.1 542 310.1 c 0
 525.2 310.1 509.6 326.4 501.2 336.4 c 0
 494 345.2 488 351.4 476 351.4 c 0
 456 351.4 432.1 344.4 400 316 c 2
 348 270 l 1
 349 266 l 1
 382 257 399.3 233.4 415 202 c 0
 429 174 438 146 456 90 c 0
 463 68.2 469.4 52 488.5 52 c 0
 499.5 52 520 65 540 94 c 1
 551 94 563 85 570 77 c 1
 540 15.5 484 -10 433 -10 c 0
 392 -10 367 21 334.4 93 c 0
 314 138.2 309 189 291 221 c 0
 286 230 279 237.3 271.4 237.3 c 0
 266.5 237.3 261.8 237.1 256.9 236.2 c 1
 220.9 72 l 2
182 -159 m 0
 182 -129 205 -97 252 -97 c 0
 294 -97 317 -133 317 -163 c 0
 317 -189 291 -225 246 -225 c 0
 206 -225 182 -192 182 -159 c 0
EndSplineSet
LCarets2: 1 0 
EndChar

StartChar: uni1E34
Encoding: 7732 7732 122
Width: 706
VWidth: 999
Flags: HW
HStem: -131 44<247.852 485.363> -2 34<29.4836 99.8263 271.494 329.377 654.85 697.35> 309 42<300 338.46> 613 34<148.484 206.03 378.174 448.516 574.511 607.196 722.349 786.35>
VStem: 245.4 243.1
DStem2: 106.643 -2 240.643 -2 0.207912 0.978148<83.8642 600.436> 439 430 470 407 0.785209 0.61923<-20.9682 229.081>
LayerCount: 2
Fore
SplineSet
211 523 m 2
 227 606 200 610 148 613 c 1
 140 619 144 641 155 647 c 1
 193 646 265 645 303 645 c 0
 341 645 410 646 449 647 c 1
 457 641 453 619 442 613 c 1
 389 610 361 606 345 523 c 2
 311.8 352.2 l 1
 343.3 357.2 371.3 376.5 439 430 c 2
 439 430 524 493 560 525 c 0
 618 576 627 607 572 613 c 1
 567 619 572 641 579 647 c 1
 624 646 659 645 697 645 c 0
 735 645 743 646 788 647 c 1
 793 641 789 619 782 613 c 1
 708 604 663 559 593 504 c 2
 470 407 l 2
 452 393 454 385 453 378 c 0
 451 370 460 353 473 333 c 2
 633 74 l 2
 652 44 671 36 699 32 c 1
 704 26 700 4 693 -2 c 1
 648 -1 624 0 587 0 c 0
 558 0 500 -1 481 -2 c 0
 477 -2 477 1 477 4 c 0
 478 20 470 48 456 74 c 2
 349 271 l 2
 335.9 294.5 328.2 305.9 303.3 308.4 c 1
 267 122 l 2
 251 39 277 35 329 32 c 1
 337 26 334 4 323 -2 c 1
 285 -1 215 0 177 0 c 0
 139 0 68 -1 29 -2 c 1
 21 4 25 26 36 32 c 1
 89 35 117 39 133 122 c 2
 211 523 l 2
459.3 -131 m 2
 254.3 -131 l 2
 246.3 -131 244 -123 245.4 -116 c 0
 247.8 -104 261.3 -87 273.3 -87 c 2
 478.3 -87 l 2
 487.3 -87 489.9 -94 488.5 -101 c 0
 486.1 -113 472.3 -131 459.3 -131 c 2
EndSplineSet
LCarets2: 1 0 
EndChar

StartChar: uni1E35
Encoding: 7733 7733 123
Width: 560
VWidth: 999
Flags: HW
HStem: -131 44<121.852 359.363> -10 62<412.5 511.675> 237.3 34.7<261.115 290.799> 351.4 87.6<469.049 556.546> 638 34<149.053 209.246> 678 20<302.5 329.5>
VStem: 119.4 243.1
DStem2: 81.3926 -10 203.428 -10 0.207912 0.978148<28.0804 652.395> 415 202 291 221 0.393228 -0.919441<-70.9527 166.459> 316 302.664 348 270 0.748997 0.662574<2.32553 147.914>
LayerCount: 2
Fore
SplineSet
220.9 72 m 2
 212.3 33 213 -10 152 -10 c 0
 96 -10 86.1 0.5 86.1 17.2 c 0
 86.1 27 93.5 48.3 98.8 72 c 2
 209 563 l 2
 224.5 632.1 209 638 147 638 c 1
 144 647 146 660 152 672 c 1
 195 679 287 698 318 698 c 0
 341 698 348 686 348 665 c 0
 348 645 340 616 333 583 c 2
 264.9 272.7 l 1
 283.2 276 301.1 289.9 316 302.7 c 2
 356 337 l 1
 428 401 499 439 531 439 c 0
 575.4 439 596 406.3 596 380.1 c 0
 596 346.3 574.4 310.1 542 310.1 c 0
 525.2 310.1 509.6 326.4 501.2 336.4 c 0
 494 345.2 488 351.4 476 351.4 c 0
 456 351.4 432.1 344.4 400 316 c 2
 348 270 l 1
 349 266 l 1
 382 257 399.3 233.4 415 202 c 0
 429 174 438 146 456 90 c 0
 463 68.2 469.4 52 488.5 52 c 0
 499.5 52 520 65 540 94 c 1
 551 94 563 85 570 77 c 1
 540 15.5 484 -10 433 -10 c 0
 392 -10 367 21 334.4 93 c 0
 314 138.2 309 189 291 221 c 0
 286 230 279 237.3 271.4 237.3 c 0
 266.5 237.3 261.8 237.1 256.9 236.2 c 1
 220.9 72 l 2
333.3 -131 m 2
 128.3 -131 l 2
 120.3 -131 118 -123 119.4 -116 c 0
 121.8 -104 135.3 -87 147.3 -87 c 2
 352.3 -87 l 2
 361.3 -87 363.9 -94 362.5 -101 c 0
 360.1 -113 346.3 -131 333.3 -131 c 2
EndSplineSet
LCarets2: 1 0 
EndChar

StartChar: uni1E36
Encoding: 7734 7734 124
Width: 552
VWidth: 999
Flags: HW
HStem: -237.3 120.3<190.415 286.512> -2 34<29.4836 99.8263> 0 42<263.122 432.53> 613 34<148.484 206.03 378.174 448.516>
VStem: 176.1 126.9<-220.464 -132.069>
DStem2: 106.643 -2 240.856 -2 0.207912 0.978148<81.2166 600.436>
LayerCount: 2
Fore
SplineSet
343 42 m 2
 444 42 490 98 523 170 c 1
 535 172 555 170 563 165 c 1
 547 113 525 48 506 -2 c 1
 506 -2 419 0 391 0 c 2
 177 0 l 2
 140 0 29 -2 29 -2 c 1
 21 4 25 26 36 32 c 1
 89 35 117 39 133 122 c 2
 211 523 l 2
 227 606 200 610 148 613 c 1
 140 619 144 641 155 647 c 1
 155 647 265 645 303 645 c 0
 341 645 370 646 449 647 c 1
 457 641 453 619 442 613 c 1
 389 610 361 606 345 523 c 2
 267 121 l 2
 255 61 265 42 285 42 c 2
 343 42 l 2
177 -159 m 0
 177 -129 200 -97 247 -97 c 0
 289 -97 312 -133 312 -163 c 0
 312 -189 286 -225 241 -225 c 0
 201 -225 177 -192 177 -159 c 0
EndSplineSet
LCarets2: 1 0 
EndChar

StartChar: uni1E37
Encoding: 7735 7735 125
Width: 324
VWidth: 999
Flags: HW
HStem: -237.3 120.3<35.4147 131.512> -10 76<130.055 236.715> 638 34<148.053 208.246> 678 20<301.5 328.5>
VStem: 21.1 126.9<-220.464 -132.069> 97.3 127.1<22.684 168.211>
DStem2: 79.7928 -10 201.88 -10 0.207912 0.978148<122.813 652.52>
LayerCount: 2
Fore
SplineSet
62 -159 m 0
 62 -129 85 -97 132 -97 c 0
 174 -97 197 -133 197 -163 c 0
 197 -189 171 -225 126 -225 c 0
 86 -225 62 -192 62 -159 c 0
208 563 m 2
 224 632 208 638 146 638 c 1
 143 647 145 660 151 672 c 1
 194 679 286 698 317 698 c 0
 340 698 347 686 347 665 c 0
 347 645 339 616 332 583 c 2
 231 127 l 2
 227.9 113.2 224.4 96.6 224.4 84.2 c 0
 224.4 73.5 227 66 235 66 c 0
 245 66 279 83 305 113 c 1
 319 113 331 94 334 85 c 1
 284 30 217.5 -10 148 -10 c 0
 112.1 -10 97.3 12.7 97.3 47.1 c 0
 97.3 67.7 101.9 95.4 107 118 c 2
 208 563 l 2
EndSplineSet
LCarets2: 1 0 
EndChar

StartChar: uni1E38
Encoding: 7736 7736 126
Width: 552
VWidth: 999
Flags: HW
HStem: -237.3 120.3<190.415 286.512> -2 34<29.4836 99.8263> 0 42<263.122 432.53> 613 34<148.484 206.03 378.174 448.516> 765 44<125.19 403.349>
VStem: 122.5 284.1 176.1 126.9<-220.464 -132.069>
DStem2: 106.643 -2 240.856 -2 0.207912 0.978148<81.2166 600.436>
LayerCount: 2
Fore
SplineSet
343 42 m 2
 444 42 490 98 523 170 c 1
 535 172 555 170 563 165 c 1
 547 113 525 48 506 -2 c 1
 506 -2 419 0 391 0 c 2
 177 0 l 2
 140 0 29 -2 29 -2 c 1
 21 4 25 26 36 32 c 1
 89 35 117 39 133 122 c 2
 211 523 l 2
 227 606 200 610 148 613 c 1
 140 619 144 641 155 647 c 1
 155 647 265 645 303 645 c 0
 341 645 370 646 449 647 c 1
 457 641 453 619 442 613 c 1
 389 610 361 606 345 523 c 2
 267 121 l 2
 255 61 265 42 285 42 c 2
 343 42 l 2
177 -159 m 0
 177 -129 200 -97 247 -97 c 0
 289 -97 312 -133 312 -163 c 0
 312 -189 286 -225 241 -225 c 0
 201 -225 177 -192 177 -159 c 0
466.5 765 m 2
 222.5 765 l 2
 213.5 765 211.1 773 212.5 780 c 0
 214.9 792 229.4 809 240.4 809 c 2
 485.4 809 l 2
 495.4 809 497.8 801 496.6 795 c 0
 494.2 783 479.5 765 466.5 765 c 2
EndSplineSet
LCarets2: 1 0 
EndChar

StartChar: uni1E39
Encoding: 7737 7737 127
Width: 324
VWidth: 999
Flags: HW
HStem: -237.3 120.3<35.4147 131.512> -10 76<130.055 236.715> 638 34<148.053 208.246> 678 20<301.5 328.5> 788 44<149.19 427.349>
VStem: 21.1 126.9<-220.464 -132.069> 97.3 127.1<22.684 168.211> 146.5 284.1
DStem2: 79.7928 -10 201.88 -10 0.207912 0.978148<122.813 652.52>
LayerCount: 2
Fore
SplineSet
430.5 788 m 2
 186.5 788 l 2
 177.5 788 175.1 796 176.5 803 c 0
 178.9 815 193.4 832 204.4 832 c 2
 449.4 832 l 2
 459.4 832 461.8 824 460.6 818 c 0
 458.2 806 443.5 788 430.5 788 c 2
62 -159 m 0
 62 -129 85 -97 132 -97 c 0
 174 -97 197 -133 197 -163 c 0
 197 -189 171 -225 126 -225 c 0
 86 -225 62 -192 62 -159 c 0
208 563 m 2
 224 632 208 638 146 638 c 1
 143 647 145 660 151 672 c 1
 194 679 286 698 317 698 c 0
 340 698 347 686 347 665 c 0
 347 645 339 616 332 583 c 2
 231 127 l 2
 227.9 113.2 224.4 96.6 224.4 84.2 c 0
 224.4 73.5 227 66 235 66 c 0
 245 66 279 83 305 113 c 1
 319 113 331 94 334 85 c 1
 284 30 217.5 -10 148 -10 c 0
 112.1 -10 97.3 12.7 97.3 47.1 c 0
 97.3 67.7 101.9 95.4 107 118 c 2
 208 563 l 2
EndSplineSet
LCarets2: 1 0 
EndChar

StartChar: uni1E3A
Encoding: 7738 7738 128
Width: 552
VWidth: 999
Flags: HW
HStem: -131 44<129.852 367.363> -2 34<29.4836 99.8263> 0 42<263.122 432.53> 613 34<148.484 206.03 378.174 448.516>
VStem: 127.4 243.1
DStem2: 106.643 -2 240.856 -2 0.207912 0.978148<81.2166 600.436>
LayerCount: 2
Fore
SplineSet
343 42 m 2
 444 42 490 98 523 170 c 1
 535 172 555 170 563 165 c 1
 547 113 525 48 506 -2 c 1
 506 -2 419 0 391 0 c 2
 177 0 l 2
 140 0 29 -2 29 -2 c 1
 21 4 25 26 36 32 c 1
 89 35 117 39 133 122 c 2
 211 523 l 2
 227 606 200 610 148 613 c 1
 140 619 144 641 155 647 c 1
 155 647 265 645 303 645 c 0
 341 645 370 646 449 647 c 1
 457 641 453 619 442 613 c 1
 389 610 361 606 345 523 c 2
 267 121 l 2
 255 61 265 42 285 42 c 2
 343 42 l 2
341.3 -131 m 2
 136.3 -131 l 2
 128.3 -131 126 -123 127.4 -116 c 0
 129.8 -104 143.3 -87 155.3 -87 c 2
 360.3 -87 l 2
 369.3 -87 371.9 -94 370.5 -101 c 0
 368.1 -113 354.3 -131 341.3 -131 c 2
EndSplineSet
LCarets2: 1 0 
EndChar

StartChar: uni1E3B
Encoding: 7739 7739 129
Width: 324
VWidth: 999
Flags: HW
HStem: -131 44<-11.1477 226.363> -10 76<130.055 236.715> 638 34<148.053 208.246> 678 20<301.5 328.5>
VStem: -13.6 243.1 97.3 127.1<22.684 168.211>
DStem2: 79.7928 -10 201.88 -10 0.207912 0.978148<122.813 652.52>
LayerCount: 2
Fore
SplineSet
240.3 -131 m 2
 35.3 -131 l 2
 27.3 -131 25 -123 26.4 -116 c 0
 28.8 -104 42.3 -87 54.3 -87 c 2
 259.3 -87 l 2
 268.3 -87 270.9 -94 269.5 -101 c 0
 267.1 -113 253.3 -131 240.3 -131 c 2
208 563 m 2
 224 632 208 638 146 638 c 1
 143 647 145 660 151 672 c 1
 194 679 286 698 317 698 c 0
 340 698 347 686 347 665 c 0
 347 645 339 616 332 583 c 2
 231 127 l 2
 227.9 113.2 224.4 96.6 224.4 84.2 c 0
 224.4 73.5 227 66 235 66 c 0
 245 66 279 83 305 113 c 1
 319 113 331 94 334 85 c 1
 284 30 217.5 -10 148 -10 c 0
 112.1 -10 97.3 12.7 97.3 47.1 c 0
 97.3 67.7 101.9 95.4 107 118 c 2
 208 563 l 2
EndSplineSet
LCarets2: 1 0 
EndChar

StartChar: uni1E3C
Encoding: 7740 7740 130
Width: 552
VWidth: 999
Flags: HW
HStem: -2 34<29.4836 99.8263> 0 42<263.122 432.53> 613 34<148.484 206.03 378.174 448.516>
VStem: -5 253<-186 -186>
DStem2: 106.643 -2 240.856 -2 0.207912 0.978148<81.2166 600.436>
LayerCount: 2
Fore
SplineSet
343 42 m 2
 444 42 490 98 523 170 c 1
 535 172 555 170 563 165 c 1
 547 113 525 48 506 -2 c 1
 506 -2 419 0 391 0 c 2
 177 0 l 2
 140 0 29 -2 29 -2 c 1
 21 4 25 26 36 32 c 1
 89 35 117 39 133 122 c 2
 211 523 l 2
 227 606 200 610 148 613 c 1
 140 619 144 641 155 647 c 1
 155 647 265 645 303 645 c 0
 341 645 370 646 449 647 c 1
 457 641 453 619 442 613 c 1
 389 610 361 606 345 523 c 2
 267 121 l 2
 255 61 265 42 285 42 c 2
 343 42 l 2
312.9 -57 m 1
 332.3 -104 359.8 -146 387.7 -186 c 1
 363.8 -200 l 1
 330.7 -171 302.8 -146 276.1 -110 c 1
 231.4 -148 194.3 -173 150.8 -200 c 1
 133.7 -186 l 1
 177.8 -146 224.5 -103 262.9 -57 c 1
 312.9 -57 l 1
EndSplineSet
LCarets2: 1 0 
EndChar

StartChar: uni1E3D
Encoding: 7741 7741 131
Width: 324
VWidth: 999
Flags: HW
HStem: -10 76<130.055 236.715> 638 34<148.053 208.246> 678 20<301.5 328.5>
VStem: -144 253<-186 -186> 97.3 127.1<22.684 168.211>
DStem2: 79.7928 -10 201.88 -10 0.207912 0.978148<122.813 652.52>
LayerCount: 2
Fore
SplineSet
173.9 -77 m 1
 193.3 -124 220.8 -166 248.7 -206 c 1
 224.8 -220 l 1
 191.7 -191 163.8 -166 137.1 -130 c 1
 92.4 -168 55.3 -193 11.8 -220 c 1
 -5.3 -206 l 1
 38.8 -166 85.5 -123 123.9 -77 c 1
 173.9 -77 l 1
208 563 m 2
 224 632 208 638 146 638 c 1
 143 647 145 660 151 672 c 1
 194 679 286 698 317 698 c 0
 340 698 347 686 347 665 c 0
 347 645 339 616 332 583 c 2
 231 127 l 2
 227.9 113.2 224.4 96.6 224.4 84.2 c 0
 224.4 73.5 227 66 235 66 c 0
 245 66 279 83 305 113 c 1
 319 113 331 94 334 85 c 1
 284 30 217.5 -10 148 -10 c 0
 112.1 -10 97.3 12.7 97.3 47.1 c 0
 97.3 67.7 101.9 95.4 107 118 c 2
 208 563 l 2
EndSplineSet
LCarets2: 1 0 
EndChar

StartChar: uni1E3E
Encoding: 7742 7742 132
Width: 862
VWidth: 999
Flags: HW
HStem: -2 34<11.5107 67.1287 161.98 201.97 576.65 640.661 789.871 840.964> 613 34<175.65 232.368 860.5 927.35> 697 120
VStem: 459 227
DStem2: 105 121 162 123 0.275337 0.961348<-55.0003 17.6169> 377 645 264 498 0.185372 -0.982669<123.505 452.061> 467 201 394 5 0.516399 0.856348<0 412.198> 659 116 790 121 0.124905 0.992169<-59.2152 421.721>
LayerCount: 2
Fore
SplineSet
659 116 m 2
 715 534 l 1
 713 534 l 1
 394 5 l 2
 389 -4 380 -8 374 -8 c 0
 368 -8 358 -2 357 5 c 2
 264 498 l 1
 260 498 l 1
 162 123 l 1
 146 67 146 37 208 32 c 1
 213 26 208 4 201 -2 c 1
 172 -1 115 0 92 0 c 0
 69 0 38 -1 9 -2 c 1
 4 4 9 26 16 32 c 1
 72 37 88 61 105 121 c 2
 223 533 l 2
 244 608 239 609 174 613 c 1
 169 619 173 641 180 647 c 1
 377 645 l 1
 462 201 l 1
 467 201 l 1
 736 645 l 1
 929 647 l 1
 934 641 930 619 923 613 c 1
 857 609 849 596 843 542 c 2
 790 121 l 2
 779 38 781 35 846 32 c 1
 851 26 847 4 840 -2 c 1
 808 -1 764 0 735 0 c 0
 706 0 620 -1 575 -2 c 1
 570 4 574 26 581 32 c 1
 644 35 648 35 659 116 c 2
583.3 879 m 1
 606.5 867.4 630.6 844.6 640.5 824 c 1
 635.9 812 l 1
 483.7 754 l 2
 468.4 748.2 456.7 747 447.7 747 c 0
 438.7 747 428.7 754 429.8 762 c 0
 430.8 769 431.9 774.7 442.8 783 c 0
 466.3 801 539.4 851 583.3 879 c 1
EndSplineSet
LCarets2: 1 0 
EndChar

StartChar: uni1E3F
Encoding: 7743 7743 133
Width: 884
VWidth: 999
Flags: HW
HStem: -10 21<133 191.5 404 462.5 686 735.75> 369 67<392.324 472.419 650.948 743.803> 385 38<101.417 143>
VStem: 161 133.5<273.981 421.221> 433 129<293.668 368.086> 705 129<246.617 368.013>
DStem2: 90.3924 -10 212.427 -10 0.207912 0.978148<28.0832 303.139> 361.391 -10 483.42 -10 0.207912 0.978148<28.0833 336.059> 632.43 -10 754.517 -10 0.207912 0.978148<103.402 349.953>
LayerCount: 2
Fore
SplineSet
146 243 m 2
 160.7 308.8 161 341.1 161 352 c 0
 161 363.7 157.4 380.9 143 382 c 2
 103 385 l 1
 97 394 98.3 415 105 423 c 1
 152 429 239 436 271 436 c 0
 284.2 436 294.5 425.6 294.5 411.9 c 0
 294.5 394.6 291 353.3 282 311 c 1
 283 310 l 1
 375 418 421 439 473 439 c 0
 512 439 562 419 562 359 c 0
 562 353.4 561.5 347.4 560.6 340.6 c 1
 634.2 422.1 698.3 439 745 439 c 0
 784 439 834 419 834 359 c 0
 834 341 829.3 317.9 821 283 c 2
 783 124 l 2
 776.7 98.4 769.7 63 787 63 c 0
 797 63 831 80 857 110 c 1
 871 110 883 91 886 82 c 1
 840 23 770.5 -10 701 -10 c 0
 671 -10 659.5 2.5 652 23 c 0
 645.5 40.8 651.2 83.2 659 115 c 2
 696 275 l 2
 703.9 309 705 319 705 333 c 0
 705 364 690.7 369 680 369 c 0
 639.2 369 595.7 324 543.3 257.9 c 1
 500.8 72 l 2
 492.1 34 493 -10 432 -10 c 0
 376 -10 366.1 0.5 366.1 17.2 c 0
 366.1 27 374.3 51.9 378.8 72 c 2
 424 275 l 2
 431.6 309.1 433 324.3 433 343 c 0
 433 364.3 424 369 413 369 c 0
 377 369 331 310 268 228 c 1
 229.9 72 l 2
 220.6 34.1 222 -10 161 -10 c 0
 105 -10 95.1 0.5 95.1 17.2 c 0
 95.1 27 103.3 51.9 107.8 72 c 2
 146 243 l 2
488.7 657 m 1
 491.8 658 500 659 505 659 c 0
 535 659 552 645 558.6 635 c 1
 565.4 612 l 1
 430.2 504 l 2
 414.5 492 400 488 390 488 c 0
 382 488 375.2 496 376 502 c 0
 376.8 508 380 517 387.3 526 c 2
 488.7 657 l 1
EndSplineSet
LCarets2: 1 0 
EndChar

StartChar: uni1E40
Encoding: 7744 7744 134
Width: 862
VWidth: 999
Flags: HW
HStem: -2 34<11.5107 67.1287 161.98 201.97 576.65 640.661 789.871 840.964> 613 34<175.65 232.368 860.5 927.35> 635 128<491.302 591.126>
VStem: 475 135<653.993 745.845>
DStem2: 105 121 162 123 0.275337 0.961348<-55.0003 17.6169> 377 645 264 498 0.185372 -0.982668<123.505 452.061> 467 201 394 5 0.516399 0.856348<0 412.198> 659 116 790 121 0.124905 0.992169<-59.2152 421.721>
LayerCount: 2
Fore
SplineSet
659 116 m 2
 715 534 l 1
 713 534 l 1
 394 5 l 2
 389 -4 380 -8 374 -8 c 0
 368 -8 358 -2 357 5 c 2
 264 498 l 1
 260 498 l 1
 162 123 l 1
 146 67 146 37 208 32 c 1
 213 26 208 4 201 -2 c 1
 172 -1 115 0 92 0 c 0
 69 0 38 -1 9 -2 c 1
 4 4 9 26 16 32 c 1
 72 37 88 61 105 121 c 2
 223 533 l 2
 244 608 239 609 174 613 c 1
 169 619 173 641 180 647 c 1
 377 645 l 1
 462 201 l 1
 467 201 l 1
 736 645 l 1
 929 647 l 1
 934 641 930 619 923 613 c 1
 857 609 849 596 843 542 c 2
 790 121 l 2
 779 38 781 35 846 32 c 1
 851 26 847 4 840 -2 c 1
 808 -1 764 0 735 0 c 0
 706 0 620 -1 575 -2 c 1
 570 4 574 26 581 32 c 1
 644 35 648 35 659 116 c 2
475 701 m 0
 475 731 498 763 545 763 c 0
 587 763 610 727 610 697 c 0
 610 671 584 635 539 635 c 0
 499 635 475 668 475 701 c 0
EndSplineSet
EndChar

StartChar: uni1E41
Encoding: 7745 7745 135
Width: 884
VWidth: 999
Flags: HW
HStem: -10 21<133 191.5 404 462.5 686 735.75> 369 67<392.324 472.419 650.948 743.803> 385 38<101.417 143> 523 128<471.302 571.126>
VStem: 161 133.5<273.981 421.221> 433 129<293.668 368.086> 455 135<541.993 633.845> 705 129<246.617 368.013>
DStem2: 90.3924 -10 212.427 -10 0.207912 0.978148<28.0832 303.139> 361.391 -10 483.42 -10 0.207912 0.978148<28.0833 336.059> 632.43 -10 754.517 -10 0.207912 0.978148<103.402 349.953>
LayerCount: 2
Fore
SplineSet
146 243 m 2
 160.7 308.8 161 341.1 161 352 c 0
 161 363.7 157.4 380.9 143 382 c 2
 103 385 l 1
 97 394 98.3 415 105 423 c 1
 152 429 239 436 271 436 c 0
 284.2 436 294.5 425.6 294.5 411.9 c 0
 294.5 394.6 291 353.3 282 311 c 1
 283 310 l 1
 375 418 421 439 473 439 c 0
 512 439 562 419 562 359 c 0
 562 353.4 561.5 347.4 560.6 340.6 c 1
 634.2 422.1 698.3 439 745 439 c 0
 784 439 834 419 834 359 c 0
 834 341 829.3 317.9 821 283 c 2
 783 124 l 2
 776.7 98.4 769.7 63 787 63 c 0
 797 63 831 80 857 110 c 1
 871 110 883 91 886 82 c 1
 840 23 770.5 -10 701 -10 c 0
 671 -10 659.5 2.5 652 23 c 0
 645.5 40.8 651.2 83.2 659 115 c 2
 696 275 l 2
 703.9 309 705 319 705 333 c 0
 705 364 690.7 369 680 369 c 0
 639.2 369 595.7 324 543.3 257.9 c 1
 500.8 72 l 2
 492.1 34 493 -10 432 -10 c 0
 376 -10 366.1 0.5 366.1 17.2 c 0
 366.1 27 374.3 51.9 378.8 72 c 2
 424 275 l 2
 431.6 309.1 433 324.3 433 343 c 0
 433 364.3 424 369 413 369 c 0
 377 369 331 310 268 228 c 1
 229.9 72 l 2
 220.6 34.1 222 -10 161 -10 c 0
 105 -10 95.1 0.5 95.1 17.2 c 0
 95.1 27 103.3 51.9 107.8 72 c 2
 146 243 l 2
455 589 m 0
 455 619 478 651 525 651 c 0
 567 651 590 615 590 585 c 0
 590 559 564 523 519 523 c 0
 479 523 455 556 455 589 c 0
EndSplineSet
LCarets2: 1 0 
EndChar

StartChar: uni1E42
Encoding: 7746 7746 136
Width: 862
VWidth: 999
Flags: HW
HStem: -237.3 120.3<299.415 395.512> -2 34<11.5107 67.1287 161.98 201.97 576.65 640.661 789.871 840.964> 613 34<175.65 232.368 860.5 927.35>
VStem: 285.1 126.9<-220.464 -132.069>
DStem2: 105 121 162 123 0.275337 0.961348<-55.0003 17.6169> 377 645 264 498 0.185372 -0.982669<123.505 452.061> 467 201 394 5 0.516399 0.856348<0 412.198> 659 116 790 121 0.124905 0.992169<-59.2152 421.721>
LayerCount: 2
Fore
SplineSet
659 116 m 2
 715 534 l 1
 713 534 l 1
 394 5 l 2
 389 -4 380 -8 374 -8 c 0
 368 -8 358 -2 357 5 c 2
 264 498 l 1
 260 498 l 1
 162 123 l 1
 146 67 146 37 208 32 c 1
 213 26 208 4 201 -2 c 1
 172 -1 115 0 92 0 c 0
 69 0 38 -1 9 -2 c 1
 4 4 9 26 16 32 c 1
 72 37 88 61 105 121 c 2
 223 533 l 2
 244 608 239 609 174 613 c 1
 169 619 173 641 180 647 c 1
 377 645 l 1
 462 201 l 1
 467 201 l 1
 736 645 l 1
 929 647 l 1
 934 641 930 619 923 613 c 1
 857 609 849 596 843 542 c 2
 790 121 l 2
 779 38 781 35 846 32 c 1
 851 26 847 4 840 -2 c 1
 808 -1 764 0 735 0 c 0
 706 0 620 -1 575 -2 c 1
 570 4 574 26 581 32 c 1
 644 35 648 35 659 116 c 2
286 -159 m 0
 286 -129 309 -97 356 -97 c 0
 398 -97 421 -133 421 -163 c 0
 421 -189 395 -225 350 -225 c 0
 310 -225 286 -192 286 -159 c 0
EndSplineSet
LCarets2: 1 0 
EndChar

StartChar: uni1E43
Encoding: 7747 7747 137
Width: 884
VWidth: 999
Flags: HW
HStem: -225 128<346.302 446.126> -10 21<133 191.5 404 462.5 686 735.75> 369 67<392.324 472.419 650.948 743.803> 385 38<101.417 143>
VStem: 161 133.5<273.981 421.221> 330 135<-206.007 -114.155> 433 129<293.668 368.086> 705 129<246.617 368.013>
DStem2: 90.3924 -10 212.427 -10 0.207912 0.978148<28.0832 303.139> 361.391 -10 483.42 -10 0.207912 0.978148<28.0833 336.059> 632.43 -10 754.517 -10 0.207912 0.978148<103.402 349.953>
LayerCount: 2
Fore
SplineSet
146 243 m 2
 160.7 308.8 161 341.1 161 352 c 0
 161 363.7 157.4 380.9 143 382 c 2
 103 385 l 1
 97 394 98.3 415 105 423 c 1
 152 429 239 436 271 436 c 0
 284.2 436 294.5 425.6 294.5 411.9 c 0
 294.5 394.6 291 353.3 282 311 c 1
 283 310 l 1
 375 418 421 439 473 439 c 0
 512 439 562 419 562 359 c 0
 562 353.4 561.5 347.4 560.6 340.6 c 1
 634.2 422.1 698.3 439 745 439 c 0
 784 439 834 419 834 359 c 0
 834 341 829.3 317.9 821 283 c 2
 783 124 l 2
 776.7 98.4 769.7 63 787 63 c 0
 797 63 831 80 857 110 c 1
 871 110 883 91 886 82 c 1
 840 23 770.5 -10 701 -10 c 0
 671 -10 659.5 2.5 652 23 c 0
 645.5 40.8 651.2 83.2 659 115 c 2
 696 275 l 2
 703.9 309 705 319 705 333 c 0
 705 364 690.7 369 680 369 c 0
 639.2 369 595.7 324 543.3 257.9 c 1
 500.8 72 l 2
 492.1 34 493 -10 432 -10 c 0
 376 -10 366.1 0.5 366.1 17.2 c 0
 366.1 27 374.3 51.9 378.8 72 c 2
 424 275 l 2
 431.6 309.1 433 324.3 433 343 c 0
 433 364.3 424 369 413 369 c 0
 377 369 331 310 268 228 c 1
 229.9 72 l 2
 220.6 34.1 222 -10 161 -10 c 0
 105 -10 95.1 0.5 95.1 17.2 c 0
 95.1 27 103.3 51.9 107.8 72 c 2
 146 243 l 2
330 -159 m 0
 330 -129 353 -97 400 -97 c 0
 442 -97 465 -133 465 -163 c 0
 465 -189 439 -225 394 -225 c 0
 354 -225 330 -192 330 -159 c 0
EndSplineSet
LCarets2: 1 0 
EndChar

StartChar: uni1E44
Encoding: 7748 7748 138
Width: 709
VWidth: 999
Flags: HW
HStem: -12 21<529.364 560> -2 34<15.6498 87.0344 182.499 241.489> 613 34<143.511 181.427 590.511 649.501 745.396 816.489> 675 128<404.302 504.126>
VStem: 388 135<693.993 785.845>
DStem2: 93.1793 -12 149.179 -12 0.207912 0.978148<77.9397 484.444> 378 540 268 430 0.527616 -0.849483<9.02261 381.094> 546.349 -12 604.769 -12 0.207912 0.978148<235.787 612.355>
LayerCount: 2
Fore
SplineSet
614 0 m 1
 595 -9 577 -12 543 -12 c 1
 543 -12 527 7 513 32 c 1
 268 430 l 2
 260 443 254 450 250 450 c 0
 244 450 240 440 238 430 c 2
 180 133 l 2
 162 42 178 39 244 32 c 1
 249 26 244 4 237 -2 c 1
 189 -1 167 0 122 0 c 0
 80 0 61 -1 14 -2 c 1
 9 4 13 26 20 32 c 1
 89 39 107 44 124 133 c 2
 205 550 l 1
 204 576 182 610 141 613 c 1
 136 619 141 641 148 647 c 1
 312 645 l 1
 378 540 l 1
 571 228 l 2
 581 212 593 205 598 231 c 2
 652 512 l 2
 670 603 654 606 588 613 c 1
 583 619 588 641 595 647 c 1
 643 646 666 645 711 645 c 0
 753 645 772 646 819 647 c 1
 824 641 819 619 812 613 c 1
 743 606 726 601 709 512 c 2
 629 102 l 2
 623 71 614 0 614 0 c 1
388 741 m 0
 388 771 411 803 458 803 c 0
 500 803 523 767 523 737 c 0
 523 711 497 675 452 675 c 0
 412 675 388 708 388 741 c 0
EndSplineSet
EndChar

StartChar: uni1E45
Encoding: 7749 7749 139
Width: 614
VWidth: 999
Flags: HW
HStem: -10 73<428 534.297> 369 70<403.576 485.785> 385 38<102.417 144> 448.7 120.3<309.415 405.512>
VStem: 162 133.5<281.977 422.7> 295.1 126.9<465.536 553.931> 447 129<246.617 367.541>
DStem2: 84.3924 -10 206.427 -10 0.207912 0.978148<28.0833 303.474 353.823 379.588> 374.43 -10 496.517 -10 0.207912 0.978148<103.402 349.953>
LayerCount: 2
Fore
SplineSet
140 243 m 2
 154.7 308.8 155 341.1 155 352 c 0
 155 363.7 151.4 380.9 137 382 c 2
 97 385 l 1
 91 394 92.3 415 99 423 c 1
 146 429 233 436 265 436 c 0
 278.2 436 288.5 425.6 288.5 411.9 c 0
 288.5 394.6 285 353.3 276 311 c 1
 278 309 l 1
 370 417 423.3 439 487 439 c 0
 526 439 576 419 576 359 c 0
 576 341 571.3 317.9 563 283 c 2
 525 124 l 2
 518.7 98.4 511.7 63 529 63 c 0
 539 63 573 80 599 110 c 1
 613 110 625 91 628 82 c 1
 582 23 512.5 -10 443 -10 c 0
 413 -10 401.5 2.5 394 23 c 0
 387.5 40.8 393.2 83.2 401 115 c 2
 438 275 l 2
 445.9 309 447 319 447 333 c 0
 447 364 433 369 412 369 c 0
 376 369 325 310 262 228 c 1
 223.9 72 l 2
 214.4 33.2 216 -10 155 -10 c 0
 99 -10 89.1 0.5 89.1 17.2 c 0
 89.1 27 97.4 52.1 101.8 72 c 2
 140 243 l 2
326 577 m 0
 326 607 349 639 396 639 c 0
 438 639 461 603 461 573 c 0
 461 547 435 511 390 511 c 0
 350 511 326 544 326 577 c 0
EndSplineSet
LCarets2: 1 0 
EndChar

StartChar: uni1E46
Encoding: 7750 7750 140
Width: 709
VWidth: 999
Flags: HW
HStem: -237.3 120.3<273.415 369.512> -12 21<529.364 560> -2 34<15.6498 87.0344 182.499 241.489> 613 34<143.511 181.427 590.511 649.501 745.396 816.489>
VStem: 259.1 126.9<-220.464 -132.069>
DStem2: 93.1793 -12 149.179 -12 0.207912 0.978148<77.9397 484.444> 378 540 268 430 0.527616 -0.849483<9.02261 381.094> 546.349 -12 604.769 -12 0.207912 0.978148<235.787 612.355>
LayerCount: 2
Fore
SplineSet
614 0 m 1
 595 -9 577 -12 543 -12 c 1
 543 -12 527 7 513 32 c 1
 268 430 l 2
 260 443 254 450 250 450 c 0
 244 450 240 440 238 430 c 2
 180 133 l 2
 162 42 178 39 244 32 c 1
 249 26 244 4 237 -2 c 1
 189 -1 167 0 122 0 c 0
 80 0 61 -1 14 -2 c 1
 9 4 13 26 20 32 c 1
 89 39 107 44 124 133 c 2
 205 550 l 1
 204 576 182 610 141 613 c 1
 136 619 141 641 148 647 c 1
 312 645 l 1
 378 540 l 1
 571 228 l 2
 581 212 593 205 598 231 c 2
 652 512 l 2
 670 603 654 606 588 613 c 1
 583 619 588 641 595 647 c 1
 643 646 666 645 711 645 c 0
 753 645 772 646 819 647 c 1
 824 641 819 619 812 613 c 1
 743 606 726 601 709 512 c 2
 629 102 l 2
 623 71 614 0 614 0 c 1
260 -159 m 0
 260 -129 283 -97 330 -97 c 0
 372 -97 395 -133 395 -163 c 0
 395 -189 369 -225 324 -225 c 0
 284 -225 260 -192 260 -159 c 0
EndSplineSet
LCarets2: 1 0 
EndChar

StartChar: uni1E47
Encoding: 7751 7751 141
Width: 614
VWidth: 999
Flags: HW
HStem: -237.3 120.3<168.415 264.512> -10 73<428 534.297> 369 70<403.576 485.785> 385 38<102.417 144>
VStem: 154.1 126.9<-220.464 -132.069> 162 133.5<281.977 422.7> 447 129<246.617 367.541>
DStem2: 84.3924 -10 206.427 -10 0.207912 0.978148<28.0833 303.474 353.823 379.588> 374.43 -10 496.517 -10 0.207912 0.978148<103.402 349.953>
LayerCount: 2
Fore
SplineSet
140 243 m 2
 154.7 308.8 155 341.1 155 352 c 0
 155 363.7 151.4 380.9 137 382 c 2
 97 385 l 1
 91 394 92.3 415 99 423 c 1
 146 429 233 436 265 436 c 0
 278.2 436 288.5 425.6 288.5 411.9 c 0
 288.5 394.6 285 353.3 276 311 c 1
 278 309 l 1
 370 417 423.3 439 487 439 c 0
 526 439 576 419 576 359 c 0
 576 341 571.3 317.9 563 283 c 2
 525 124 l 2
 518.7 98.4 511.7 63 529 63 c 0
 539 63 573 80 599 110 c 1
 613 110 625 91 628 82 c 1
 582 23 512.5 -10 443 -10 c 0
 413 -10 401.5 2.5 394 23 c 0
 387.5 40.8 393.2 83.2 401 115 c 2
 438 275 l 2
 445.9 309 447 319 447 333 c 0
 447 364 433 369 412 369 c 0
 376 369 325 310 262 228 c 1
 223.9 72 l 2
 214.4 33.2 216 -10 155 -10 c 0
 99 -10 89.1 0.5 89.1 17.2 c 0
 89.1 27 97.4 52.1 101.8 72 c 2
 140 243 l 2
195 -139 m 0
 195 -109 218 -77 265 -77 c 0
 307 -77 330 -113 330 -143 c 0
 330 -169 304 -205 259 -205 c 0
 219 -205 195 -172 195 -139 c 0
EndSplineSet
LCarets2: 1 0 
EndChar

StartChar: uni1E48
Encoding: 7752 7752 142
Width: 709
VWidth: 999
Flags: HW
HStem: -131 44<214.852 452.363> -12 21<529.364 560> -2 34<15.6498 87.0344 182.499 241.489> 613 34<143.511 181.427 590.511 649.501 745.396 816.489>
VStem: 212.4 243.1
DStem2: 93.1793 -12 149.179 -12 0.207912 0.978148<77.9397 484.444> 378 540 268 430 0.527616 -0.849483<9.02261 381.094> 546.349 -12 604.769 -12 0.207912 0.978148<235.787 612.355>
LayerCount: 2
Fore
SplineSet
614 0 m 1
 595 -9 577 -12 543 -12 c 1
 543 -12 527 7 513 32 c 1
 268 430 l 2
 260 443 254 450 250 450 c 0
 244 450 240 440 238 430 c 2
 180 133 l 2
 162 42 178 39 244 32 c 1
 249 26 244 4 237 -2 c 1
 189 -1 167 0 122 0 c 0
 80 0 61 -1 14 -2 c 1
 9 4 13 26 20 32 c 1
 89 39 107 44 124 133 c 2
 205 550 l 1
 204 576 182 610 141 613 c 1
 136 619 141 641 148 647 c 1
 312 645 l 1
 378 540 l 1
 571 228 l 2
 581 212 593 205 598 231 c 2
 652 512 l 2
 670 603 654 606 588 613 c 1
 583 619 588 641 595 647 c 1
 643 646 666 645 711 645 c 0
 753 645 772 646 819 647 c 1
 824 641 819 619 812 613 c 1
 743 606 726 601 709 512 c 2
 629 102 l 2
 623 71 614 0 614 0 c 1
426.3 -131 m 2
 221.3 -131 l 2
 213.3 -131 211 -123 212.4 -116 c 0
 214.8 -104 228.3 -87 240.3 -87 c 2
 445.3 -87 l 2
 454.3 -87 456.9 -94 455.5 -101 c 0
 453.1 -113 439.3 -131 426.3 -131 c 2
EndSplineSet
LCarets2: 1 0 
EndChar

StartChar: uni1E49
Encoding: 7753 7753 143
Width: 614
VWidth: 999
Flags: HW
HStem: -131 44<120.852 358.363> -10 73<428 534.297> 369 70<403.576 485.785> 385 38<102.417 144>
VStem: 118.4 243.1 162 133.5<281.977 422.7> 447 129<246.617 367.541>
DStem2: 84.3924 -10 206.427 -10 0.207912 0.978148<28.0833 303.474 353.823 379.588> 374.43 -10 496.517 -10 0.207912 0.978148<103.402 349.953>
LayerCount: 2
Fore
SplineSet
140 243 m 2
 154.7 308.8 155 341.1 155 352 c 0
 155 363.7 151.4 380.9 137 382 c 2
 97 385 l 1
 91 394 92.3 415 99 423 c 1
 146 429 233 436 265 436 c 0
 278.2 436 288.5 425.6 288.5 411.9 c 0
 288.5 394.6 285 353.3 276 311 c 1
 278 309 l 1
 370 417 423.3 439 487 439 c 0
 526 439 576 419 576 359 c 0
 576 341 571.3 317.9 563 283 c 2
 525 124 l 2
 518.7 98.4 511.7 63 529 63 c 0
 539 63 573 80 599 110 c 1
 613 110 625 91 628 82 c 1
 582 23 512.5 -10 443 -10 c 0
 413 -10 401.5 2.5 394 23 c 0
 387.5 40.8 393.2 83.2 401 115 c 2
 438 275 l 2
 445.9 309 447 319 447 333 c 0
 447 364 433 369 412 369 c 0
 376 369 325 310 262 228 c 1
 223.9 72 l 2
 214.4 33.2 216 -10 155 -10 c 0
 99 -10 89.1 0.5 89.1 17.2 c 0
 89.1 27 97.4 52.1 101.8 72 c 2
 140 243 l 2
392.3 -131 m 2
 187.3 -131 l 2
 179.3 -131 177 -123 178.4 -116 c 0
 180.8 -104 194.3 -87 206.3 -87 c 2
 411.3 -87 l 2
 420.3 -87 422.9 -94 421.5 -101 c 0
 419.1 -113 405.3 -131 392.3 -131 c 2
EndSplineSet
LCarets2: 1 0 
EndChar

StartChar: uni1E4A
Encoding: 7754 7754 144
Width: 709
VWidth: 999
Flags: HW
HStem: -12 21<529.364 560> -2 34<15.6498 87.0344 182.499 241.489> 613 34<143.511 181.427 590.511 649.501 745.396 816.489>
VStem: 84 253<-186 -186>
DStem2: 93.1793 -12 149.179 -12 0.207912 0.978148<77.9397 484.444> 378 540 268 430 0.527616 -0.849483<9.02261 381.094> 546.349 -12 604.769 -12 0.207912 0.978148<235.787 612.355>
LayerCount: 2
Fore
SplineSet
614 0 m 1
 595 -9 577 -12 543 -12 c 1
 543 -12 527 7 513 32 c 1
 268 430 l 2
 260 443 254 450 250 450 c 0
 244 450 240 440 238 430 c 2
 180 133 l 2
 162 42 178 39 244 32 c 1
 249 26 244 4 237 -2 c 1
 189 -1 167 0 122 0 c 0
 80 0 61 -1 14 -2 c 1
 9 4 13 26 20 32 c 1
 89 39 107 44 124 133 c 2
 205 550 l 1
 204 576 182 610 141 613 c 1
 136 619 141 641 148 647 c 1
 312 645 l 1
 378 540 l 1
 571 228 l 2
 581 212 593 205 598 231 c 2
 652 512 l 2
 670 603 654 606 588 613 c 1
 583 619 588 641 595 647 c 1
 643 646 666 645 711 645 c 0
 753 645 772 646 819 647 c 1
 824 641 819 619 812 613 c 1
 743 606 726 601 709 512 c 2
 629 102 l 2
 623 71 614 0 614 0 c 1
371.9 -57 m 1
 391.3 -104 418.8 -146 446.7 -186 c 1
 422.8 -200 l 1
 389.7 -171 361.8 -146 335.1 -110 c 1
 290.4 -148 253.3 -173 209.8 -200 c 1
 192.7 -186 l 1
 236.8 -146 283.5 -103 321.9 -57 c 1
 371.9 -57 l 1
EndSplineSet
LCarets2: 1 0 
EndChar

StartChar: uni1E4B
Encoding: 7755 7755 145
Width: 614
VWidth: 999
Flags: HW
HStem: -10 73<428 534.297> 369 70<403.576 485.785> 385 38<102.417 144>
VStem: -18 253<-186 -186> 162 133.5<281.977 422.7> 447 129<246.617 367.541>
DStem2: 84.3924 -10 206.427 -10 0.207912 0.978148<28.0833 303.474 353.823 379.588> 374.43 -10 496.517 -10 0.207912 0.978148<103.402 349.953>
LayerCount: 2
Fore
SplineSet
140 243 m 2
 154.7 308.8 155 341.1 155 352 c 0
 155 363.7 151.4 380.9 137 382 c 2
 97 385 l 1
 91 394 92.3 415 99 423 c 1
 146 429 233 436 265 436 c 0
 278.2 436 288.5 425.6 288.5 411.9 c 0
 288.5 394.6 285 353.3 276 311 c 1
 278 309 l 1
 370 417 423.3 439 487 439 c 0
 526 439 576 419 576 359 c 0
 576 341 571.3 317.9 563 283 c 2
 525 124 l 2
 518.7 98.4 511.7 63 529 63 c 0
 539 63 573 80 599 110 c 1
 613 110 625 91 628 82 c 1
 582 23 512.5 -10 443 -10 c 0
 413 -10 401.5 2.5 394 23 c 0
 387.5 40.8 393.2 83.2 401 115 c 2
 438 275 l 2
 445.9 309 447 319 447 333 c 0
 447 364 433 369 412 369 c 0
 376 369 325 310 262 228 c 1
 223.9 72 l 2
 214.4 33.2 216 -10 155 -10 c 0
 99 -10 89.1 0.5 89.1 17.2 c 0
 89.1 27 97.4 52.1 101.8 72 c 2
 140 243 l 2
309.9 -67 m 1
 329.3 -114 356.8 -156 384.7 -196 c 1
 360.8 -210 l 1
 327.7 -181 299.8 -156 273.1 -120 c 1
 228.4 -158 191.3 -183 147.8 -210 c 1
 130.7 -196 l 1
 174.8 -156 221.5 -113 259.9 -67 c 1
 309.9 -67 l 1
EndSplineSet
LCarets2: 1 0 
EndChar

StartChar: uni1E4C
Encoding: 7756 7756 146
Width: 699
VWidth: 999
Flags: HW
HStem: -10 42<305.617 437.972> 616 42<386.043 524.05> 696.4 48.4<467.24 539.585> 749.2 50.6<364.742 438.821> 811.9 116.2
VStem: 88.2 144.9<134.863 370.274> 327.4 251 497.1 162.2 592 144.6<268.374 515.303>
LayerCount: 2
Fore
SplineSet
615.3 928.1 m 1
 633.2 917.9 651.6 897.7 659.3 879.6 c 1
 655.7 869.1 l 1
 538.6 818 l 2
 526.8 812.9 517.8 811.9 510.9 811.9 c 0
 504 811.9 496.2 818.1 497.1 825.1 c 0
 497.9 831.3 498.7 836.3 507.1 843.6 c 0
 525.2 859.4 581.5 903.5 615.3 928.1 c 1
456 616 m 0
 402.8 616 348.8 583.5 306.1 509.2 c 0
 272 449.9 233.1 331.2 233.1 226.1 c 0
 233.1 101.8 289.2 32 374 32 c 0
 493.9 32 592 216 592 422.6 c 0
 592 550.4 537.4 616 456 616 c 0
347 -10 m 0
 203.7 -10 88.2 83.6 88.2 240.7 c 0
 88.2 370.3 146.5 473.5 219 546 c 0
 288 615 380 658 476 658 c 0
 628.9 658 736.6 559.9 736.6 403.6 c 0
 736.6 175.4 569.7 -10 347 -10 c 0
507.5 744.8 m 0
 526.2 744.8 539.8 755.8 559 802 c 1
 578.4 795.4 l 1
 557.8 729.4 528 696.4 488.9 696.4 c 0
 470.2 696.4 454.4 709.6 439 725 c 0
 425.6 737.1 411.3 749.2 396.9 749.2 c 0
 374.8 749.2 361.1 732.7 346.9 696.4 c 1
 327.4 701.9 l 1
 349.5 766.8 374.2 799.8 410.8 799.8 c 0
 436.3 799.8 452.5 784.4 467.1 769 c 0
 478.6 755.8 491.3 744.8 507.5 744.8 c 0
EndSplineSet
LCarets2: 1 0 
EndChar

StartChar: uni1E4D
Encoding: 7757 7757 147
Width: 479
VWidth: 999
Flags: HW
HStem: -10 42<224.256 313.034> 397 42<261.998 354.97> 504 44<382.342 467.453> 552 46<261.755 348.907>
VStem: 68 129<76.6651 261.445> 217.8 295.3 372 129<157.58 362.762>
LayerCount: 2
Fore
SplineSet
435.2 766.1 m 1
 437.6 767 443.9 767.9 447.8 767.9 c 0
 470.9 767.9 484 755.6 489.1 746.8 c 1
 494.3 726.5 l 1
 390.2 631.5 l 2
 378.1 620.9 366.9 617.4 359.2 617.4 c 0
 353 617.4 347.8 624.4 348.4 629.7 c 0
 349 635 351.5 642.9 357.1 650.8 c 2
 435.2 766.1 l 1
196 170 m 0
 196 58.1 226 32 255 32 c 0
 359.2 32 371 177.4 371 260 c 0
 371 318.1 368 397 315 397 c 0
 213.9 397 196 270 196 170 c 0
67 162 m 0
 67 248.8 122.7 352.9 216.5 405 c 0
 252.4 425 293.8 439 340 439 c 0
 463 439 500 353 500 281 c 0
 500 145.9 427.6 57.9 340.5 14 c 0
 311.1 -0.8 260.5 -10 220 -10 c 0
 93 -10 67 98 67 162 c 0
415 554 m 0
 429 554 451 561 470.1 597 c 1
 484.1 597 497 589 495.3 577 c 1
 470.1 519 428.2 484 391.2 484 c 0
 368.2 484 347.1 490 329.2 505 c 1
 311 518 291.5 522 273.5 522 c 0
 251.5 522 235.2 520 218.9 482 c 1
 206.9 482 193.4 486 195.4 500 c 1
 218.6 551 256.5 593 291.5 593 c 0
 322.5 593 344.2 584 362 568 c 0
 378 554 404 554 415 554 c 0
EndSplineSet
LCarets2: 1 0 
EndChar

StartChar: uni1E4E
Encoding: 7758 7758 148
Width: 699
VWidth: 999
Flags: HW
HStem: -10 42<305.617 437.972> 616 42<386.043 524.05> 696.4 48.4<467.24 539.585> 706 92<234.347 311.653 644.347 721.653> 749.2 50.6<364.742 438.821>
VStem: 88.2 144.9<134.863 370.274> 227 92<713.347 790.653> 327.4 251 592 144.6<268.374 515.303> 637 92<713.347 790.653>
LayerCount: 2
Fore
SplineSet
637 752 m 0
 637 777 658 798 683 798 c 0
 708 798 729 777 729 752 c 0
 729 727 708 706 683 706 c 0
 658 706 637 727 637 752 c 0
227 752 m 0
 227 777 248 798 273 798 c 0
 298 798 319 777 319 752 c 0
 319 727 298 706 273 706 c 0
 248 706 227 727 227 752 c 0
456 616 m 0
 402.8 616 348.8 583.5 306.1 509.2 c 0
 272 449.9 233.1 331.2 233.1 226.1 c 0
 233.1 101.8 289.2 32 374 32 c 0
 493.9 32 592 216 592 422.6 c 0
 592 550.4 537.4 616 456 616 c 0
347 -10 m 0
 203.7 -10 88.2 83.6 88.2 240.7 c 0
 88.2 370.3 146.5 473.5 219 546 c 0
 288 615 380 658 476 658 c 0
 628.9 658 736.6 559.9 736.6 403.6 c 0
 736.6 175.4 569.7 -10 347 -10 c 0
507.5 744.8 m 0
 526.2 744.8 539.8 755.8 559 802 c 1
 578.4 795.4 l 1
 557.8 729.4 528 696.4 488.9 696.4 c 0
 470.2 696.4 454.4 709.6 439 725 c 0
 425.6 737.1 411.3 749.2 396.9 749.2 c 0
 374.8 749.2 361.1 732.7 346.9 696.4 c 1
 327.4 701.9 l 1
 349.5 766.8 374.2 799.8 410.8 799.8 c 0
 436.3 799.8 452.5 784.4 467.1 769 c 0
 478.6 755.8 491.3 744.8 507.5 744.8 c 0
EndSplineSet
LCarets2: 1 0 
EndChar

StartChar: uni1E4F
Encoding: 7759 7759 149
Width: 479
VWidth: 999
Flags: HW
HStem: -10 42<223.256 312.034> 397 42<260.998 353.269> 487 70<348.475 440.27> 525 71<241.166 331.033> 652 109<255.191 332.324 429.667 507.376>
VStem: 67 129<76.6651 261.445> 191.4 299.8 241.8 103.4<664.274 747.798> 371 129<157.58 362.762> 416.7 103.4<664.274 748.642>
LayerCount: 2
Fore
SplineSet
416.7 706 m 0
 418.9 737 443.2 761 472.3 761 c 0
 500.5 761 522.3 737 520.1 706 c 0
 517.9 676 492.7 652 464.5 652 c 0
 435.4 652 414.5 676 416.7 706 c 0
241.8 706 m 0
 244 737 269.3 761 297.5 761 c 0
 326.6 761 347.4 737 345.2 706 c 0
 343 676 318.8 652 289.7 652 c 0
 261.5 652 239.6 676 241.8 706 c 0
196 170 m 0
 196 58.1 226 32 255 32 c 0
 359.2 32 371 177.4 371 260 c 0
 371 318.1 368 397 315 397 c 0
 213.9 397 196 270 196 170 c 0
67 162 m 0
 67 248.8 122.7 352.9 216.5 405 c 0
 252.4 425 293.8 439 340 439 c 0
 463 439 500 353 500 281 c 0
 500 145.9 427.6 57.9 340.5 14 c 0
 311.1 -0.8 260.5 -10 220 -10 c 0
 93 -10 67 98 67 162 c 0
411 557 m 0
 425 557 447 564 466.1 600 c 1
 480.1 600 492.9 592 491.2 580 c 1
 466 522 424.2 487 387.2 487 c 0
 364.2 487 343.1 493 325.2 508 c 1
 307 521 287.5 525 269.5 525 c 0
 247.5 525 231.2 523 214.9 485 c 1
 202.9 485 189.4 489 191.4 503 c 1
 214.6 554 252.5 596 287.5 596 c 0
 318.5 596 340.2 587 358 571 c 0
 374 557 400 557 411 557 c 0
EndSplineSet
LCarets2: 1 0 
EndChar

StartChar: uni1E50
Encoding: 7760 7760 150
Width: 699
VWidth: 999
Flags: HW
HStem: -10 42<305.617 437.972> 616 42<386.043 524.05> 765 44<330.312 566.747>
VStem: 88.2 144.9<134.863 370.274> 328 241.4 592 144.6<268.374 515.303>
LayerCount: 2
Fore
SplineSet
253.8 927.4 m 1
 233.3 916.8 210.1 897.5 197.8 879 c 1
 198.8 868.4 l 1
 303.4 817.4 l 2
 313.5 812.1 322.7 811.2 329.6 811.2 c 0
 336.5 811.2 345.7 817.4 346.6 824.4 c 0
 347.4 830.6 348 835.9 341.2 842.9 c 0
 327 858.7 281.6 902.8 253.8 927.4 c 1
456 616 m 0
 402.8 616 348.8 583.5 306.1 509.2 c 0
 272 449.9 233.1 331.2 233.1 226.1 c 0
 233.1 101.8 289.2 32 374 32 c 0
 493.9 32 592 216 592 422.6 c 0
 592 550.4 537.4 616 456 616 c 0
347 -10 m 0
 203.7 -10 88.2 83.6 88.2 240.7 c 0
 88.2 370.3 146.5 473.5 219 546 c 0
 288 615 380 658 476 658 c 0
 628.9 658 736.6 559.9 736.6 403.6 c 0
 736.6 175.4 569.7 -10 347 -10 c 0
543.9 765 m 2
 336.5 765 l 2
 328.9 765 326.8 773 328 780 c 0
 330.1 792 342.3 809 351.7 809 c 2
 560 809 l 2
 568.5 809 570.4 801 569.4 795 c 0
 567.3 783 554.9 765 543.9 765 c 2
EndSplineSet
LCarets2: 1 0 
EndChar

StartChar: uni1E51
Encoding: 7761 7761 151
Width: 479
VWidth: 999
Flags: HW
HStem: -10 42<223.256 312.034> 397 42<260.998 353.269> 538 44<216.19 494.349>
VStem: 67 129<76.6651 261.445> 213.5 284.1 371 129<157.58 362.762>
LayerCount: 2
Fore
SplineSet
196 170 m 0
 196 58.1 226 32 255 32 c 0
 359.2 32 371 177.4 371 260 c 0
 371 318.1 368 397 315 397 c 0
 213.9 397 196 270 196 170 c 0
67 162 m 0
 67 248.8 122.7 352.9 216.5 405 c 0
 252.4 425 293.8 439 340 439 c 0
 463 439 500 353 500 281 c 0
 500 145.9 427.6 57.9 340.5 14 c 0
 311.1 -0.8 260.5 -10 220 -10 c 0
 93 -10 67 98 67 162 c 0
467.5 538 m 2
 223.5 538 l 2
 214.5 538 212.1 546 213.5 553 c 0
 215.9 565 230.4 582 241.4 582 c 2
 486.4 582 l 2
 496.4 582 498.8 574 497.6 568 c 0
 495.2 556 480.5 538 467.5 538 c 2
318.2 758.1 m 1
 357.9 649 l 2
 360.2 642.8 362.9 633.1 362 626.1 c 0
 361 618.2 354.1 612 347.2 612 c 0
 341 612 333.9 616.4 322.4 629.6 c 2
 240.6 722 l 1
 243.3 731.7 l 1
 250.4 739.6 275.3 759.9 303 759.9 c 0
 306.8 759.9 315.2 759 318.2 758.1 c 1
EndSplineSet
LCarets2: 1 0 
EndChar

StartChar: uni1E52
Encoding: 7762 7762 152
Width: 699
VWidth: 999
Flags: HW
HStem: -10 42<305.617 437.972> 616 42<386.043 524.05> 765 44<308.312 544.747> 811.9 116.2
VStem: 88.2 144.9<134.863 370.274> 306 241.4 492.1 162.2 592 144.6<268.374 515.303>
LayerCount: 2
Fore
SplineSet
610.3 928.1 m 1
 628.2 917.9 646.6 897.7 654.3 879.6 c 1
 650.7 869.1 l 1
 533.6 818 l 2
 521.8 812.9 512.8 811.9 505.9 811.9 c 0
 499 811.9 491.2 818.1 492.1 825.1 c 0
 492.9 831.3 493.7 836.3 502.1 843.6 c 0
 520.2 859.4 576.5 903.5 610.3 928.1 c 1
456 616 m 0
 402.8 616 348.8 583.5 306.1 509.2 c 0
 272 449.9 233.1 331.2 233.1 226.1 c 0
 233.1 101.8 289.2 32 374 32 c 0
 493.9 32 592 216 592 422.6 c 0
 592 550.4 537.4 616 456 616 c 0
347 -10 m 0
 203.7 -10 88.2 83.6 88.2 240.7 c 0
 88.2 370.3 146.5 473.5 219 546 c 0
 288 615 380 658 476 658 c 0
 628.9 658 736.6 559.9 736.6 403.6 c 0
 736.6 175.4 569.7 -10 347 -10 c 0
521.9 765 m 2
 314.5 765 l 2
 306.9 765 304.8 773 306 780 c 0
 308.1 792 320.3 809 329.7 809 c 2
 538 809 l 2
 546.5 809 548.4 801 547.4 795 c 0
 545.3 783 532.9 765 521.9 765 c 2
EndSplineSet
LCarets2: 1 0 
EndChar

StartChar: uni1E53
Encoding: 7763 7763 153
Width: 479
VWidth: 999
Flags: HW
HStem: -10 42<223.256 312.034> 397 42<260.998 353.269> 538 44<216.19 494.349>
VStem: 67 129<76.6651 261.445> 213.5 284.1 371 129<157.58 362.762>
LayerCount: 2
Fore
SplineSet
196 170 m 0
 196 58.1 226 32 255 32 c 0
 359.2 32 371 177.4 371 260 c 0
 371 318.1 368 397 315 397 c 0
 213.9 397 196 270 196 170 c 0
67 162 m 0
 67 248.8 122.7 352.9 216.5 405 c 0
 252.4 425 293.8 439 340 439 c 0
 463 439 500 353 500 281 c 0
 500 145.9 427.6 57.9 340.5 14 c 0
 311.1 -0.8 260.5 -10 220 -10 c 0
 93 -10 67 98 67 162 c 0
467.5 538 m 2
 223.5 538 l 2
 214.5 538 212.1 546 213.5 553 c 0
 215.9 565 230.4 582 241.4 582 c 2
 486.4 582 l 2
 496.4 582 498.8 574 497.6 568 c 0
 495.2 556 480.5 538 467.5 538 c 2
371.2 767.1 m 1
 373.6 768 379.9 768.9 383.8 768.9 c 0
 406.9 768.9 420 756.6 425.1 747.8 c 1
 430.3 727.5 l 1
 326.2 632.5 l 2
 314.1 621.9 302.9 618.4 295.2 618.4 c 0
 289 618.4 283.8 625.4 284.4 630.7 c 0
 285 636 287.5 643.9 293.1 651.8 c 2
 371.2 767.1 l 1
EndSplineSet
LCarets2: 1 0 
EndChar

StartChar: uni1E54
Encoding: 7764 7764 154
Width: 588
VWidth: 999
Flags: HW
HStem: -2 34<29.4836 99.8263 271.494 329.377> 277 42<335.918 448.965> 613 34<148.484 206.03> 613 41<262.087 488.28> 757 132
VStem: 319.8 210.7
DStem2: 106.643 -2 240.643 -2 0.207912 0.978148<83.8642 600.786>
LayerCount: 2
Fore
SplineSet
459 654 m 0
 531 654 582 643 613 621 c 0
 665 584 668 524 660 484 c 0
 650 431 621 366 565 325 c 0
 520 292 458 277 373 277 c 0
 350 277 353 278 340 280 c 1
 328 289 325 303 329 322 c 1
 342 320 362 319 376 319 c 0
 455 319 492 363 512 467 c 0
 536 589 476 613 420 613 c 0
 369 613 358 592 345 524 c 2
 267 122 l 2
 251 39 277 35 329 32 c 1
 337 26 334 4 323 -2 c 1
 285 -1 215 0 177 0 c 0
 139 0 68 -1 29 -2 c 1
 21 4 25 26 36 32 c 1
 89 35 117 39 133 122 c 2
 211 523 l 2
 227 606 200 610 148 613 c 1
 140 619 144 641 155 647 c 1
 193 647 421 654 459 654 c 0
473.3 889 m 1
 496.5 877.4 520.6 854.6 530.5 834 c 1
 525.9 822 l 1
 373.7 764 l 2
 358.4 758.2 346.7 757 337.7 757 c 0
 328.7 757 318.7 764 319.8 772 c 0
 320.8 779 321.9 784.7 332.8 793 c 0
 356.3 811 429.4 861 473.3 889 c 1
EndSplineSet
LCarets2: 1 0 
EndChar

StartChar: uni1E55
Encoding: 7765 7765 155
Width: 549
VWidth: 999
Flags: HW
HStem: -235 40<-5 22 226 249> -10 42<262.01 363.232> 388 51<340.886 481>
VStem: 447 128<191.706 373.048>
DStem2: 56.5076 -238 174.508 -238 0.207912 0.978148<81.2447 291.783 328.717 543.201 585.026 646.597 681.922 717.233>
LayerCount: 2
Fore
SplineSet
316 404 m 1
 343 420 380 439 431 439 c 0
 531 439 575 373 575 289 c 0
 575 220.1 530.1 110.5 453 45 c 0
 411.5 9.7 358 -10 303 -10 c 0
 267 -10 247 7 232 23 c 1
 193 -151 l 2
 185 -185 211 -190 226 -192 c 2
 245 -195 l 2
 249 -196 251 -198 251 -203 c 2
 251 -233 l 1
 249 -235 l 1
 249 -235 181 -233 142 -233 c 0
 106 -233 -5 -238 -5 -238 c 1
 -7 -236 l 1
 -7 -207 l 2
 -7 -201 -2 -200 3 -199 c 2
 22 -196 l 2
 54 -191 68.9 -179 75 -151 c 2
 171 293 l 1
 143 270 121 252 99 223 c 1
 81 223 74.9 244.8 71 259 c 1
 99 294 136 324 186 360 c 1
 198 409 l 2
 207.2 446.7 249 491 287 491 c 0
 319 491 329 481 329 464 c 0
 329 452 319.6 421.9 316 404 c 1
447 273 m 0
 447 322 439 388 397 388 c 0
 359 388 330 370 305 354 c 1
 241 75 l 1
 262 46 289 32 315 32 c 0
 402 32 447 207 447 273 c 0
456.7 717 m 1
 459.8 718 468 719 473 719 c 0
 503 719 520 705 526.6 695 c 1
 533.4 672 l 1
 398.2 564 l 2
 382.5 552 368 548 358 548 c 0
 350 548 343.2 556 344 562 c 0
 344.8 568 348 577 355.3 586 c 2
 456.7 717 l 1
EndSplineSet
LCarets2: 1 0 
EndChar

StartChar: uni1E56
Encoding: 7766 7766 156
Width: 588
VWidth: 999
Flags: HW
HStem: -2 34<29.4836 99.8263 271.494 329.377> 277 42<335.918 448.965> 613 34<148.484 206.03> 613 41<262.087 488.28> 730 128<389.302 489.126>
VStem: 373 135<748.993 840.845>
DStem2: 106.643 -2 240.643 -2 0.207912 0.978148<83.8642 600.786>
LayerCount: 2
Fore
SplineSet
459 654 m 0
 531 654 582 643 613 621 c 0
 665 584 668 524 660 484 c 0
 650 431 621 366 565 325 c 0
 520 292 458 277 373 277 c 0
 350 277 353 278 340 280 c 1
 328 289 325 303 329 322 c 1
 342 320 362 319 376 319 c 0
 455 319 492 363 512 467 c 0
 536 589 476 613 420 613 c 0
 369 613 358 592 345 524 c 2
 267 122 l 2
 251 39 277 35 329 32 c 1
 337 26 334 4 323 -2 c 1
 285 -1 215 0 177 0 c 0
 139 0 68 -1 29 -2 c 1
 21 4 25 26 36 32 c 1
 89 35 117 39 133 122 c 2
 211 523 l 2
 227 606 200 610 148 613 c 1
 140 619 144 641 155 647 c 1
 193 647 421 654 459 654 c 0
373 796 m 0
 373 826 396 858 443 858 c 0
 485 858 508 822 508 792 c 0
 508 766 482 730 437 730 c 0
 397 730 373 763 373 796 c 0
EndSplineSet
LCarets2: 1 0 
EndChar

StartChar: uni1E57
Encoding: 7767 7767 157
Width: 549
VWidth: 999
Flags: HW
HStem: -235 40<-5 22 226 249> -10 42<262.01 363.232> 388 51<340.886 481> 531 128<366.302 466.126>
VStem: 350 135<549.993 641.845> 447 128<191.706 373.048>
DStem2: 56.5076 -238 174.508 -238 0.207912 0.978148<81.2447 291.783 328.717 543.201 585.026 646.597 681.922 717.233>
LayerCount: 2
Fore
SplineSet
316 404 m 1
 343 420 380 439 431 439 c 0
 531 439 575 373 575 289 c 0
 575 220.1 530.1 110.5 453 45 c 0
 411.5 9.7 358 -10 303 -10 c 0
 267 -10 247 7 232 23 c 1
 193 -151 l 2
 185 -185 211 -190 226 -192 c 2
 245 -195 l 2
 249 -196 251 -198 251 -203 c 2
 251 -233 l 1
 249 -235 l 1
 249 -235 181 -233 142 -233 c 0
 106 -233 -5 -238 -5 -238 c 1
 -7 -236 l 1
 -7 -207 l 2
 -7 -201 -2 -200 3 -199 c 2
 22 -196 l 2
 54 -191 68.9 -179 75 -151 c 2
 171 293 l 1
 143 270 121 252 99 223 c 1
 81 223 74.9 244.8 71 259 c 1
 99 294 136 324 186 360 c 1
 198 409 l 2
 207.2 446.7 249 491 287 491 c 0
 319 491 329 481 329 464 c 0
 329 452 319.6 421.9 316 404 c 1
447 273 m 0
 447 322 439 388 397 388 c 0
 359 388 330 370 305 354 c 1
 241 75 l 1
 262 46 289 32 315 32 c 0
 402 32 447 207 447 273 c 0
350 597 m 0
 350 627 373 659 420 659 c 0
 462 659 485 623 485 593 c 0
 485 567 459 531 414 531 c 0
 374 531 350 564 350 597 c 0
EndSplineSet
LCarets2: 1 0 
EndChar

StartChar: uni1E58
Encoding: 7768 7768 158
Width: 686
VWidth: 999
Flags: HW
HStem: -10 42<631.631 677.456> -2 34<29.4836 99.8263 271.494 329.377 636.732 681.147> 283 42<307 384.636> 613 34<148.484 206.03> 613 41<262.087 489.297> 720 128<431.302 531.126>
VStem: 415 135<738.993 830.845>
DStem2: 104.943 -10 238.943 -10 0.207912 0.978148<92.0429 331.68 369.69 608.965> 514 308 390 253 0.393919 -0.919145<0.561062 273.305>
LayerCount: 2
Fore
SplineSet
522.1 511.6 m 0
 522.1 592.5 467.8 613 420 613 c 0
 369 613 358 592 345 524 c 2
 307 325 l 1
 348 325 l 2
 437.9 325 522.1 366.2 522.1 511.6 c 0
459 654 m 0
 586.3 654 663.3 615.1 663.3 510.5 c 0
 663.3 391.5 571.5 330.6 514 308 c 1
 604 98 l 2
 623 56 641 32 684 32 c 1
 684.4 30.3 684.6 28.1 684.6 25.6 c 0
 684.6 16.4 681.9 3.5 678 -2 c 1
 667 -7 617 -10 578 -10 c 0
 520 -10 490 34 469 79 c 2
 390 253 l 1
 381 276 374 283 298 283 c 1
 267 122 l 2
 263.8 105.6 262.3 92.2 262.3 81.4 c 0
 262.3 37.5 287.3 34.4 329 32 c 1
 332.1 29.7 333.5 25 333.5 19.8 c 0
 333.5 11.4 329.8 1.7 323 -2 c 1
 285 -1 215 0 177 0 c 0
 139 0 68 -1 29 -2 c 1
 26.1 0.2 24.8 4.4 24.8 9.2 c 0
 24.8 17.8 29 28.2 36 32 c 1
 89 35 117 39 133 122 c 2
 211 523 l 2
 214.1 539.1 215.6 552.2 215.6 562.9 c 0
 215.6 607.5 189.9 610.6 148 613 c 1
 145.1 615.2 143.8 619.4 143.8 624.2 c 0
 143.8 632.8 148 643.2 155 647 c 1
 193 647 421 654 459 654 c 0
415 786 m 0
 415 816 438 848 485 848 c 0
 527 848 550 812 550 782 c 0
 550 756 524 720 479 720 c 0
 439 720 415 753 415 786 c 0
EndSplineSet
LCarets2: 1 0 
EndChar

StartChar: uni1E59
Encoding: 7769 7769 159
Width: 426
VWidth: 999
Flags: HW
HStem: -10 21<127 185.5> 351.4 84.6<351.518 436.06> 385 38<102.417 144> 448.7 120.3<273.415 369.512>
VStem: 162 133.5<281.977 422.7> 259.1 126.9<465.536 553.931>
DStem2: 84.3924 -10 206.427 -10 0.207912 0.978148<28.0833 321.18 353.823 379.588>
LayerCount: 2
Fore
SplineSet
270 228 m 1
 231.9 72 l 2
 222.4 33.2 224 -10 163 -10 c 0
 107 -10 97.1 0.5 97.1 17.2 c 0
 97.1 27 105.5 52.1 109.8 72 c 2
 147 243 l 2
 161.3 308.9 162 341.1 162 352 c 0
 162 363.7 158.4 380.9 144 382 c 2
 104 385 l 1
 98 394 99.3 415 106 423 c 1
 153 429 240 436 272 436 c 0
 285.2 436 295.5 425.6 295.5 411.9 c 0
 295.5 394.4 292 353.3 283 311 c 1
 286 309 l 1
 330 402 386.6 438.9 431.6 438.9 c 0
 476 438.9 494 406.3 494 380.1 c 0
 494 346.3 472.4 310.1 440 310.1 c 0
 423.2 310.1 407.6 326.4 399.2 336.4 c 0
 392 345.2 386 351.4 374 351.4 c 0
 346.4 351.4 318 315 270 228 c 1
280 597 m 0
 280 627 303 659 350 659 c 0
 392 659 415 623 415 593 c 0
 415 567 389 531 344 531 c 0
 304 531 280 564 280 597 c 0
EndSplineSet
LCarets2: 1 0 
EndChar

StartChar: uni1E5A
Encoding: 7770 7770 160
Width: 686
VWidth: 999
Flags: HW
HStem: -225 128<299.302 399.126> -10 42<631.631 677.456> -2 34<25.4126 99.8263 270.832 333.063 636.732 683.65> 283 42<307 385.386> 613 34<144.413 206.079> 613 41<262.087 488.441>
VStem: 283 135<-206.007 -114.155> 522.1 141.2<420.223 580.802>
DStem2: 104.943 -10 238.943 -10 0.207912 0.978148<122.615 331.68 369.69 582.933> 514 308 390 253 0.393919 -0.919145<0.561062 273.305>
LayerCount: 2
Fore
SplineSet
522.1 511.6 m 0
 522.1 592.5 467.8 613 420 613 c 0
 369 613 358 592 345 524 c 2
 307 325 l 1
 348 325 l 2
 437.9 325 522.1 366.2 522.1 511.6 c 0
459 654 m 0
 586.3 654 663.3 615.1 663.3 510.5 c 0
 663.3 391.5 571.5 330.6 514 308 c 1
 604 98 l 2
 623 56 641 32 684 32 c 1
 684.4 30.3 684.6 28.1 684.6 25.6 c 0
 684.6 16.4 681.9 3.5 678 -2 c 1
 667 -7 617 -10 578 -10 c 0
 520 -10 490 34 469 79 c 2
 390 253 l 1
 381 276 374 283 298 283 c 1
 267 122 l 2
 263.8 105.6 262.3 92.2 262.3 81.4 c 0
 262.3 37.5 287.3 34.4 329 32 c 1
 332.1 29.7 333.5 25 333.5 19.8 c 0
 333.5 11.4 329.8 1.7 323 -2 c 1
 285 -1 215 0 177 0 c 0
 139 0 68 -1 29 -2 c 1
 26.1 0.2 24.8 4.4 24.8 9.2 c 0
 24.8 17.8 29 28.2 36 32 c 1
 89 35 117 39 133 122 c 2
 211 523 l 2
 214.1 539.1 215.6 552.2 215.6 562.9 c 0
 215.6 607.5 189.9 610.6 148 613 c 1
 145.1 615.2 143.8 619.4 143.8 624.2 c 0
 143.8 632.8 148 643.2 155 647 c 1
 193 647 421 654 459 654 c 0
283 -159 m 0
 283 -129 306 -97 353 -97 c 0
 395 -97 418 -133 418 -163 c 0
 418 -189 392 -225 347 -225 c 0
 307 -225 283 -192 283 -159 c 0
EndSplineSet
LCarets2: 1 0 
EndChar

StartChar: uni1E5B
Encoding: 7771 7771 161
Width: 426
VWidth: 999
Flags: HW
HStem: -225 128<172.302 272.126> -10 21<135 193.5> 351.4 84.6<365.867 444.06> 385 38<102.417 144>
VStem: 156 135<-206.007 -114.155> 162 133.5<273.984 421.221>
DStem2: 92.3924 -10 214.427 -10 0.207912 0.978148<28.0833 321.18>
LayerCount: 2
Fore
SplineSet
270 228 m 1
 231.9 72 l 2
 222.4 33.2 224 -10 163 -10 c 0
 107 -10 97.1 0.5 97.1 17.2 c 0
 97.1 27 105.5 52.1 109.8 72 c 2
 147 243 l 2
 161.3 308.9 162 341.1 162 352 c 0
 162 363.7 158.4 380.9 144 382 c 2
 104 385 l 1
 98 394 99.3 415 106 423 c 1
 153 429 240 436 272 436 c 0
 285.2 436 295.5 425.6 295.5 411.9 c 0
 295.5 394.4 292 353.3 283 311 c 1
 286 309 l 1
 330 402 386.6 438.9 431.6 438.9 c 0
 476 438.9 494 406.3 494 380.1 c 0
 494 346.3 472.4 310.1 440 310.1 c 0
 423.2 310.1 407.6 326.4 399.2 336.4 c 0
 392 345.2 386 351.4 374 351.4 c 0
 346.4 351.4 318 315 270 228 c 1
156 -159 m 0
 156 -129 179 -97 226 -97 c 0
 268 -97 291 -133 291 -163 c 0
 291 -189 265 -225 220 -225 c 0
 180 -225 156 -192 156 -159 c 0
EndSplineSet
LCarets2: 1 0 
EndChar

StartChar: uni1E5C
Encoding: 7772 7772 162
Width: 686
VWidth: 999
Flags: HW
HStem: -225 128<299.302 399.126> -10 42<631.631 677.456> -2 34<25.4126 99.8263 270.832 333.063 636.732 683.65> 283 42<307 385.386> 613 34<144.413 206.079> 613 41<262.087 488.441> 765 44<325.19 603.349>
VStem: 283 135<-206.007 -114.155> 322.5 284.1 522.1 141.2<420.223 580.802>
DStem2: 104.943 -10 238.943 -10 0.207912 0.978148<122.615 331.68 369.69 582.933> 514 308 390 253 0.393919 -0.919145<0.561062 273.305>
LayerCount: 2
Fore
SplineSet
522.1 511.6 m 0
 522.1 592.5 467.8 613 420 613 c 0
 369 613 358 592 345 524 c 2
 307 325 l 1
 348 325 l 2
 437.9 325 522.1 366.2 522.1 511.6 c 0
459 654 m 0
 586.3 654 663.3 615.1 663.3 510.5 c 0
 663.3 391.5 571.5 330.6 514 308 c 1
 604 98 l 2
 623 56 641 32 684 32 c 1
 684.4 30.3 684.6 28.1 684.6 25.6 c 0
 684.6 16.4 681.9 3.5 678 -2 c 1
 667 -7 617 -10 578 -10 c 0
 520 -10 490 34 469 79 c 2
 390 253 l 1
 381 276 374 283 298 283 c 1
 267 122 l 2
 263.8 105.6 262.3 92.2 262.3 81.4 c 0
 262.3 37.5 287.3 34.4 329 32 c 1
 332.1 29.7 333.5 25 333.5 19.8 c 0
 333.5 11.4 329.8 1.7 323 -2 c 1
 285 -1 215 0 177 0 c 0
 139 0 68 -1 29 -2 c 1
 26.1 0.2 24.8 4.4 24.8 9.2 c 0
 24.8 17.8 29 28.2 36 32 c 1
 89 35 117 39 133 122 c 2
 211 523 l 2
 214.1 539.1 215.6 552.2 215.6 562.9 c 0
 215.6 607.5 189.9 610.6 148 613 c 1
 145.1 615.2 143.8 619.4 143.8 624.2 c 0
 143.8 632.8 148 643.2 155 647 c 1
 193 647 421 654 459 654 c 0
283 -159 m 0
 283 -129 306 -97 353 -97 c 0
 395 -97 418 -133 418 -163 c 0
 418 -189 392 -225 347 -225 c 0
 307 -225 283 -192 283 -159 c 0
576.5 765 m 2
 332.5 765 l 2
 323.5 765 321.1 773 322.5 780 c 0
 324.9 792 339.4 809 350.4 809 c 2
 595.4 809 l 2
 605.4 809 607.8 801 606.6 795 c 0
 604.2 783 589.5 765 576.5 765 c 2
EndSplineSet
LCarets2: 1 0 
EndChar

